<?xml version="1.0" encoding="utf-8"?>
<!-- Generator: Adobe Illustrator 25.1.0, SVG Export Plug-In . SVG Version: 6.00 Build 0)  -->
<svg version="1.1" id="Layer_1" xmlns="http://www.w3.org/2000/svg" xmlns:xlink="http://www.w3.org/1999/xlink" x="0px" y="0px"
	 viewBox="0 0 16 16" style="enable-background:new 0 0 16 16;" xml:space="preserve">
<style type="text/css">
	.st0{fill:#BCB8B7;}
	.st1{fill:none;}
	.st2{fill:#52C9F4;}
	.st3{fill:#60818A;}
	.st4{fill:#F0923A;}
	.st5{fill:#AB7C4E;}
	.st6{fill:#6D655D;}
	.st7{fill:#4EB8DF;}
	.st8{fill:#647E85;}
	.st9{fill:#5B95A9;}
	.st10{fill:#677272;}
	.st11{fill:#856D58;}
	.st12{fill:#52A7CB;}
	.st13{fill:#6DA1B8;}
	.st14{fill:#7D8180;}
	.st15{fill:#283437;}
	.st16{fill:#998A7A;}
	.st17{fill:#272C2C;}
	.st18{fill:#70BEDD;}
	.st19{fill:#8A725D;}
	.st20{fill:#599EB8;}
	.st21{fill:#113B48;}
	.st22{fill:#A17954;}
	.st23{fill:#677E83;}
	.st24{fill:#F0963E;}
	.st25{fill:#657B7F;}
	.st26{fill:#818F91;}
	.st27{fill:#9F7750;}
	.st28{fill:#AA8A6E;}
	.st29{fill:#6C431C;}
	.st30{fill:#DD9E62;}
	.st31{fill:#F09138;}
	.st32{fill:#667D83;}
	.st33{fill:#687373;}
	.st34{fill:#4FC7F3;}
	.st35{fill:#836C57;}
	.st36{fill:#647A7E;}
	.st37{fill:#4FC9F5;}
</style>
<g>
	<path class="st0" d="M15.4,7.5C15.3,17,1,17,0.9,7.5C1-1.9,15.3-1.9,15.4,7.5z"/>
	<rect x="-2" y="-2.6" class="st1" width="20.7" height="20.7"/>
	<g>
		<g>
			<path class="st2" d="M8.7,12.8c0,0.2-0.1,0.4-0.1,0.5c0,0.1,0.1,0.4,0.2,0.5C9,14,9.2,14,9.5,14c0.3-0.1,0.6-0.1,0.9-0.1
				c0.1,0,0.2,0,0.2-0.2c0-0.1,0.1-0.1,0.1-0.2c0.3,0,0.6,0,0.9,0c0.2,0,0.3-0.1,0.3-0.3c0-0.1,0-0.2,0-0.3c0,0,0-0.1,0-0.1
				c0.2-0.2,0.3-0.5,0.6-0.7c0,0,0.1-0.1,0.1-0.1c0.2,0,0.4-0.1,0.5-0.2c0.1-0.1,0.3-0.3,0.4-0.3c0.2-0.1,0.5-0.2,0.7-0.3
				c0,0,0.1,0.1,0.2,0.2c-0.1,0.1-0.3,0.3-0.4,0.4c-0.2,0.1-0.1,0.3-0.2,0.4c0.1,0,0.1,0,0.1,0c0.2,0.1,0.3,0,0.5,0
				c0.1,0,0.1,0,0.2,0c0,0.1,0,0.2,0,0.3c0,0.1,0.1,0.2,0.2,0.2c0.2,0,0.4,0,0.5,0c0.1,0,0.3,0,0.4,0.1c0.2,0.1,0.4,0.1,0.6,0
				c0.1,0,0.2-0.1,0.2,0.1c0,0,0.1,0,0.1,0c0.1,0,0.2,0,0.3,0c0.1,0,0.2-0.1,0.2-0.3c0-0.1,0-0.3-0.1-0.4c0-0.1,0-0.2-0.1-0.2
				c-0.1,0-0.2,0-0.3-0.1c0,0,0,0,0,0c0.1-0.1,0.2-0.1,0.2-0.3c0-0.1,0-0.2-0.1-0.4c-0.1-0.2-0.3-0.4-0.6-0.5c0,0-0.1-0.1-0.1-0.1
				c-0.1-0.1-0.1-0.3-0.2-0.4c0,0,0.1,0,0.1,0c0,0,0,0,0,0c-0.2-0.2-0.2-0.4-0.2-0.7c0-0.1,0-0.2,0-0.3c-0.1-0.3-0.2-0.6-0.3-0.9
				c0.1,0,0.2-0.1,0.2-0.1c-0.1-0.1-0.1-0.2-0.2-0.3c0,0,0.1,0,0.1,0c-0.1-0.2-0.3-0.4-0.4-0.5c-0.1-0.1-0.3-0.1-0.4-0.1
				c-0.5-0.1-1-0.2-1.4-0.4c-0.2-0.1-0.3,0-0.5,0.1c-0.2,0.1-0.3,0.3-0.5,0.4c0,0-0.1,0-0.1,0c-0.2,0-0.4,0-0.5,0
				c-0.2,0-0.3,0-0.5-0.1c-0.4-0.1-0.7-0.3-1-0.5c-0.1,0-0.1,0-0.2,0c-0.2,0-0.3,0-0.4,0.1C9.5,7,9.3,7.2,9,7.3
				C9,7.4,8.9,7.5,8.9,7.6C8.8,7.7,8.7,7.9,8.6,8c0,0.1,0,0.2,0.1,0.3c0.1,0.2,0,0.3-0.1,0.4c0,0-0.1,0-0.1,0.1c0,0,0,0.1,0,0.1
				c0.1,0.1,0.2,0.2,0.3,0.3c0.1,0,0.1,0,0.1,0c0,0.1,0,0.2,0,0.3c0,0,0,0.1,0,0.1c0,0.3,0,0.5,0,0.8c0,0.2,0,0.4,0,0.6
				c0,0.1,0.1,0.2,0,0.2C9,11.4,9,11.6,9,11.8c0,0.1-0.1,0.3-0.1,0.4C8.8,12.4,8.7,12.6,8.7,12.8z"/>
			<path class="st2" d="M3.1,11.2c0.1,0,0.3,0.1,0.4,0.1c0.2,0,0.3,0.2,0.5,0.3c0.2,0.2,0.4,0.5,0.7,0.7c0.2,0.2,0.4,0.4,0.7,0.6
				c0.2,0.2,0.4,0.2,0.6,0.4c0.2,0.1,0.4,0.1,0.6,0.1c0.4,0,0.8,0,1.1,0.1c0.1,0,0.2,0,0.2-0.1c0.1-0.1,0.2-0.2,0.2-0.2c0,0,0,0,0,0
				c0,0,0,0,0,0c0,0,0,0,0.1,0l0,0c0.1-0.1,0.2-0.3,0.3-0.4c0.2-0.2,0.2-0.3,0.2-0.5c0-0.2,0-0.4-0.1-0.6c0,0,0-0.1,0-0.1
				c0.1-0.1,0.2-0.1,0.2-0.1c0-0.1,0-0.1,0-0.2c0,0,0,0,0-0.1l0,0c0,0,0,0,0-0.1l0,0c0,0,0,0,0,0c0,0,0,0,0,0c0,0,0,0,0,0
				c0,0,0,0,0,0c0,0,0,0,0,0c0,0,0,0,0,0c0,0,0,0,0,0l0,0c0,0,0,0,0,0l0,0c0,0,0,0,0,0c0,0,0,0,0,0c0,0,0-0.1,0-0.1
				c0-0.3,0-0.6,0-0.9c0,0,0,0,0,0c0-0.1,0-0.3-0.1-0.4c0,0,0,0,0,0c0,0,0,0,0,0c-0.1,0-0.1,0-0.2-0.1C8.4,9.1,8.2,9,8.1,8.9
				C8,8.9,8,8.8,8,8.8c0-0.1,0-0.1,0-0.2C7.9,8.5,7.8,8.4,7.9,8.3C8,8.1,7.8,8,7.7,7.8c0,0.2,0,0.4,0.1,0.6c-0.1,0-0.1,0-0.2,0.1
				c0,0.1,0,0.2-0.1,0.3C7.4,8.6,7.2,8.4,7,8.5c0.1,0.1,0.1,0.2,0.2,0.3c-0.1,0-0.1,0.1-0.2,0C6.8,8.7,6.7,8.5,6.5,8.3
				c0.1-0.1,0.2-0.1,0.3-0.2C6.7,8.1,6.6,8,6.6,8c0-0.2,0-0.3-0.1-0.5C6.4,7.3,6.6,7.3,6.7,7.2c0,0,0,0,0,0c0,0,0,0,0-0.1
				c0,0,0,0,0,0c0,0,0,0,0,0c0,0,0,0,0,0c0,0,0,0,0,0c0,0,0,0,0,0c0,0-0.1,0-0.1,0c0,0,0,0,0,0c0,0-0.1,0-0.1,0l0,0
				c0-0.1,0-0.2,0-0.3c0,0,0,0,0-0.1c0-0.1,0-0.1,0-0.2c0-0.1,0-0.3,0-0.4c-0.2,0-0.4,0-0.6,0C5.8,6.6,5.8,7,5.9,7.5
				c0,0,0,0.1,0,0.1C5.7,7.9,5.6,8.2,5.4,8.5C5.3,8.6,5.2,8.7,5.1,8.6c0,0,0,0-0.1,0c0,0-0.1,0-0.1,0.1c-0.1,0-0.2,0-0.3,0
				c-0.1,0-0.1,0-0.1-0.1c0-0.3,0-0.7,0-1c0,0,0-0.1,0-0.1c0.1,0,0.1,0,0.2,0c0-0.3,0-0.6,0-0.8c0.1,0,0.1,0,0.2,0
				c0-0.2,0-0.3,0-0.4c0.2,0,0.5,0,0.7,0c0,0,0-0.1,0-0.1C5.5,5.8,5.3,5.5,5.1,5.3C4.9,5.1,4.8,5,4.8,4.7c0,0-0.1,0-0.1,0
				c-0.2,0-0.4,0-0.4,0.2c0,0,0,0,0,0c0-0.1-0.1-0.1-0.1-0.2C4,4.8,4,5,3.8,5c0,0.1,0,0.2,0,0.3c-0.2,0-0.4,0-0.5,0
				c0,0.2,0,0.4,0,0.6c0,0-0.1,0-0.1,0C3.1,5.7,3,5.8,2.9,5.8C2.7,5.9,2.4,5.7,2.3,5.5c0,0-0.1,0-0.1,0c0,0.1,0,0.1,0,0.2
				C2.1,5.8,2.1,5.9,2.1,6.1c0,0.1,0.1,0.2,0.1,0.3c-0.1,0-0.2,0-0.3,0c0,0.1,0,0.3-0.1,0.5C1.8,6.7,1.7,6.6,1.6,6.6
				C1.7,6.8,1.8,7,1.9,7.2c0,0,0.1,0,0.1,0c0.1,0,0.2,0,0.3,0.1c0,0,0.1,0.1,0.1,0.1c0,0,0,0.1-0.1,0.1C2.3,7.6,2.2,7.7,2.2,7.8
				C2.2,8,2,8.1,1.8,8.1C1.5,8,1.3,7.9,1.1,7.8C1.1,7.8,1,7.7,0.9,7.7c0,0.1,0,0.2,0,0.3C1,8.3,0.9,8.5,0.7,8.7
				C0.6,8.8,0.5,8.9,0.3,8.8c0,0-0.1,0-0.1,0.1C0.1,9,0,9.1-0.1,9.3C0.1,9.5,0.3,9.8,0.5,10c0.1,0.1,0.3,0.2,0.4,0.3
				c0.1,0.1,0.2,0.2,0.2,0.3c0,0.1,0.1,0.1,0.2,0.2c0.1,0,0.1,0,0.2,0.1C1.7,10.9,2,11,2.2,10.9C2.4,10.8,2.6,11,2.7,11
				C2.8,11.1,2.9,11.1,3.1,11.2c0-0.2,0.1-0.3,0.2-0.5c0,0,0,0,0.1-0.1c0,0,0-0.1,0.1-0.1c0,0,0,0,0,0c0,0-0.1,0-0.1,0.1
				C3.2,10.8,3.1,11,3.1,11.2z M5.2,8.9C5.2,8.9,5.2,8.9,5.2,8.9C5.2,8.9,5.2,9,5.2,8.9C5.1,9,5.1,9,5.1,9.1c0,0-0.1,0.1-0.1,0.1
				c0,0-0.1,0-0.1,0c0,0-0.1,0.1-0.1,0.1c0,0-0.1,0-0.1,0c0,0-0.1,0.1-0.1,0.1c0,0,0,0-0.1,0c0,0,0,0,0,0c0,0,0,0,0.1,0
				c0,0,0.1-0.1,0.1-0.1c0,0,0.1,0,0.1,0c0,0,0.1-0.1,0.1-0.1c0,0,0.1,0,0.1,0c0,0,0.1-0.1,0.1-0.1C5.1,9,5.1,9,5.2,8.9
				C5.2,9,5.2,8.9,5.2,8.9C5.2,8.9,5.2,8.9,5.2,8.9C5.3,8.9,5.3,8.9,5.2,8.9c0-0.1,0-0.2,0-0.2c0,0,0,0,0.1,0
				C5.3,8.7,5.3,8.8,5.2,8.9C5.3,8.9,5.3,8.9,5.2,8.9z M4,9.8c0.1,0,0.1-0.1,0.2-0.1c0.1-0.1,0.3-0.2,0.4-0.3c0,0,0,0,0,0
				C4.4,9.5,4.3,9.6,4.1,9.7C4.1,9.7,4,9.8,4,9.8C3.9,9.9,3.8,10,3.7,10.1c0,0.1-0.1,0.1-0.1,0.2c0,0,0,0,0,0c0,0,0.1-0.1,0.1-0.1
				C3.8,10,3.8,9.9,4,9.8z M6.8,10.4c0,0.1,0,0.2,0,0.3c-0.1,0-0.2-0.1-0.3-0.1c0,0,0-0.1,0-0.1c0,0,0,0,0,0c0,0,0,0.1,0,0.1
				c0,0,0,0,0,0C6.7,10.5,6.7,10.5,6.8,10.4z M3.1,8.1c0-0.2,0-0.2,0-0.3C3.1,8.1,3.1,8.1,3.1,8.1z M8.2,9.5c0.1-0.1,0-0.2,0.1-0.2
				c0,0.1,0,0.2,0,0.2C8.3,9.5,8.3,9.5,8.2,9.5z M3.5,10.4C3.6,10.4,3.6,10.4,3.5,10.4C3.5,10.4,3.5,10.5,3.5,10.4
				C3.5,10.5,3.5,10.5,3.5,10.4C3.5,10.4,3.5,10.4,3.5,10.4z"/>
			<path class="st3" d="M10.3,6.7c0.3,0.2,0.6,0.4,1,0.5c0.2,0,0.3,0.1,0.5,0.1c0.2,0,0.4,0,0.5,0c0,0,0.1,0,0.1,0
				c0-0.1,0-0.2,0.1-0.3c0.1-0.1,0.2-0.2,0.2-0.3c0.2-0.2,0.4-0.2,0.6-0.2c0.1,0,0.2,0,0.3,0.1c-0.2-0.3-0.3-0.6-0.4-0.9
				c0.2,0,0.5,0,0.7,0c0.2,0,0.2-0.1,0.3-0.2c0.1-0.3,0-0.5,0-0.8c0-0.3-0.2-0.6-0.3-0.9c0-0.1,0-0.2,0-0.3c0-0.4,0-0.8,0.1-1.3
				c-0.4,0-0.7-0.1-1.1,0.1c0,0-0.1,0-0.1,0.1c-0.2,0.2-0.4,0.2-0.7,0c-0.2-0.1-0.4-0.2-0.6,0c0,0.3-0.2,0.3-0.4,0.4
				c-0.2,0.1-0.3,0.2-0.5,0.4C10.8,3.7,10.9,4,11,4.3c0,0,0,0.1,0,0.1C10.8,5.2,10.5,6,10.3,6.7z M12.4,4.7
				C12.4,4.7,12.4,4.7,12.4,4.7c0,0.1-0.1,0.1-0.1,0.1c-0.1,0-0.1,0-0.1-0.1c0,0,0.1-0.1,0.1-0.1C12.3,4.6,12.3,4.7,12.4,4.7z
				 M12.7,4.5C12.6,4.6,12.6,4.6,12.7,4.5C12.6,4.6,12.6,4.6,12.7,4.5c0,0.1,0,0.2,0,0.3c0,0-0.1,0.1-0.1,0.1c0,0-0.1-0.1-0.1-0.1
				C12.5,4.6,12.5,4.6,12.7,4.5z M12.7,4.6c0.1,0,0.1,0,0.2,0.1c0,0.2,0,0.2-0.2,0.2C12.8,4.8,12.8,4.7,12.7,4.6z"/>
			<path class="st4" d="M10.3,6.7C10.5,6,10.8,5.2,11,4.4c0,0,0-0.1,0-0.1c-0.1-0.3-0.2-0.6-0.3-0.9c-0.3,0.2-0.5,0.3-0.8,0.5
				C9.8,4,9.6,4.1,9.5,4.3C9.3,4.4,9.2,4.5,9.1,4.6C9.1,4.6,9,4.7,8.9,4.7c0,0,0,0,0,0.1l0,0c0,0,0,0,0,0.1l0,0c0,0,0,0.1,0,0.1
				c0,0,0,0,0,0c0,0.2-0.1,0.4-0.3,0.5C8.3,5.5,8.1,5.7,7.9,5.8c0,0.2,0,0.3,0,0.4c0,0,0,0,0,0c0,0,0,0,0,0c0,0,0,0,0,0
				c0.1,0.2,0.2,0.3,0.3,0.5l0,0c0,0,0,0.1,0.1,0.1l0,0c0,0,0,0.1,0.1,0.1l0,0c0,0.1,0.1,0.1,0.1,0.2c0,0,0.1,0.1,0.1,0.1
				c-0.1,0-0.1,0-0.1,0c0,0,0.1,0.1,0.1,0.1C8.6,7.3,8.5,7.4,8.4,7.4c0-0.1-0.3-0.3,0.1-0.3c0,0,0-0.1,0-0.1c0,0-0.1,0-0.1-0.1
				c0,0,0,0,0,0c0,0,0,0-0.1,0c0,0,0,0,0,0c-0.1,0-0.2,0-0.3,0c0,0.1,0,0.1,0,0.2c0,0.1,0,0.1,0,0.2c0,0.1,0.1,0.2,0.1,0.3
				c0,0,0,0.1,0.1,0.1C8.4,7.9,8.5,8,8.6,8c0.1-0.1,0.2-0.3,0.2-0.4C8.9,7.5,9,7.4,9,7.3c0.2,0,0.4-0.3,0.7-0.4
				c0.1-0.1,0.3-0.1,0.4-0.1C10.2,6.7,10.2,6.7,10.3,6.7z M9.7,5.4c0-0.1,0.1-0.1,0.1-0.2c0,0.1,0,0.1,0.1,0.2c0,0,0.1,0,0.1-0.1
				c0,0.1,0,0.1-0.1,0.1c-0.1,0-0.1,0.1-0.2,0.1c-0.1-0.2-0.3,0-0.4-0.1c0,0,0.1-0.1,0.1-0.1c0.1,0,0.2,0.1,0.2,0
				c0.1,0,0.1-0.1,0.2-0.2C9.7,5.3,9.7,5.4,9.7,5.4z"/>
			<path class="st5" d="M7.9,6.2C7.9,6.2,7.9,6.2,7.9,6.2c0-0.2,0-0.3-0.1-0.5C8,5.7,8.2,5.6,8.3,5.5C8.5,5.4,8.7,5.3,8.8,5
				C8.5,5,8.2,5.2,8,4.9C8,4.9,8,5,7.9,5c0,0.1-0.1,0.1-0.1,0C7.8,4.8,7.6,4.9,7.5,4.9c-0.1,0-0.2,0-0.2-0.2c0-0.1-0.1-0.2-0.1-0.3
				c0-0.1-0.1-0.2-0.1-0.4c0.1,0,0.2,0.1,0.2,0.1c0-0.1,0-0.1,0-0.1c0,0,0.1,0,0.1-0.1c0.1,0,0.2,0,0.3,0c0.2,0,0.2,0,0.1-0.2
				c0,0,0-0.1,0-0.1c-0.1,0-0.2,0-0.2-0.1c0-0.1,0.1-0.1,0.2-0.1c0.1-0.1,0.1-0.1,0.2-0.2C7.8,3.2,7.7,3.1,7.6,3.1c0,0,0,0,0,0
				c0,0-0.1,0-0.1,0c0,0,0,0,0,0c0,0-0.1,0-0.1,0c0,0,0,0,0,0c0,0-0.1,0-0.1,0c0,0,0,0,0,0c0,0-0.1-0.1-0.1-0.1c0,0,0,0,0,0
				c0,0,0,0-0.1-0.1l0,0C7,2.8,6.9,2.7,6.9,2.7c0,0,0,0,0,0C6.8,2.8,6.7,2.8,6.6,2.9C6.5,3,6.4,3.1,6.3,3c0,0,0,0.1,0,0.1
				c0,0,0,0.1,0,0.1c0,0-0.1,0-0.1,0c-0.3,0-0.6,0-0.9,0c-0.1,0-0.1,0-0.2-0.1c-0.1,0-0.1,0-0.2,0.1c0,0.3,0,0.6,0,1
				c0,0,0,0.1,0.1,0.1c0.1,0.1,0.3,0.2,0.5,0.3c0,0,0.1,0.1,0.1,0.1c0,0-0.1,0.1-0.1,0.1C5.4,5,5.4,5,5.5,5c0.3,0.2,0.7,0.4,1,0.6
				c0,0,0.1,0,0.1,0c0,0,0.1,0,0.1,0C7.1,5.7,7.4,5.8,7.6,6C7.7,6.1,7.8,6.2,7.9,6.2C7.9,6.2,7.9,6.2,7.9,6.2z M6.4,4.4
				c-0.1,0-0.1,0-0.1,0c0-0.1,0-0.2,0-0.2C6.5,4.2,6.4,4.3,6.4,4.4z"/>
			<path class="st6" d="M8,1.3c0,0,0,0.1,0,0.1c0,0,0,0.1,0,0.1C8,2,8,2.4,8,2.8c0,0,0,0.1,0,0.1C7.9,3,7.9,3,7.8,3.1
				c0,0,0.1,0.1,0.2,0.1c0,0.1-0.1,0.2-0.2,0.3c0,0-0.1,0.1-0.1,0.1c0,0,0.1,0,0.1,0.1c0,0,0.1,0.1,0.1,0.1c0,0.1,0,0.1,0.1,0.2
				C8,4,8,4,8.1,4c0.2,0,0.5,0,0.7,0c0.1,0,0.1,0,0.1-0.1c0-0.1,0-0.1,0-0.2c0-0.1,0-0.2,0-0.4c0-0.1,0-0.3,0.1-0.4
				C8.9,2.9,9,2.7,9,2.5C9.1,2.3,9.1,2.2,8.9,2C8.6,1.8,8.4,1.6,8,1.3C8.1,1.3,8,1.3,8,1.3z M8.4,2.8C8.4,2.8,8.4,2.8,8.4,2.8
				c-0.1,0-0.1-0.1-0.1-0.1c0,0,0-0.1,0.1-0.1c0,0,0,0,0,0C8.4,2.7,8.4,2.8,8.4,2.8z M8.4,2.8c0-0.1,0-0.1,0-0.2
				C8.6,2.7,8.6,2.8,8.4,2.8z"/>
			<path class="st7" d="M4.7,2.6C4.5,2.3,4.3,2.1,4,2C3.8,1.9,3.6,1.9,3.4,1.8C3.3,1.7,3.2,1.6,3.1,1.5C3.1,1.6,3,1.7,3,1.8
				c0,0.3,0,0.6,0,0.8c0,0,0,0.1-0.1,0.1c0,0,0,0,0,0c0,0,0,0.1,0,0.1c0,0-0.1,0-0.1,0.1c0,0.1,0.1,0.3,0.1,0.4c0,0,0,0,0,0
				c0,0,0,0,0.1,0.1c0,0,0,0,0,0c0,0,0,0,0,0l0,0c0,0,0,0,0,0l0,0c0,0,0,0,0,0c0,0,0,0,0.1,0c0,0,0,0,0,0c0,0,0,0,0.1,0.1
				c0,0,0,0,0,0l0,0c0,0,0,0,0,0c0,0,0,0,0,0c0,0,0,0,0,0c0,0,0,0,0,0c0,0,0,0,0,0l0,0c0,0,0,0,0,0l0,0c0,0,0,0,0,0l0,0c0,0,0,0,0,0
				l0,0c0,0,0,0,0,0C3.6,3.9,3.7,4,3.7,4c0,0,0,0,0.1,0l0,0c0,0,0,0,0,0c0,0,0.1,0.1,0.1,0.1c0,0,0,0,0.1,0c0,0,0,0,0-0.1
				c0,0,0,0,0,0C4,4.1,4,4,3.9,4l0,0c0,0,0,0,0,0l0,0c0,0,0,0,0,0l0,0c0,0,0,0,0,0l0,0c0,0-0.1-0.1-0.1-0.1l0,0c0,0,0,0,0,0
				c0,0,0,0,0,0c0,0,0,0,0,0c0,0,0,0,0,0c-0.1-0.1,0-0.2,0-0.3c0-0.1,0-0.2,0.2-0.2c0.1,0,0.2,0,0.2,0C4.2,3.1,4,3,4.2,2.9l0,0
				c0,0,0.1,0,0.1-0.1l0,0c0,0,0.1,0,0.1-0.1l0,0c0,0,0.1,0,0.1-0.1l0,0c0,0,0.1,0,0.1-0.1l0,0C4.6,2.7,4.6,2.7,4.7,2.6L4.7,2.6
				C4.6,2.6,4.7,2.6,4.7,2.6z M3.9,2.7c0,0-0.1,0-0.1,0c-0.1,0.1-0.1,0-0.1,0c0,0,0-0.1,0-0.1c0.1-0.2,0.2,0,0.2,0
				C4,2.5,4,2.5,4.1,2.5c0.1,0.1,0,0.2,0,0.2C4,2.7,4,2.7,3.9,2.7z"/>
			<path class="st8" d="M3,3.4c0-0.1,0-0.3-0.1-0.4c0,0,0.1,0,0.1-0.1c0,0,0-0.1,0-0.1c0,0,0,0,0,0C3,2.8,3,2.7,3,2.7
				c0-0.3,0-0.6,0-0.8c-0.3,0-0.7,0-1,0c-0.1,0-0.2,0-0.2-0.2c-0.5,0-1,0.1-1.4,0.2c0,0,0,0,0,0C0.5,1.9,0.7,2,0.8,2.1
				c0.5,0.3,1,0.5,1.5,0.8C2.5,3,2.7,3.2,3,3.4z M2.4,2c0,0,0.1,0.1,0.1,0.1c0,0,0.1,0.1,0,0.1c0,0-0.1,0.1-0.1,0.1
				c0,0-0.1,0-0.1-0.1C2.3,2.1,2.3,2,2.4,2z M1.9,2.3c0-0.1-0.1-0.1-0.1-0.1c0-0.1,0.1-0.1,0.1-0.2c0,0,0.1,0.1,0.1,0.1
				C2,2.2,1.9,2.2,1.9,2.3z"/>
			<path class="st9" d="M3.3,5.3c0.2,0,0.4,0,0.5,0c0-0.1,0-0.2,0-0.3C4,5,4,4.8,4.1,4.7c0,0.1,0.1,0.1,0.1,0.2c0,0,0,0,0,0
				c0.1-0.2,0.2-0.2,0.4-0.2C4.5,4.6,4.4,4.5,4.3,4.4c0,0-0.1-0.1-0.1-0.1l0,0c0,0,0,0,0,0c0,0,0,0,0,0c0,0,0,0,0,0l0,0c0,0,0,0,0,0
				c-0.1,0-0.2,0-0.3-0.1c0,0,0,0,0,0c0,0-0.1,0-0.1,0c0,0,0,0,0,0c0,0-0.1,0-0.1,0c0,0,0,0,0,0c0,0-0.1,0-0.1,0c0,0,0,0,0,0
				c0,0,0,0.1,0,0.1c0,0,0,0,0,0c0,0,0,0,0,0.1c0.1,0.1,0.2,0.2,0.2,0.3c0,0,0,0,0,0c0,0,0,0,0,0c0,0,0.1,0.1,0.1,0.1
				c0,0-0.1,0.1-0.1,0.1c0,0-0.1-0.1-0.1-0.1c0,0-0.1,0-0.1,0c0,0,0,0,0,0C3,5,2.8,5,2.6,4.9C2.4,4.8,2.2,4.7,2,4.6
				C1.8,4.7,1.6,4.8,1.5,4.9C1.4,5,1.4,5.1,1.3,5.2c0.2,0,0.3,0.1,0.5,0.1c0.4,0,0.8,0,1.3,0C3.1,5.3,3.2,5.3,3.3,5.3z"/>
			<path class="st10" d="M8,1.5c-0.3,0-0.5,0-0.8,0c0,0,0,0,0,0c0,0,0,0,0,0c0,0,0,0,0,0c0,0,0.1,0,0.1,0c0,0.1,0,0.1,0,0.2
				c-0.1,0-0.1,0-0.2,0C7,1.9,7.1,2,6.9,2c0,0,0,0,0,0.1c0,0,0,0.1,0,0.1c0,0,0.1,0,0.1,0c0,0,0.1-0.1,0.1-0.1c0,0,0,0-0.1-0.1
				c0,0,0,0,0,0c0,0,0,0,0,0c0,0,0.1,0,0.1,0c0,0.1,0,0.1,0,0.2c0,0,0,0,0,0c0-0.1,0-0.1,0.1-0.2c0,0,0.1,0,0.1,0.1
				c0,0.1,0,0.1,0,0.2C7.3,2.2,7.3,2.2,7.2,2.2c0,0-0.1,0.1-0.1,0.1c-0.1,0-0.2,0-0.2-0.1c0,0-0.1,0-0.1,0.1c-0.1,0-0.1,0-0.2,0
				c0,0-0.1-0.1,0-0.1c0,0,0.1-0.1,0.1-0.1c0,0,0,0,0.1,0c0-0.1,0-0.2-0.1-0.3c-0.1,0-0.1,0-0.2,0c0,0,0,0.1,0,0.1
				c-0.1,0-0.2,0-0.3-0.1C6.3,2,6.2,2,6,2.1c0.1,0.1,0.1,0.2,0.2,0.3C6,2.5,5.9,2.6,5.7,2.7c0.1,0.1,0.1,0.1,0.2,0.1
				c0.1,0,0.2,0.1,0.3,0.1c0.2,0.1,0.3,0,0.4-0.1c0.1-0.1,0.1-0.1,0.2-0.2c0,0,0,0,0,0c0,0,0,0,0,0C6.9,2.7,7,2.8,7,2.8c0,0,0,0,0,0
				c0,0,0,0,0.1,0.1c0,0,0,0,0,0c0,0,0.1,0.1,0.1,0.1c0.1,0,0.1,0,0.2,0C7.3,3,7.3,2.9,7.3,2.9l0,0c0,0,0-0.1,0-0.1c0,0,0,0,0,0
				c0-0.1,0-0.2-0.1-0.3c0,0,0,0,0,0c0,0,0,0,0,0c0,0,0,0,0,0c0,0,0,0,0.1,0c0,0,0,0,0,0c0,0,0,0,0.1,0c0,0,0,0,0,0c0,0,0.1,0,0.1,0
				c0,0,0,0,0,0c0,0,0,0,0.1,0c0,0,0,0,0,0c0,0,0,0,0.1,0c0,0,0,0,0,0c0,0,0,0,0.1,0c0,0,0,0,0,0c0,0,0.1,0,0.1,0c0,0,0,0,0,0
				c0,0,0,0,0.1,0c0,0,0,0,0,0c0,0,0,0,0-0.1C8,1.9,8,1.7,8,1.5z M7.3,2.3C7.3,2.3,7.3,2.3,7.3,2.3C7.3,2.3,7.3,2.3,7.3,2.3
				C7.3,2.3,7.3,2.3,7.3,2.3z"/>
			<path class="st2" d="M4.1,4.3C4.1,4.3,4.1,4.3,4.1,4.3C4.1,4.3,4.1,4.3,4.1,4.3C4.2,4.3,4.2,4.3,4.1,4.3c0.3,0.1,0.5,0.3,0.7,0.4
				C5,4.7,5.1,4.8,5.3,4.9c0,0,0.1-0.1,0.1-0.1c0,0,0-0.1-0.1-0.1C5.2,4.6,5.1,4.5,4.9,4.4c0,0-0.1-0.1-0.1-0.1c0-0.3,0-0.6,0-1
				c0.1,0,0.1-0.1,0.2-0.1C4.9,3,4.8,2.8,4.7,2.6c0,0-0.1,0-0.1,0c0,0,0,0,0,0c0,0-0.1,0-0.1,0.1c0,0,0,0,0,0c0,0-0.1,0-0.1,0.1
				c0,0,0,0,0,0c0,0-0.1,0-0.1,0.1c0,0,0,0,0,0c0,0-0.1,0-0.1,0.1c0,0,0,0,0,0c0,0-0.1,0-0.1,0.1c0,0,0,0,0,0c0,0.1,0,0.2,0,0.3
				c-0.1,0-0.1,0-0.2,0c-0.1,0-0.2,0-0.2,0.1c0,0.1,0,0.2,0,0.3c0,0,0,0,0,0c0,0,0,0,0,0c0,0,0,0,0,0c0,0,0,0,0,0c0,0,0,0,0,0
				c0,0,0.1,0.1,0.1,0.1c0,0,0,0,0,0c0,0,0,0,0,0c0,0,0,0,0,0c0,0,0,0,0,0c0,0,0,0,0,0c0,0,0,0,0,0c0,0,0,0,0,0C4,4,4,4.1,4,4.1
				c0,0,0,0,0,0C4,4.1,4,4.2,4.1,4.3C4.1,4.2,4.1,4.2,4.1,4.3C4.1,4.3,4.1,4.3,4.1,4.3z M4.6,3.5L4.6,3.5c0,0,0.1,0,0.1,0
				c0,0.1,0,0.1,0,0.2c-0.1,0-0.1-0.1-0.1-0.1C4.6,3.7,4.6,3.6,4.6,3.5C4.6,3.6,4.6,3.6,4.6,3.5z"/>
			<path class="st11" d="M3.6,4.2C3.6,4.2,3.6,4.2,3.6,4.2c0.1,0,0.1,0,0.2,0c0,0,0,0,0,0c0.1,0,0.1,0,0.2-0.1c0,0-0.1-0.1-0.1-0.1
				c0,0,0,0,0,0c0,0,0,0,0,0c0,0,0,0-0.1,0C3.7,4,3.6,3.9,3.6,3.9c0,0,0,0,0,0c0,0,0,0,0,0c0,0,0,0,0,0c0,0,0,0,0,0c0,0,0,0,0,0
				c0,0,0,0,0,0c0,0,0,0,0,0c0,0,0,0,0,0c0,0,0,0,0,0c0,0,0,0,0,0c0,0,0,0,0,0c0,0,0,0,0,0c0,0,0,0,0,0c0,0,0,0,0,0c0,0,0,0,0,0
				c0,0,0,0-0.1-0.1c0,0,0,0,0,0c0,0,0,0-0.1,0c0,0,0,0,0,0c0,0,0,0,0,0c0,0,0,0,0,0c0,0,0,0,0,0c0,0,0,0,0,0c0,0,0,0,0,0
				c0,0,0,0-0.1,0c0,0,0,0,0,0c0,0.1,0,0.1,0,0.2c0,0,0,0,0,0c0,0,0,0,0,0c0,0,0,0.1,0,0.1c0,0,0,0,0,0c0,0.1,0,0.1,0,0.2
				c0,0-0.1,0.1-0.1,0.1c0,0.2-0.1,0.2-0.2,0.1c-0.2,0.1-0.3,0-0.4-0.1C1.8,4,1.8,4,1.5,4.2c0,0,0,0,0,0c0.2,0,0.3,0.1,0.4,0.2
				c0,0.1,0.1,0.1,0.2,0.1c0.2,0.1,0.4,0.1,0.6,0.3C2.8,5,3,5,3.2,4.8c0,0,0-0.1,0-0.1c0,0,0,0,0,0c0,0,0.1-0.1,0.1-0.1
				c0,0,0.1,0,0.1,0C3.4,4.5,3.3,4.4,3.2,4.3c-0.1,0-0.1,0-0.2,0c0,0,0,0,0,0c0,0,0.1,0,0.1-0.1c0,0,0,0,0,0c0,0,0-0.1-0.1-0.1
				c0,0,0,0,0,0c0.1,0,0.1,0,0.2,0.1c0,0,0,0,0,0c0,0,0,0,0,0c0,0,0.1,0,0.1,0c0,0,0,0,0,0C3.5,4.2,3.5,4.2,3.6,4.2z"/>
			<path class="st12" d="M8.9,3C8.8,3.1,8.8,3.3,8.8,3.4c0,0.1,0,0.2,0,0.4c0,0.1,0,0.1,0,0.2c0,0.1,0,0.1,0.1,0.2l0,0c0,0,0,0,0,0
				C9,4.3,9.1,4.4,9.1,4.6c0.1-0.1,0.2-0.2,0.3-0.3c0-0.2,0-0.4,0-0.6c0-0.1,0.1-0.1,0.1-0.2C9.5,3.5,9.4,3.4,9.3,3.4
				C9.5,3.3,9.6,3.2,9.4,3C9.3,3.1,9.1,3.1,8.9,3z"/>
			<path class="st13" d="M8.7,11.5C8.7,11.5,8.7,11.5,8.7,11.5c0,0.3,0,0.5,0,0.7c0,0.2,0,0.4-0.2,0.5c-0.1,0.1-0.2,0.3-0.3,0.4
				C8.3,13,8.4,13,8.5,12.9c0,0,0.1-0.1,0.1-0.1c0.1-0.2,0.1-0.4,0.2-0.6c0,0,0,0-0.1,0C8.8,12,8.7,11.7,8.7,11.5z"/>
			<path class="st14" d="M8,1.5c0,0.2,0,0.4,0,0.6c0,0,0,0,0,0.1c0,0,0.1,0.1,0.1,0.1c0,0.2,0,0.4,0,0.6c0,0,0-0.1,0-0.1
				C8,2.4,8,2,8,1.6C8,1.6,8,1.5,8,1.5C8,1.5,8,1.5,8,1.5z"/>
			<path class="st15" d="M2.4,4.3c0.2,0.1,0.2,0.1,0.2-0.1c0,0,0-0.1-0.1-0.1c0,0.1,0,0.1-0.1,0.2C2.5,4.2,2.5,4.2,2.4,4.3
				c0.1-0.1,0.1-0.1,0.1-0.2c0,0,0,0,0,0C2.5,4.2,2.4,4.2,2.4,4.3z"/>
			<path class="st16" d="M6.9,2.7C6.8,2.7,6.8,2.6,6.9,2.7c-0.1,0-0.2,0.1-0.2,0.1C6.5,2.9,6.4,3,6.3,2.9c0,0,0,0,0,0.1
				c0.1,0.1,0.3,0,0.4-0.1C6.7,2.8,6.8,2.8,6.9,2.7z"/>
			<path class="st17" d="M6.9,2.1C6.9,2.1,6.9,2,6.9,2.1C6.9,2,6.9,2,6.9,2.1C6.8,2,6.8,2,6.9,2.1C6.8,2,6.8,2,6.9,2.1
				C6.8,2,6.8,2,6.8,2c0,0-0.1,0-0.1,0.1c0,0,0,0.1,0,0.1c0,0,0.1,0,0.2,0C6.7,2.2,6.7,2.2,6.8,2C6.8,2.1,6.8,2.1,6.9,2.1z"/>
			<path class="st18" d="M3.1,11.2c0.1-0.2,0.1-0.3,0.2-0.5l0,0c0,0-0.1,0-0.1,0.1C3.1,10.8,3.1,11,3.1,11.2C3,11.2,3,11.2,3.1,11.2
				z"/>
			<path class="st19" d="M2.9,3.7c0-0.1,0-0.1,0-0.2C2.9,3.5,2.9,3.6,2.9,3.7z"/>
			<path class="st16" d="M6.3,3.2c0,0,0-0.1,0-0.1C6.3,3.1,6.3,3.2,6.3,3.2z"/>
			<path class="st18" d="M4.6,2.7C4.6,2.7,4.7,2.6,4.6,2.7C4.7,2.6,4.7,2.6,4.6,2.7C4.7,2.6,4.6,2.6,4.6,2.7z"/>
			<path class="st14" d="M8,1.3C8,1.3,8.1,1.3,8,1.3C8.1,1.3,8,1.3,8,1.3C8,1.3,8,1.3,8,1.3z"/>
			<path class="st19" d="M3,3.4C3,3.4,3,3.4,3,3.4C3,3.4,3,3.4,3,3.4C3,3.4,3,3.4,3,3.4z"/>
			<path class="st13" d="M8.2,13.1C8.2,13.1,8.2,13.1,8.2,13.1C8.2,13.1,8.2,13.1,8.2,13.1z"/>
			<path class="st19" d="M2.8,3.9C2.9,3.9,2.9,3.8,2.8,3.9C2.9,3.8,2.9,3.9,2.8,3.9z"/>
			<path class="st19" d="M2.9,3.7C2.9,3.7,2.9,3.7,2.9,3.7C2.9,3.7,2.9,3.7,2.9,3.7z"/>
			<path class="st10" d="M6.8,2C6.8,2,6.8,2,6.8,2C6.8,2,6.8,2,6.8,2z"/>
			<path class="st13" d="M8.2,13.1C8.2,13.1,8.1,13.1,8.2,13.1C8.1,13.1,8.2,13.1,8.2,13.1z"/>
			<path class="st14" d="M7.2,1.6C7.2,1.5,7.2,1.5,7.2,1.6C7.2,1.5,7.2,1.5,7.2,1.6z"/>
			<path class="st14" d="M7.2,1.5C7.2,1.5,7.2,1.5,7.2,1.5C7.2,1.5,7.2,1.5,7.2,1.5z"/>
			<path class="st20" d="M8.6,8C8.5,8,8.4,7.9,8.2,7.9c0,0,0-0.1-0.1-0.1c0-0.1-0.1-0.2-0.1-0.3c0,0,0,0,0,0c-0.1,0-0.3,0-0.4,0l0,0
				c0,0,0,0.1,0,0.1c0,0.1,0.1,0.2,0.1,0.2C7.8,8,8,8.1,7.9,8.3c-0.1,0.1,0,0.2,0.1,0.2C8,8.6,8,8.7,8,8.8c0,0,0,0.1,0.1,0.1
				C8.2,9,8.4,9.1,8.5,9.2c0.1,0,0.1,0.1,0.2,0.1c0-0.1,0-0.1,0-0.2C8.7,9.1,8.6,8.9,8.5,8.8c0,0,0-0.1,0-0.1c0,0,0.1,0,0.1-0.1
				c0.1-0.1,0.2-0.2,0.1-0.4C8.7,8.2,8.6,8.1,8.6,8z"/>
			<path class="st20" d="M8.7,11.5c0,0.2,0,0.5,0.1,0.8c0,0,0,0,0.1,0c0-0.1,0.1-0.3,0.1-0.4c0-0.2,0.1-0.4,0.1-0.6
				c0-0.1,0-0.2,0-0.2c0-0.2,0-0.4,0-0.6c0-0.3,0-0.5,0-0.8c0,0,0-0.1,0-0.1c0,0-0.1,0-0.1,0c0,0,0-0.1,0-0.1c0,0-0.1,0-0.1,0
				c0,0.2,0,0.3,0,0.5c0,0,0,0,0,0c0,0,0,0.1,0,0.1c0,0.3,0,0.6,0,0.9c0,0,0,0,0,0c0,0,0,0,0,0c0,0,0,0,0,0c0,0,0,0,0,0c0,0,0,0,0,0
				c0,0,0,0,0,0c0,0,0,0,0,0c0,0,0,0,0,0c0,0,0,0,0,0c0,0,0,0,0,0c0,0,0,0,0,0c0,0,0,0,0,0c0,0,0,0,0,0c0,0,0,0,0,0.1c0,0,0,0,0,0
				c0,0,0,0,0,0.1c0,0,0,0.1,0,0.2C8.9,11.4,8.8,11.4,8.7,11.5z"/>
			<path class="st21" d="M8.7,9.4c0,0,0.1,0,0.1,0c0,0,0,0.1,0,0.1c0,0,0,0,0.1,0c0-0.1,0-0.2,0-0.3c0,0-0.1,0-0.1,0
				C8.7,9.2,8.7,9.3,8.7,9.4C8.7,9.3,8.7,9.3,8.7,9.4C8.7,9.3,8.7,9.3,8.7,9.4z"/>
			<path class="st22" d="M5.1,8.6c0.1,0,0.2,0,0.3-0.1c0.2-0.3,0.4-0.6,0.5-0.9c0,0,0-0.1,0-0.1C5.8,7,5.8,6.6,5.7,6.1c0,0,0,0,0,0
				c-0.2,0-0.5,0-0.7,0c0,0.1,0,0.3,0,0.4c-0.1,0-0.1,0-0.2,0c0,0.3,0,0.6,0,0.8c-0.1,0-0.1,0-0.2,0c0,0,0,0.1,0,0.1
				c0,0.3,0,0.7,0,1c0,0.1,0,0.1,0.1,0.1c0.1,0,0.2,0,0.3,0C5,8.7,5,8.7,5.1,8.6C5,8.5,5,8.4,5,8.3c0.1,0,0.1,0,0.2,0c0,0,0,0,0,0
				c0,0-0.1,0-0.1,0.1C5.1,8.4,5.1,8.5,5.1,8.6z M5.6,7.4c-0.1-0.1-0.1,0-0.2,0c0,0-0.1,0.1-0.1,0.1c0,0-0.1-0.1-0.1-0.1
				c0,0,0-0.1,0.1-0.1c0,0,0,0,0,0c0,0.1,0,0.1,0,0.2c0,0,0,0,0,0c0-0.1,0-0.1,0-0.2C5.5,7.2,5.5,7.2,5.6,7.4z"/>
			<path class="st23" d="M5.7,6.1C5.7,6.1,5.7,6.1,5.7,6.1c0.2,0,0.4,0,0.6,0c0,0.1,0,0.3,0,0.4c0,0.1,0,0.1,0,0.2
				c0-0.1,0-0.3,0-0.4c0,0,0-0.1,0-0.1c0.1,0,0.2-0.1,0.3-0.1C6.7,6.2,6.8,6.4,7,6.6c0.1,0,0.1,0.1,0.1,0.1c0,0,0.1,0,0.1,0
				c0,0,0,0,0-0.1c0,0,0,0,0-0.1c0.1,0,0.2,0,0.3,0c0-0.1,0-0.1-0.1-0.2c0.1,0,0.2,0,0.3,0C7.8,6.6,7.8,6.8,7.9,7c0,0,0,0,0,0
				c0,0,0,0,0,0C8,7,8.2,7,8.3,7c0,0,0,0,0,0c0,0,0,0,0-0.1C8.3,6.9,8.2,6.8,8.1,6.8C8.1,6.6,7.9,6.6,8,6.4c0,0,0-0.1,0-0.1
				c0,0,0,0,0,0c0,0,0,0,0,0C7.8,6.2,7.7,6.1,7.6,6C7.4,5.8,7.1,5.7,6.8,5.7c0,0-0.1,0-0.1,0c0,0-0.1,0-0.1,0c0,0,0.1,0.1,0.1,0.1
				c0,0,0,0.1-0.1,0.1c0-0.1-0.1-0.2-0.1-0.3C6.2,5.4,5.8,5.2,5.5,5C5.4,5,5.4,5,5.3,4.9C5.1,4.8,5,4.7,4.8,4.7c0,0,0,0,0,0.1
				C4.8,5,4.9,5.1,5.1,5.3C5.3,5.5,5.5,5.8,5.7,6.1C5.7,6.1,5.7,6.1,5.7,6.1z M6.5,5.9C6.5,5.9,6.5,5.9,6.5,5.9
				C6.5,5.9,6.5,5.9,6.5,5.9C6.5,5.9,6.5,5.9,6.5,5.9C6.5,5.9,6.5,5.9,6.5,5.9z"/>
			<path class="st24" d="M7.7,7.8c0-0.1-0.1-0.2-0.1-0.2c0,0,0-0.1,0-0.1c-0.1,0-0.2,0-0.3,0C7.1,7.5,7,7.5,7,7.3c0,0,0,0,0,0l0,0
				c0,0,0,0,0,0l0,0c0,0,0,0,0,0l0,0c0,0,0,0,0,0l0,0c0,0,0,0,0,0l0,0c0,0,0,0,0,0c0,0,0,0,0,0c0,0-0.1,0-0.1,0c0,0,0,0,0,0
				C6.6,7.3,6.4,7.3,6.5,7.4c0.1,0.2,0,0.3,0.1,0.5c0,0.1,0.1,0.1,0.2,0.2C6.7,8.2,6.6,8.3,6.5,8.3C6.7,8.5,6.8,8.7,7,8.8
				c0.1,0.1,0.1,0,0.2,0C7.1,8.7,7.1,8.6,7,8.5c0.2-0.1,0.3,0,0.5,0.2c0-0.1,0-0.2,0.1-0.3c0.1,0,0.1,0,0.2-0.1
				C7.7,8.2,7.7,8,7.7,7.8z M7.3,8C7.3,8,7.3,8,7.3,8c0,0,0-0.1,0.1-0.1C7.3,7.9,7.2,7.8,7.1,7.8c0,0,0,0,0,0c0.1,0,0.1,0,0.2,0
				c0,0,0,0,0,0c0.1,0.1,0.1,0.1,0.2,0.2C7.4,8,7.4,8,7.3,8z M7.2,8C7.2,8,7.1,8,7.2,8c0-0.1,0-0.1,0-0.2c0,0,0,0,0,0
				C7.2,7.9,7.2,8,7.2,8z"/>
			<path class="st25" d="M6.8,7.2C6.8,7.2,6.8,7.2,6.8,7.2C6.8,7.2,6.8,7.2,6.8,7.2C6.9,7.2,6.9,7.2,6.8,7.2
				C6.9,7.2,6.9,7.2,6.8,7.2C6.9,7.2,6.9,7.2,6.8,7.2c0.1,0.1,0.1,0.1,0.1,0.1c0,0,0,0,0,0c0,0,0,0,0,0c0,0,0,0,0,0c0,0,0,0,0,0
				c0,0,0,0,0,0c0,0,0,0,0,0C7,7.5,7.1,7.5,7.3,7.5c0.1,0,0.2,0,0.3,0c0,0,0,0,0,0c0,0-0.1-0.1-0.1-0.1C7.4,7.1,7.3,7,7.2,6.8
				c0,0,0,0,0-0.1c0,0,0,0,0-0.1c0,0-0.1,0-0.1,0C7,6.8,7,6.8,7,6.8c-0.1,0-0.1,0-0.2,0c0,0-0.1,0-0.1-0.1c-0.1,0-0.1-0.1-0.2-0.1
				c0,0.1,0,0.1,0.1,0.2c0,0-0.1,0-0.1,0c0,0,0-0.1,0-0.1c0,0,0.1-0.1,0.1-0.1c0,0.1,0.1,0.1,0.1,0.2c0.1,0,0.2,0,0.2-0.1
				C6.8,6.4,6.7,6.2,6.6,6.1c-0.1,0-0.2,0.1-0.3,0.1c0,0,0,0.1,0,0.1c0,0.1,0,0.3,0,0.4c0,0,0,0,0,0.1c0,0.1,0,0.2,0,0.3
				c0,0,0,0,0,0c0,0,0.1,0,0.1,0c0,0,0,0,0,0c0,0,0.1,0,0.1,0c0,0,0,0,0,0c0,0,0,0,0,0c0,0,0,0,0,0c0,0,0,0,0,0c0,0,0,0,0,0
				c0,0,0,0,0,0.1c0,0,0,0,0,0C6.7,7.2,6.7,7.2,6.8,7.2C6.7,7.2,6.8,7.2,6.8,7.2z"/>
			<path class="st21" d="M6.8,10.4c-0.1,0.1-0.2,0.1-0.2,0.2c0,0,0,0,0,0c0,0,0-0.1,0-0.1c0,0,0,0,0,0c0,0.1,0,0.1,0,0.1
				c0.1,0,0.2,0.1,0.3,0.1C6.8,10.6,6.8,10.5,6.8,10.4z"/>
			<path class="st26" d="M4.8,4.7C4.8,4.7,4.8,4.7,4.8,4.7C4.6,4.5,4.4,4.4,4.2,4.3c0,0,0.1,0.1,0.1,0.1c0.1,0.1,0.2,0.2,0.4,0.3
				C4.7,4.7,4.7,4.7,4.8,4.7z"/>
			<path class="st21" d="M3.1,8.1c0,0,0-0.1,0-0.3C3,7.9,3,7.9,3.1,8.1z"/>
			<path class="st13" d="M8.8,10.9c0-0.3,0-0.6,0-0.9c0,0,0-0.1,0-0.1c0,0.3,0,0.6,0,0.9C8.7,10.8,8.8,10.9,8.8,10.9z"/>
			<path class="st18" d="M5.1,8.6c0-0.1,0-0.2,0-0.3c0.1,0,0.1,0,0.1-0.1c0,0,0,0,0,0c-0.1,0-0.1,0-0.2,0C5,8.4,5,8.5,5.1,8.6
				C5,8.6,5.1,8.6,5.1,8.6z"/>
			<path class="st21" d="M8.2,9.5c0.1,0,0.1,0,0.1,0c0-0.1,0-0.1,0-0.2C8.2,9.3,8.3,9.4,8.2,9.5z"/>
			<path class="st18" d="M4.1,9.7c0.1-0.1,0.3-0.2,0.4-0.2c0,0,0,0,0,0C4.4,9.5,4.2,9.6,4.1,9.7C4.1,9.7,4.1,9.7,4.1,9.7z"/>
			<path class="st13" d="M8.7,9.4C8.7,9.3,8.7,9.3,8.7,9.4C8.7,9.4,8.7,9.4,8.7,9.4c0,0.2,0,0.3,0,0.5C8.7,9.7,8.7,9.5,8.7,9.4z"/>
			<path class="st18" d="M3.7,10.1C3.8,10,3.9,9.9,4,9.8c0,0,0,0,0,0C3.8,9.9,3.8,10,3.7,10.1L3.7,10.1z"/>
			<path class="st18" d="M3.7,10.1c0,0-0.1,0.1-0.1,0.1c0,0,0,0,0,0C3.7,10.3,3.7,10.2,3.7,10.1C3.7,10.1,3.7,10.1,3.7,10.1z"/>
			<path class="st18" d="M5.3,8.8c0,0,0-0.1,0-0.1c0,0,0,0-0.1,0C5.3,8.7,5.3,8.8,5.3,8.8L5.3,8.8z"/>
			<path class="st18" d="M4.1,9.7C4.1,9.7,4,9.8,4,9.8c0,0,0,0,0,0C4,9.8,4.1,9.7,4.1,9.7C4.1,9.7,4.1,9.7,4.1,9.7z"/>
			<path class="st23" d="M6.3,7c0-0.1,0-0.2,0-0.3C6.3,6.8,6.3,6.9,6.3,7z"/>
			<path class="st18" d="M3.5,10.4C3.5,10.4,3.5,10.4,3.5,10.4C3.5,10.5,3.5,10.5,3.5,10.4C3.5,10.5,3.5,10.4,3.5,10.4
				C3.6,10.4,3.6,10.4,3.5,10.4z"/>
			<path class="st18" d="M3.3,10.6C3.3,10.6,3.3,10.6,3.3,10.6C3.4,10.6,3.4,10.6,3.3,10.6C3.3,10.6,3.3,10.6,3.3,10.6
				C3.3,10.6,3.3,10.6,3.3,10.6z"/>
			<path class="st18" d="M5,9.1C5,9.1,5.1,9.1,5,9.1L5,9.1C5.1,9.1,5,9.1,5,9.1L5,9.1z"/>
			<path class="st18" d="M4.7,9.4C4.7,9.3,4.7,9.3,4.7,9.4C4.8,9.3,4.8,9.3,4.7,9.4C4.7,9.3,4.7,9.3,4.7,9.4
				C4.7,9.4,4.7,9.4,4.7,9.4z"/>
			<path class="st18" d="M4.8,9.2C4.9,9.2,4.9,9.2,4.8,9.2C4.9,9.2,4.9,9.2,4.8,9.2C4.9,9.2,4.9,9.2,4.8,9.2L4.8,9.2z"/>
			<path class="st18" d="M5.1,9.1C5.1,9,5.1,9,5.1,9.1C5.2,9,5.2,9,5.1,9.1C5.1,9,5.1,9,5.1,9.1C5.1,9.1,5.1,9.1,5.1,9.1z"/>
			<path class="st23" d="M6.4,7c0,0-0.1,0-0.1,0C6.4,7,6.4,7,6.4,7z"/>
			<path class="st18" d="M4.7,9.4C4.6,9.4,4.6,9.4,4.7,9.4C4.6,9.4,4.6,9.4,4.7,9.4C4.6,9.4,4.6,9.4,4.7,9.4
				C4.7,9.4,4.7,9.4,4.7,9.4z"/>
			<path class="st18" d="M5.2,8.9C5.2,8.9,5.2,9,5.2,8.9C5.2,9,5.2,9,5.2,8.9C5.2,9,5.2,8.9,5.2,8.9C5.2,8.9,5.2,8.9,5.2,8.9z"/>
			<path class="st13" d="M9,11.1C8.9,11.1,8.9,11.1,9,11.1C8.9,11.1,8.9,11.1,9,11.1z"/>
			<path class="st23" d="M6.6,7.1C6.5,7,6.5,7,6.6,7.1C6.5,7,6.5,7,6.6,7.1z"/>
			<path class="st18" d="M4.8,9.2C4.8,9.3,4.8,9.3,4.8,9.2C4.8,9.3,4.8,9.3,4.8,9.2C4.8,9.3,4.8,9.3,4.8,9.2
				C4.8,9.2,4.8,9.2,4.8,9.2z"/>
			<path class="st18" d="M5,9.1C5,9.1,4.9,9.2,5,9.1C4.9,9.2,4.9,9.2,5,9.1C4.9,9.2,5,9.1,5,9.1C5,9.1,5,9.1,5,9.1z"/>
			<path class="st13" d="M8.9,11.2C8.9,11.2,8.9,11.1,8.9,11.2C8.9,11.1,8.9,11.2,8.9,11.2z"/>
			<path class="st23" d="M6.7,7.2C6.7,7.1,6.6,7.1,6.7,7.2C6.6,7.1,6.7,7.1,6.7,7.2z"/>
			<path class="st18" d="M5.3,8.8C5.3,8.9,5.3,8.9,5.3,8.8L5.3,8.8C5.3,8.9,5.3,8.9,5.3,8.8L5.3,8.8z"/>
			<path class="st23" d="M6.6,7.1C6.6,7.1,6.6,7.1,6.6,7.1C6.6,7.1,6.6,7.1,6.6,7.1z"/>
			<path class="st13" d="M8.8,10.9C8.8,10.9,8.8,10.9,8.8,10.9C8.8,10.9,8.8,10.9,8.8,10.9z"/>
			<path class="st13" d="M8.8,11C8.8,11,8.8,10.9,8.8,11C8.8,10.9,8.8,11,8.8,11z"/>
			<path class="st23" d="M6.6,7.1C6.6,7.1,6.6,7.1,6.6,7.1C6.6,7.1,6.6,7.1,6.6,7.1z"/>
			<path class="st13" d="M8.8,11C8.8,11,8.8,11,8.8,11C8.8,11,8.8,11,8.8,11z"/>
			<path class="st18" d="M5.2,8.9C5.2,8.9,5.2,8.9,5.2,8.9C5.2,8.9,5.2,8.9,5.2,8.9C5.2,8.9,5.2,8.9,5.2,8.9
				C5.2,8.9,5.2,8.9,5.2,8.9z"/>
			<path class="st13" d="M8.9,11C8.9,11,8.9,11,8.9,11C8.9,11,8.9,11,8.9,11z"/>
			<path class="st13" d="M8.9,11C8.9,11,8.9,11,8.9,11C8.9,11,8.9,11,8.9,11z"/>
			<path class="st13" d="M8.9,11.1C8.9,11.1,8.9,11.1,8.9,11.1C8.9,11.1,8.9,11.1,8.9,11.1z"/>
			<path class="st15" d="M12.4,4.7c-0.1,0-0.1-0.1-0.2-0.1c0,0-0.1,0.1-0.1,0.1c0,0.1,0,0.1,0.1,0.1C12.3,4.8,12.3,4.8,12.4,4.7
				C12.4,4.7,12.4,4.7,12.4,4.7z"/>
			<path class="st17" d="M12.7,4.5c-0.1,0-0.2,0.1-0.2,0.2c0,0,0.1,0.1,0.1,0.1c0,0,0.1,0,0.1-0.1C12.7,4.7,12.6,4.7,12.7,4.5
				C12.6,4.6,12.6,4.6,12.7,4.5C12.6,4.6,12.6,4.6,12.7,4.5z"/>
			<path class="st15" d="M12.7,4.6c0.1,0.1,0.1,0.2,0,0.3c0.2,0,0.2,0,0.2-0.2C12.9,4.6,12.8,4.6,12.7,4.6z"/>
			<path class="st27" d="M9.1,4.6C9.1,4.4,9,4.3,8.9,4.1c0,0,0,0,0,0c0,0,0,0,0,0c-0.5,0-1,0-1.5,0c0,0.1,0,0.2,0.1,0.3
				c-0.1,0-0.2-0.1-0.3-0.1l0,0c0,0.1,0,0.2,0.1,0.3c0.1,0.3,0.1,0.3,0.4,0.3c0.1,0,0.2,0,0.2,0.1c0,0,0,0,0,0C8,4.8,8,4.8,8.2,4.9
				C8.2,5,8.3,5,8.3,5c0.2,0,0.4,0,0.5,0c0,0,0,0,0,0c0,0,0-0.1,0-0.1c0,0,0,0,0,0c0,0,0,0,0-0.1c0,0,0,0,0,0c0,0,0,0,0-0.1
				C9,4.7,9.1,4.6,9.1,4.6z M7.8,4.3c0.1,0,0.1,0,0.1,0.2c0,0,0,0.1-0.1,0.1c0,0,0,0,0,0C7.8,4.4,7.8,4.4,7.8,4.3z"/>
			<path class="st28" d="M7.2,4.2c0.1,0,0.2,0.1,0.3,0.1c0-0.1,0-0.2-0.1-0.3c0,0-0.1,0-0.1,0c0,0,0,0.1,0,0.1
				c-0.1,0-0.1-0.1-0.2-0.1c0,0.2,0.1,0.3,0.1,0.4c0,0.1,0.1,0.2,0.1,0.3c0,0.1,0.1,0.2,0.2,0.2c0.1,0,0.2-0.1,0.3,0.1
				c0,0.1,0.1,0.1,0.1,0C8,5,8,4.9,8,4.9C8.2,5.2,8.5,5,8.8,5C8.7,5.3,8.5,5.4,8.3,5.5C8.2,5.6,8,5.7,7.9,5.8c0,0.2,0,0.3,0.1,0.4
				c0-0.1,0-0.3,0-0.4c0.2-0.1,0.4-0.2,0.6-0.3C8.7,5.3,8.8,5.2,8.9,5C8.7,5,8.5,5,8.3,5C8.3,5,8.2,5,8.2,4.9C8,4.8,8,4.8,7.9,4.9
				c0,0,0,0,0,0c0-0.1-0.1-0.1-0.2-0.1c-0.3,0-0.3,0-0.4-0.3C7.3,4.5,7.2,4.3,7.2,4.2C7.2,4.2,7.2,4.2,7.2,4.2
				C7.2,4.2,7.2,4.2,7.2,4.2z"/>
			<path class="st29" d="M9.7,5.4c0-0.1,0-0.1,0-0.2C9.6,5.3,9.6,5.4,9.5,5.4c-0.1,0-0.1,0-0.2,0c0,0,0,0.1-0.1,0.1
				c0.1,0.1,0.3-0.1,0.4,0.1c0.1,0,0.2-0.1,0.2-0.1c0.1,0,0.1,0,0.1-0.1c0,0,0,0-0.1,0.1c0-0.1,0-0.1-0.1-0.2
				C9.8,5.3,9.8,5.3,9.7,5.4z"/>
			<path class="st24" d="M8,6.4C7.9,6.6,8.1,6.6,8.1,6.8c0,0.1,0.1,0.1,0.2,0.2c0,0,0,0,0.1,0c0,0,0,0,0,0c0,0,0-0.1,0-0.1l0,0
				c0,0,0-0.1-0.1-0.1c0,0,0,0,0,0c0,0,0-0.1-0.1-0.1l0,0c0,0-0.1-0.1-0.1-0.1C8.1,6.5,8,6.5,8,6.4z"/>
			<path class="st29" d="M8.5,7.1c-0.3,0-0.1,0.2-0.1,0.3c0.1-0.1,0.1-0.1,0.2-0.2C8.6,7.2,8.6,7.2,8.5,7.1C8.5,7.2,8.5,7.2,8.5,7.1
				C8.5,7.2,8.5,7.1,8.5,7.1L8.5,7.1z"/>
			<path class="st30" d="M8,6.4C8,6.5,8.1,6.5,8.1,6.6c0,0,0.1,0.1,0.1,0.1C8.2,6.6,8.1,6.4,8,6.3C8,6.3,8,6.3,8,6.4z"/>
			<path class="st30" d="M8.3,7C8.2,7,8,7,7.9,7C7.9,7.2,8,7.3,8,7.4c0,0,0,0,0,0c0-0.1,0-0.1,0-0.2c0-0.1,0-0.1,0-0.2
				C8.1,7.1,8.2,7,8.3,7z"/>
			<path class="st30" d="M8.4,6.9c0,0,0,0.1,0,0.1c0,0,0.1,0,0.1,0.1l0,0C8.5,7,8.4,6.9,8.4,6.9z"/>
			<path class="st30" d="M8.5,7.1C8.5,7.1,8.5,7.1,8.5,7.1C8.5,7.1,8.5,7.1,8.5,7.1c0,0.1,0,0.1,0,0.1c0,0,0,0,0,0c0,0,0,0,0.1,0
				C8.6,7.1,8.5,7.1,8.5,7.1C8.5,7.1,8.5,7.1,8.5,7.1z"/>
			<path class="st30" d="M8.3,6.8C8.3,6.8,8.4,6.9,8.3,6.8C8.4,6.9,8.3,6.8,8.3,6.8z"/>
			<path class="st30" d="M8.3,6.7C8.3,6.8,8.3,6.8,8.3,6.7C8.3,6.8,8.3,6.8,8.3,6.7z"/>
			<path class="st28" d="M8.9,4.8c0,0,0,0.1,0,0.1C8.9,4.9,8.9,4.9,8.9,4.8z"/>
			<path class="st30" d="M8.4,7C8.4,7,8.3,7,8.4,7C8.3,7,8.3,7,8.4,7C8.3,7,8.4,7,8.4,7z"/>
			<path class="st28" d="M8.9,4.7C8.9,4.8,8.9,4.8,8.9,4.7C8.9,4.8,8.9,4.8,8.9,4.7z"/>
			<path class="st28" d="M8.9,4.8C8.9,4.8,8.9,4.8,8.9,4.8C8.9,4.8,8.9,4.8,8.9,4.8z"/>
			<path class="st28" d="M7.9,6.2C7.9,6.2,7.9,6.2,7.9,6.2C7.9,6.2,7.9,6.2,7.9,6.2C7.9,6.2,7.9,6.2,7.9,6.2z"/>
			<path class="st16" d="M7.3,4.1c0,0,0.1,0,0.1,0c0.5,0,1,0,1.5,0c0-0.1,0-0.1-0.1-0.2C8.9,4,8.8,4,8.8,4C8.5,4,8.3,4,8.1,4
				C8,4,8,4,8,3.9c0-0.1,0-0.1-0.1-0.2c0,0-0.1-0.1-0.1-0.1c0,0-0.1,0-0.1-0.1c0,0,0.1-0.1,0.1-0.1C7.9,3.4,8,3.4,8,3.2
				c-0.1,0-0.1-0.1-0.2-0.1c-0.1,0-0.1,0-0.2,0c0,0-0.1,0-0.1,0c0.1,0,0.2,0.1,0.4,0.2C7.9,3.3,7.8,3.4,7.8,3.4
				c-0.1,0.1-0.2,0-0.2,0.1c0,0.1,0.1,0.1,0.2,0.1c0,0,0,0.1,0,0.1C7.9,4,7.9,4,7.7,4C7.6,4,7.5,4,7.4,4C7.4,4,7.4,4,7.3,4.1z"/>
			<path class="st14" d="M7.6,3.1C7.6,3.1,7.6,3.1,7.6,3.1C7.5,3,7.4,3,7.3,2.9c0,0,0.1,0,0.1,0.1C7.3,3,7.2,3,7.2,3c0,0,0,0,0,0
				c0,0,0,0,0,0c0,0,0.1,0,0.1,0c0,0,0,0,0,0c0,0,0.1,0,0.1,0c0,0,0,0,0,0C7.5,3.1,7.5,3.1,7.6,3.1C7.5,3.1,7.6,3.1,7.6,3.1z"/>
			<path class="st15" d="M6.5,5.6c0,0.1,0.1,0.2,0.1,0.3c0,0,0.1-0.1,0.1-0.1C6.6,5.7,6.6,5.7,6.5,5.6c0.1,0.1,0.1,0,0.1,0
				C6.6,5.6,6.6,5.6,6.5,5.6z"/>
			<path class="st17" d="M6.4,4.4c-0.1-0.1,0-0.2-0.1-0.2c0,0.1,0,0.2,0,0.2C6.4,4.4,6.4,4.4,6.4,4.4z"/>
			<path class="st16" d="M7,2.8C7,2.8,6.9,2.7,6.9,2.7C6.9,2.7,7,2.8,7,2.8z"/>
			<path class="st16" d="M7.2,3C7.2,3,7.2,3,7.2,3c0-0.1-0.1-0.1-0.1-0.1C7.1,2.9,7.1,3,7.2,3z"/>
			<path class="st16" d="M7.5,3.1C7.5,3.1,7.5,3.1,7.5,3.1C7.5,3.1,7.5,3.1,7.5,3.1z"/>
			<path class="st16" d="M7.3,3C7.3,3,7.3,3,7.3,3C7.3,3,7.3,3,7.3,3z"/>
			<path class="st16" d="M7.4,3.1C7.4,3.1,7.4,3.1,7.4,3.1C7.4,3.1,7.4,3.1,7.4,3.1z"/>
			<path class="st16" d="M7.1,2.9C7.1,2.9,7,2.8,7.1,2.9C7,2.8,7.1,2.9,7.1,2.9z"/>
			<path class="st20" d="M7.3,2.9C7.4,3,7.5,3,7.6,3.1c0.1,0,0.1,0,0.2,0C7.9,3,7.9,3,8,2.9c0-0.2,0-0.4,0-0.6c0,0,0-0.1-0.1-0.1
				c0,0,0,0,0,0c0,0,0,0-0.1,0c0,0,0,0,0,0c0,0-0.1,0-0.1,0c0,0,0,0,0,0c0,0,0,0-0.1,0c0,0,0,0,0,0c0,0,0,0-0.1,0c0,0,0,0,0,0
				c0,0,0,0-0.1,0c0,0,0,0,0,0c0,0-0.1,0-0.1,0c0,0,0,0,0,0c0,0,0,0-0.1,0c0,0,0,0,0,0c0,0,0,0-0.1,0c0,0,0,0,0,0c0,0,0,0,0,0
				c0,0,0,0,0,0c0,0.1,0,0.2,0.1,0.3c0,0,0,0,0,0C7.2,2.8,7.3,2.9,7.3,2.9C7.3,2.9,7.3,2.9,7.3,2.9z"/>
			<path class="st17" d="M8.4,2.8c0-0.1,0-0.1,0-0.2c0,0,0,0,0,0c0,0-0.1,0.1-0.1,0.1C8.3,2.8,8.3,2.8,8.4,2.8
				C8.4,2.8,8.4,2.8,8.4,2.8z"/>
			<path class="st17" d="M8.4,2.8c0.1-0.1,0.1-0.1,0-0.2C8.4,2.7,8.4,2.8,8.4,2.8z"/>
			<path class="st18" d="M3.7,3.8c0-0.1,0-0.2,0-0.3c0-0.1,0.1-0.1,0.2-0.1c0.1,0,0.2,0,0.2,0c0-0.1,0-0.2,0-0.3
				C4,3,4.2,3.1,4.1,3.2c-0.1,0-0.2,0-0.2,0c-0.2,0-0.2,0.1-0.2,0.2C3.7,3.5,3.6,3.7,3.7,3.8z"/>
			<path class="st9" d="M3.9,2.6c-0.1,0-0.2-0.2-0.2,0c0,0,0,0.1,0,0.1c0,0.1,0.1,0.1,0.1,0c0,0,0.1,0,0.1,0
				C3.9,2.6,3.9,2.6,3.9,2.6z"/>
			<path class="st15" d="M3.9,2.6c0,0,0,0.1,0,0.1c0,0,0.1,0.1,0.1,0.1c0.1-0.1,0.1-0.1,0-0.2C4,2.5,4,2.5,3.9,2.6z"/>
			<path class="st19" d="M3.9,4.2c-0.1,0-0.1,0-0.2,0.1c0.1,0,0.2,0,0.3,0.1c0,0,0,0,0,0l0,0c0,0,0,0,0,0c0,0,0,0,0,0c0,0,0,0,0,0
				C4,4.2,4,4.2,3.9,4.2C4,4.2,4,4.2,3.9,4.2z"/>
			<path class="st18" d="M4,4.1C4,4.1,4,4,3.9,4C4,4,4,4.1,4,4.1z"/>
			<path class="st18" d="M3.9,3.9c0,0-0.1-0.1-0.1-0.1C3.8,3.8,3.8,3.9,3.9,3.9z"/>
			<path class="st18" d="M4,4.2C4,4.2,4,4.2,4,4.2C4,4.2,4,4.1,4,4.2C4,4.1,4,4.2,4,4.2z"/>
			<path class="st18" d="M4.5,2.7C4.6,2.7,4.6,2.7,4.5,2.7C4.6,2.7,4.6,2.7,4.5,2.7z"/>
			<path class="st18" d="M4.2,2.9C4.2,2.9,4.3,2.9,4.2,2.9C4.3,2.9,4.2,2.9,4.2,2.9z"/>
			<path class="st18" d="M4.3,2.9C4.3,2.9,4.3,2.8,4.3,2.9C4.3,2.8,4.3,2.9,4.3,2.9z"/>
			<path class="st18" d="M4.4,2.8C4.4,2.8,4.4,2.8,4.4,2.8C4.4,2.8,4.4,2.8,4.4,2.8z"/>
			<path class="st18" d="M4.5,2.8C4.5,2.8,4.5,2.7,4.5,2.8C4.5,2.7,4.5,2.8,4.5,2.8z"/>
			<path class="st19" d="M3.7,4C3.8,4,3.8,4.1,3.7,4C3.8,4.1,3.8,4,3.7,4z"/>
			<path class="st19" d="M3.8,4.1C3.8,4.1,3.8,4.1,3.8,4.1C3.8,4.1,3.8,4.1,3.8,4.1z"/>
			<path class="st18" d="M3.9,4C3.9,4,3.9,4,3.9,4C3.9,4,3.9,4,3.9,4z"/>
			<path class="st18" d="M3.9,4C3.9,4,3.9,4,3.9,4C3.9,4,3.9,4,3.9,4z"/>
			<path class="st18" d="M3.9,3.9C3.9,3.9,3.9,3.9,3.9,3.9C3.9,3.9,3.9,3.9,3.9,3.9z"/>
			<path class="st19" d="M3.5,3.9C3.5,3.9,3.5,3.9,3.5,3.9C3.5,3.9,3.5,3.9,3.5,3.9z"/>
			<path class="st19" d="M3.5,3.8C3.5,3.9,3.5,3.9,3.5,3.8C3.5,3.9,3.5,3.9,3.5,3.8z"/>
			<path class="st19" d="M3.5,3.8C3.5,3.8,3.5,3.8,3.5,3.8C3.5,3.8,3.5,3.8,3.5,3.8z"/>
			<path class="st19" d="M3.4,3.8C3.4,3.8,3.5,3.8,3.4,3.8C3.5,3.8,3.4,3.8,3.4,3.8z"/>
			<path class="st18" d="M3.8,3.8C3.8,3.8,3.8,3.8,3.8,3.8C3.8,3.8,3.8,3.8,3.8,3.8z"/>
			<path class="st19" d="M3.4,3.8C3.4,3.8,3.4,3.8,3.4,3.8C3.4,3.8,3.4,3.8,3.4,3.8z"/>
			<path class="st18" d="M3.7,3.8C3.7,3.8,3.7,3.8,3.7,3.8C3.7,3.8,3.7,3.8,3.7,3.8z"/>
			<path class="st19" d="M3.2,3.6C3.2,3.6,3.2,3.6,3.2,3.6C3.2,3.6,3.2,3.6,3.2,3.6z"/>
			<path class="st19" d="M3.1,3.5C3.1,3.5,3.1,3.5,3.1,3.5C3.1,3.5,3.1,3.5,3.1,3.5z"/>
			<path class="st19" d="M3.3,3.7C3.3,3.7,3.3,3.7,3.3,3.7C3.3,3.7,3.3,3.7,3.3,3.7z"/>
			<path class="st19" d="M3.3,3.7C3.3,3.7,3.3,3.7,3.3,3.7C3.3,3.7,3.3,3.7,3.3,3.7z"/>
			<path class="st19" d="M3.4,3.7C3.4,3.7,3.4,3.7,3.4,3.7C3.4,3.7,3.4,3.7,3.4,3.7z"/>
			<path class="st19" d="M3.1,3.5C3.1,3.5,3.1,3.5,3.1,3.5C3.1,3.5,3.1,3.5,3.1,3.5z"/>
			<path class="st19" d="M3.1,3.5C3.1,3.5,3.1,3.5,3.1,3.5C3.1,3.5,3.1,3.5,3.1,3.5z"/>
			<path class="st17" d="M2.4,2C2.3,2,2.3,2.1,2.3,2.2c0,0,0.1,0.1,0.1,0.1c0,0,0.1,0,0.1-0.1c0,0,0-0.1,0-0.1C2.5,2,2.4,2,2.4,2z"
				/>
			<path class="st15" d="M1.9,2.3C1.9,2.2,2,2.2,2,2.1c0,0-0.1-0.1-0.1-0.1c0,0.1-0.1,0.1-0.1,0.2C1.8,2.2,1.8,2.2,1.9,2.3z
				 M1.8,2.1C1.9,2.1,1.9,2.1,1.8,2.1c0.1,0.1,0.1,0.1,0,0.2c0,0,0,0-0.1,0C1.8,2.2,1.8,2.1,1.8,2.1z"/>
			<path class="st17" d="M3.4,4.6C3.4,4.6,3.4,4.6,3.4,4.6C3.3,4.7,3.3,4.7,3.2,4.8c0,0,0,0,0,0c0,0,0,0.1,0,0.1c0,0,0,0,0,0
				c0,0,0.1,0,0.1,0c0,0,0.1,0.1,0.1,0.1c0,0,0.1-0.1,0.1-0.1C3.5,4.7,3.5,4.7,3.4,4.6C3.5,4.7,3.4,4.6,3.4,4.6L3.4,4.6z"/>
			<path class="st17" d="M3.1,4.2c0,0-0.1,0-0.1,0.1c0,0,0,0,0,0c0.1,0,0.1,0,0.2,0C3.2,4.3,3.2,4.3,3.1,4.2
				C3.2,4.2,3.1,4.2,3.1,4.2z"/>
			<path class="st11" d="M3.1,4.2C3.1,4.2,3.2,4.2,3.1,4.2c0.1,0,0.1,0,0.1,0C3.2,4.2,3.2,4.2,3.1,4.2C3.2,4.2,3.1,4.2,3.1,4.2
				C3.1,4.2,3.1,4.2,3.1,4.2z"/>
			<path class="st19" d="M3.7,4.2c0,0-0.1,0-0.1,0C3.7,4.2,3.7,4.2,3.7,4.2z"/>
			<path class="st19" d="M3.6,4.2c0,0-0.1,0-0.1,0C3.5,4.2,3.5,4.2,3.6,4.2z"/>
			<path class="st19" d="M3.4,4.2c0,0-0.1,0-0.1,0C3.3,4.1,3.4,4.2,3.4,4.2z"/>
			<path class="st19" d="M3.2,4.2C3.2,4.2,3.2,4.2,3.2,4.2C3.2,4.2,3.2,4.2,3.2,4.2C3.2,4.1,3.2,4.1,3.2,4.2
				C3.2,4.1,3.2,4.2,3.2,4.2z"/>
			<path class="st11" d="M3.3,4.8C3.3,4.8,3.3,4.8,3.3,4.8C3.3,4.8,3.3,4.8,3.3,4.8z"/>
			<path class="st26" d="M4.1,4.3L4.1,4.3C4.1,4.3,4,4.3,4.1,4.3C4,4.3,4.1,4.3,4.1,4.3z"/>
			<path class="st26" d="M4.2,4.3C4.1,4.3,4.1,4.3,4.2,4.3C4.1,4.3,4.1,4.3,4.2,4.3z"/>
			<path class="st11" d="M3.4,4.6C3.4,4.6,3.5,4.7,3.4,4.6C3.5,4.7,3.4,4.6,3.4,4.6z"/>
			<path class="st26" d="M4.1,4.2C4.1,4.3,4.1,4.3,4.1,4.2C4.1,4.3,4.1,4.3,4.1,4.2C4.1,4.3,4.1,4.3,4.1,4.2z"/>
			<path class="st17" d="M7.2,2.2c0,0,0.1,0.1,0.2,0.1c0-0.1,0-0.2,0-0.2C7.4,2,7.3,2,7.3,2C7.3,2.1,7.3,2.1,7.2,2.2
				C7.2,2.2,7.2,2.2,7.2,2.2z"/>
			<path class="st15" d="M7,2.1C7.1,2.1,7.1,2.1,7,2.1c0,0.1,0,0.1,0,0.1c0,0-0.1,0-0.1,0c0,0,0,0,0,0C7,2.3,7.1,2.3,7.1,2.3
				c0,0,0.1-0.1,0.1-0.1c0,0,0,0,0,0c0,0,0,0,0,0c0-0.1,0-0.1,0-0.2C7.1,2,7.1,2.1,7,2.1C7,2.1,7,2.1,7,2.1z"/>
			<path class="st6" d="M6.9,2.1c0,0-0.1,0-0.1,0C6.7,2.2,6.7,2.2,6.8,2.2C6.9,2.2,6.9,2.2,6.9,2.1C6.9,2.2,6.9,2.2,6.9,2.1
				C6.9,2.1,6.9,2.1,6.9,2.1z"/>
			<path class="st14" d="M7.2,2.8c0-0.1,0-0.2-0.1-0.3C7.2,2.6,7.2,2.7,7.2,2.8z"/>
			<path class="st14" d="M7.3,2.9c0,0,0-0.1,0-0.1C7.2,2.8,7.3,2.9,7.3,2.9z"/>
			<path class="st14" d="M7.4,2.4C7.4,2.4,7.4,2.3,7.4,2.4C7.4,2.3,7.4,2.4,7.4,2.4z"/>
			<path class="st14" d="M7.7,2.3C7.8,2.2,7.8,2.2,7.7,2.3C7.8,2.2,7.8,2.2,7.7,2.3z"/>
			<path class="st14" d="M7.5,2.3C7.5,2.3,7.5,2.3,7.5,2.3C7.5,2.3,7.5,2.3,7.5,2.3z"/>
			<path class="st17" d="M7.3,2.3C7.3,2.3,7.3,2.3,7.3,2.3C7.3,2.3,7.3,2.3,7.3,2.3C7.3,2.3,7.3,2.3,7.3,2.3z"/>
			<path class="st14" d="M7.6,2.3C7.6,2.3,7.6,2.3,7.6,2.3C7.6,2.3,7.6,2.3,7.6,2.3z"/>
			<path class="st14" d="M7.6,2.3C7.7,2.3,7.7,2.3,7.6,2.3C7.7,2.3,7.7,2.3,7.6,2.3z"/>
			<path class="st14" d="M7.8,2.2C7.9,2.2,7.9,2.2,7.8,2.2C7.9,2.2,7.9,2.2,7.8,2.2z"/>
			<path class="st14" d="M7.2,2.4C7.2,2.4,7.2,2.4,7.2,2.4C7.2,2.4,7.2,2.4,7.2,2.4z"/>
			<path class="st14" d="M7.3,2.4C7.3,2.4,7.3,2.4,7.3,2.4C7.3,2.4,7.3,2.4,7.3,2.4z"/>
			<path class="st14" d="M7.2,2.4C7.2,2.4,7.2,2.4,7.2,2.4C7.2,2.4,7.2,2.4,7.2,2.4z"/>
			<polygon class="st15" points="7,2.1 7,2.1 7,2.1 			"/>
			<path class="st21" d="M4.6,3.5C4.6,3.6,4.6,3.6,4.6,3.5c-0.1,0.1,0,0.1,0,0.2c0,0,0.1,0,0.1,0.1c0-0.1,0-0.2,0-0.2
				C4.7,3.5,4.7,3.5,4.6,3.5c0,0,0,0.1,0.1,0.1c0,0,0,0-0.1,0C4.6,3.6,4.6,3.6,4.6,3.5z"/>
			<path class="st17" d="M3.2,4.2C3.2,4.2,3.2,4.1,3.2,4.2C3.2,4.1,3.1,4.1,3,4.1c0,0,0,0,0,0C3.1,4.1,3.1,4.2,3.2,4.2
				C3.1,4.2,3.2,4.2,3.2,4.2z"/>
			<path class="st16" d="M8.9,4.1C8.9,4.1,8.9,4.1,8.9,4.1C8.9,4.1,8.9,4.1,8.9,4.1z"/>
			<path class="st24" d="M8,7.4C8,7.3,7.9,7.2,7.9,7c0,0,0,0,0,0c0,0,0,0,0,0C7.8,6.8,7.8,6.6,7.7,6.4c-0.1,0-0.2,0-0.3,0
				c0,0.1,0,0.1,0.1,0.2c-0.1,0-0.2,0-0.3,0c0,0,0,0,0.1,0.1c0.1,0,0.1,0,0.1,0.1c0,0-0.1,0-0.1,0.1C7.3,7,7.4,7.1,7.5,7.3
				c0,0,0.1,0.1,0.1,0.1C7.7,7.4,7.9,7.4,8,7.4z"/>
			<path class="st11" d="M5.6,7.4c0-0.1,0-0.1-0.3-0.1c0,0.1,0,0.1,0,0.2c0,0,0,0,0,0c0-0.1,0-0.1,0-0.2c0,0,0,0,0,0
				c0,0-0.1,0.1-0.1,0.1c0,0,0.1,0.1,0.1,0.1c0,0,0.1,0,0.1-0.1C5.4,7.3,5.4,7.2,5.6,7.4z"/>
			<path class="st17" d="M7,6.6c0,0.1-0.1,0.2-0.2,0.1l0,0c0,0,0.1,0,0.1,0.1c0,0,0.1,0,0.2,0c0,0,0-0.1,0.1-0.1
				C7.1,6.7,7.1,6.6,7,6.6z"/>
			<path class="st29" d="M7.2,6.7C7.2,6.6,7.2,6.6,7.2,6.7C7.2,6.6,7.2,6.6,7.2,6.7C7.2,6.6,7.2,6.6,7.2,6.7
				C7.2,6.6,7.2,6.7,7.2,6.7C7.2,6.7,7.2,6.7,7.2,6.7z"/>
			<path class="st4" d="M7.2,6.6C7.2,6.6,7.2,6.6,7.2,6.6C7.2,6.7,7.2,6.7,7.2,6.6c0,0.1,0,0.1,0,0.1c0,0,0,0,0,0
				C7.2,6.7,7.2,6.7,7.2,6.6z"/>
			<path class="st15" d="M6.5,5.9C6.5,5.9,6.5,5.9,6.5,5.9C6.5,5.9,6.5,5.9,6.5,5.9C6.5,5.9,6.5,5.9,6.5,5.9
				C6.5,5.9,6.5,5.9,6.5,5.9z"/>
			<path class="st30" d="M7.9,7C7.9,7,7.9,7,7.9,7C7.9,7,7.9,7,7.9,7z"/>
			<path class="st29" d="M7.3,8c0,0,0.1-0.1,0.1-0.1C7.4,7.9,7.3,7.8,7.3,7.8c0,0,0,0,0,0c-0.1,0-0.1,0-0.2,0c0,0,0,0,0,0
				c0.1,0,0.2,0.1,0.3,0.1C7.4,8,7.3,8,7.3,8C7.3,8,7.3,8,7.3,8z"/>
			<path class="st29" d="M7.2,8c0-0.1,0-0.1,0-0.2c0,0,0,0,0,0C7.2,7.9,7.1,8,7.2,8C7.1,8,7.2,8,7.2,8z"/>
			<path class="st23" d="M6.8,7.2C6.8,7.2,6.7,7.2,6.8,7.2C6.7,7.2,6.8,7.2,6.8,7.2z"/>
			<path class="st23" d="M6.9,7.2C6.8,7.2,6.8,7.2,6.9,7.2C6.8,7.2,6.8,7.2,6.9,7.2z"/>
			<path class="st23" d="M7,7.3C7,7.3,7,7.3,7,7.3C7,7.3,7,7.3,7,7.3z"/>
			<path class="st23" d="M7,7.3C7,7.3,6.9,7.3,7,7.3C6.9,7.3,7,7.3,7,7.3z"/>
			<path class="st23" d="M6.9,7.3C6.9,7.3,6.9,7.3,6.9,7.3C6.9,7.3,6.9,7.3,6.9,7.3z"/>
			<path class="st23" d="M6.9,7.3C6.9,7.2,6.9,7.2,6.9,7.3C6.9,7.2,6.9,7.2,6.9,7.3z"/>
			<path class="st23" d="M6.9,7.2C6.9,7.2,6.9,7.2,6.9,7.2C6.9,7.2,6.9,7.2,6.9,7.2z"/>
			<path class="st10" d="M6.7,6.7c0-0.1-0.1-0.1-0.1-0.2c0,0-0.1,0.1-0.1,0.1c0,0,0,0.1,0,0.1c0,0,0.1,0,0.1,0c0-0.1,0-0.1-0.1-0.2
				C6.6,6.7,6.7,6.7,6.7,6.7C6.7,6.7,6.7,6.7,6.7,6.7z"/>
			<path class="st4" d="M7.2,6.7C7.2,6.7,7.2,6.7,7.2,6.7c0,0,0,0.1-0.1,0.1c0,0,0,0,0,0c0,0,0,0,0,0.1C7.2,6.8,7.3,6.8,7.2,6.7
				C7.3,6.7,7.3,6.6,7.2,6.7z"/>
			<path class="st17" d="M7.8,4.3c0,0.1,0,0.1,0,0.2c0,0,0,0,0,0c0,0,0.1-0.1,0.1-0.1C7.9,4.3,7.9,4.3,7.8,4.3z"/>
			<path class="st27" d="M7.2,4.2C7.2,4.2,7.2,4.2,7.2,4.2C7.2,4.2,7.2,4.2,7.2,4.2C7.2,4.2,7.2,4.2,7.2,4.2z"/>
			<path class="st4" d="M8.5,7.2C8.5,7.2,8.5,7.1,8.5,7.2C8.5,7.1,8.5,7.2,8.5,7.2z"/>
			<path class="st8" d="M1.8,2.1c0,0.1,0,0.1,0,0.2c0,0,0,0,0.1,0C1.9,2.2,1.9,2.1,1.8,2.1C1.9,2.1,1.9,2.1,1.8,2.1z"/>
			<path class="st2" d="M4.6,3.5c0,0,0,0.1,0,0.1c0,0,0,0,0.1,0C4.7,3.6,4.6,3.6,4.6,3.5C4.6,3.5,4.6,3.5,4.6,3.5z"/>
			<path class="st24" d="M7.2,6.8C7.2,6.7,7.2,6.7,7.2,6.8c0-0.1,0-0.1,0-0.1C7.2,6.7,7.2,6.7,7.2,6.8z"/>
		</g>
	</g>
	<path class="st3" d="M12.9,4.4c0,0.5-0.6,0.5-0.6,0C12.3,3.9,12.9,3.9,12.9,4.4z"/>
	<path class="st31" d="M10.4,5.4c0,0.4-1,0.4-1,0C9.4,5,10.4,5,10.4,5.4z"/>
	<path class="st32" d="M6.7,5.7c0,0.3-0.6,0.3-0.6,0C6.1,5.4,6.7,5.4,6.7,5.7z"/>
	<path class="st33" d="M7.7,2c0,0.3-0.4,0.3-0.4,0C7.3,1.7,7.7,1.7,7.7,2z"/>
	<path class="st33" d="M6.7,2c0-0.3,0.4-0.3,0.4,0C7.1,2.2,6.7,2.2,6.7,2z"/>
	<path class="st34" d="M5.1,3.4c0,0.3-0.4,0.3-0.4,0C4.6,3.1,5.1,3.1,5.1,3.4z"/>
	<path class="st35" d="M2.8,2c0,0.3-0.4,0.3-0.4,0C2.4,1.7,2.8,1.7,2.8,2z"/>
	<path class="st35" d="M3.4,4C3.4,4.3,3,4.3,3,4C3,3.7,3.4,3.7,3.4,4z"/>
	<path class="st36" d="M7.3,6.5c0,0.3-0.4,0.3-0.4,0C6.9,6.2,7.3,6.2,7.3,6.5z"/>
	<path class="st37" d="M7.7,10.4c0,0.8-1.5,0.8-1.4,0C6.3,9.6,7.7,9.6,7.7,10.4z"/>
	<path class="st37" d="M8.8,9.4c0,0.3-0.6,0.3-0.6,0C8.1,9.1,8.8,9.1,8.8,9.4z"/>
	<path class="st37" d="M9.2,9.1c0,0.4-0.2,0.4-0.2,0C9,8.7,9.2,8.7,9.2,9.1z"/>
	<path class="st37" d="M3.8,7.9c0,0.5-0.8,0.5-0.8,0C3,7.4,3.8,7.4,3.8,7.9z"/>
</g>
</svg>
