<?xml version="1.0" encoding="utf-8"?>
<!-- Generator: Adobe Illustrator 27.2.0, SVG Export Plug-In . SVG Version: 6.00 Build 0)  -->
<svg version="1.1" id="Layer_1" xmlns="http://www.w3.org/2000/svg" xmlns:xlink="http://www.w3.org/1999/xlink" x="0px" y="0px"
	 viewBox="0 0 287 183" style="enable-background:new 0 0 287 183;" xml:space="preserve">
<style type="text/css">
	.st0{display:none;fill:#242062;}
	.st1{display:none;fill:#37449C;stroke:#3B3B97;stroke-miterlimit:10;}
	.st2{display:none;fill:#37449C;stroke:#000000;}
	.st3{fill:none;}
	.st4{fill:none;stroke:#000000;}
	.st5{font-family:'MyriadPro-Regular';}
	.st6{font-size:12px;}
	.st7{fill:#242062;}
	.st8{display:none;fill:none;stroke:#000000;}
	.st9{fill:none;stroke:#231F20;stroke-width:3;}
	.st10{fill:none;stroke:#000000;stroke-width:2;}
</style>
<polygon class="st0" points="104.8,73.4 97.3,86.5 87,105 75.4,118.7 63.4,128.4 52.9,133.1 38.9,136.1 36.4,136.4 36.2,135.6 
	44.7,136.8 70.4,137.5 86.4,137.5 108.4,137.5 108.5,117.9 108.5,67.4 107.2,69.5 "/>
<polygon class="st1" points="178.5,136.9 178.5,64.3 172.5,52 166,39.5 159,28.4 150,19.2 143,17.2 143.5,44.5 143.5,136.9 "/>
<polygon class="st2" points="108.5,137 108.5,64.4 114.5,52.1 121,39.7 128,28.5 137,19.4 144,17.3 143.5,44.6 143.5,137 "/>
<path class="st3" d="M178.5,64.4l0.5,1l0.5,1l0.5,1l0.5,1l0.5,1l0.5,1l0.5,1l0.5,1l0.5,1l0.5,1l0.5,1l0.5,1l0.5,1l0.5,1l0.5,1l0.5,1
	l0.5,1l0.5,1l0.5,1l0.5,1l0.5,1l0.5,1l0.5,0.9l0.5,0.9l0.5,0.9l0.5,0.9l0.5,0.9l0.5,0.9L193,93l0.5,0.9l0.5,0.9l0.5,0.9l0.5,0.9
	l0.5,0.8l0.5,0.8l0.5,0.8l0.5,0.8l0.5,0.8l0.5,0.8l0.5,0.8l0.5,0.8l0.5,0.8l0.5,0.8l0.5,0.7l0.5,0.7l0.5,0.7l0.5,0.7l0.5,0.7
	l0.5,0.7l0.5,0.7l0.5,0.7l0.5,0.7l0.5,0.6l0.5,0.6l0.5,0.6l0.5,0.6l0.5,0.6l0.5,0.6l0.5,0.6l0.5,0.6l0.5,0.6l0.5,0.6l0.5,0.5
	l0.5,0.5l0.5,0.5l0.5,0.5l0.5,0.5l0.5,0.5l0.5,0.5l0.5,0.5l0.5,0.5l0.5,0.4l0.5,0.4l0.5,0.4l0.5,0.4l0.5,0.4l0.5,0.4l0.5,0.4
	l0.5,0.4l0.5,0.4l0.5,0.4l0.5,0.4l0.5,0.3l0.5,0.3l0.5,0.3l0.5,0.3l0.5,0.3l0.5,0.3l0.5,0.3l0.5,0.3l0.5,0.3l0.5,0.3l0.5,0.3
	l0.5,0.3l0.5,0.3l0.5,0.2l0.5,0.2l0.5,0.2l0.5,0.2l0.5,0.2l0.5,0.2l0.5,0.2l0.5,0.2l0.5,0.2l0.5,0.2l0.5,0.2l0.5,0.2l0.5,0.2
	l0.5,0.2l0.5,0.2l0.5,0.2l0.5,0.2l0.5,0.1l0.5,0.1l0.5,0.1l0.5,0.1l0.5,0.1l0.5,0.1l0.5,0.1l0.5,0.1l0.5,0.1l0.5,0.1l0.5,0.1
	l0.5,0.1l0.5,0.1l0.5,0.1l0.5,0.1l0.5,0.1l0.5,0.1l0.5,0.1l0.5,0.1l0.5,0.1l0.5,0.1l0.5,0.1l0.5,0.1l0.5,0.1l0.5,0.1l0.5,0.1
	l0.5,0.1l0.5,0.1l0.5,0.1l0.5,0.1l0.5,0.1l0.5,0.1l0.5,0l0.5,0l0.5,0l0.5,0l0.5,0l0.5,0l0.5,0l0.5,0l0.5,0l0.5,0l0.5,0l0.5,0l0.5,0
	l0.5,0l0.5,0l0.5,0l0.5,0l0.5,0l0.5,0l0.5,0l0.5,0l0.5,0l0.5,0l0.5,0l0.5,0l0.5,0l0.5,0l0.5,0l0.5,0l0.5,0l0.5,0l0.5,0l0.5,0l0.5,0
	l0.5,0l0.5,0l0.5,0l0.5,0l0.5,0l0.5,0l0.5,0l0.5,0l0.5,0l0.5,0l0.5,0l0.5,0l0.5,0l0.5,0l0.5,0l0.5,0l0.5,0l0.5,0l0.5,0l0.5,0l0.5,0
	l0.5,0l0.5,0l0.5,0l0.5,0l0.5,0l0.5,0l0.5,0l0.5,0l0.5,0l0.5,0l0.5,0l0.5,0l0.5,0l0.5,0l0.5,0l0.5,0l0.5,0l0.5,0l0.5,0l0.5,0l0.5,0
	l0.5,0l0.5,0l0.5,0l0.5,0l0.5,0l0.5,0l0.5,0l0.5,0l0.5,0l0.5,0h0.5l0.5,0l0.5,0h0.5l0.5,0l0.5,0h0.5l0.5,0h0.5h0.5l0.5,0h0.5l0.5,0
	h0.5h0.5l0.5,0h0.5h0.5h0.5l0.5,0h0.5h0.5h0.5h0.5l0.5,0h0.5h0.5h0.5h0.5h0.5h0.5h0.5l0.5,0h0.5h0.5h0.5h0.5h0.5h0.5h0.5h0.5h0.5
	h0.5h0.5h0.5h0.5h0.5h0.5l0.5,0h0.5H318h-0.5H317h-0.5H316h-0.5H315h-0.5H314h-0.5H313h-0.5H312h-0.5H311h-0.5H310h-0.5H309h-0.5
	H308h-0.5H307h-0.5H306h-0.5H305h-0.5H304h-0.5H303h-0.5H302h-0.5H301h-0.5H300h-0.5H299h-0.5H298h-0.5H297h-0.5H296h-0.5H295h-0.5
	H294h-0.5H293h-0.5H292h-0.5H291h-0.5H290h-0.5H289h-0.5H288h-0.5H287h-0.5H286h-0.5H285h-0.5H284h-0.5H283h-0.5H282h-0.5H281h-0.5
	H280h-0.5H279h-0.5H278h-0.5H277h-0.5H276h-0.5H275h-0.5H274h-0.5H273h-0.5H272h-0.5H271h-0.5H270h-0.5H269h-0.5H268h-0.5H267h-0.5
	H266h-0.5H265h-0.5H264h-0.5H263h-0.5H262h-0.5H261h-0.5H260h-0.5H259h-0.5H258h-0.5H257h-0.5H256h-0.5H255h-0.5H254h-0.5H253h-0.5
	H252h-0.5H251h-0.5H250h-0.5H249h-0.5H248h-0.5H247h-0.5H246h-0.5H245h-0.5H244h-0.5H243h-0.5H242h-0.5H241h-0.5H240h-0.5H239h-0.5
	H238h-0.5H237h-0.5H236h-0.5H235h-0.5H234h-0.5H233h-0.5H232h-0.5H231h-0.5H230h-0.5H229h-0.5H228h-0.5H227h-0.5H226h-0.5H225h-0.5
	H224h-0.5H223h-0.5H222h-0.5H221h-0.5H220h-0.5H219h-0.5H218h-0.5H217h-0.5H216h-0.5H215h-0.5H214h-0.5H213h-0.5H212h-0.5H211h-0.5
	H210h-0.5H209h-0.5H208h-0.5H207h-0.5H206h-0.5H205h-0.5H204h-0.5H203h-0.5H202h-0.5H201h-0.5H200h-0.5H199h-0.5H198h-0.5H197h-0.5
	H196h-0.5H195h-0.5H194h-0.5H193h-0.5H192h-0.5H191h-0.5H190h-0.5H189h-0.5H188h-0.5H187h-0.5H186h-0.5H185h-0.5H184h-0.5H183h-0.5
	H182h-0.5H181h-0.5H180h-0.5H179h-0.5"/>
<path class="st3" d="M0,14"/>
<path class="st3" d="M178.5,64.4l0.5,1l0.5,1l0.5,1l0.5,1l0.5,1l0.5,1l0.5,1l0.5,1l0.5,1l0.5,1l0.5,1l0.5,1l0.5,1l0.5,1l0.5,1l0.5,1
	l0.5,1l0.5,1l0.5,1l0.5,1l0.5,1l0.5,1l0.5,0.9l0.5,0.9l0.5,0.9l0.5,0.9l0.5,0.9l0.5,0.9L193,93l0.5,0.9l0.5,0.9l0.5,0.9l0.5,0.9
	l0.5,0.8l0.5,0.8l0.5,0.8l0.5,0.8l0.5,0.8l0.5,0.8l0.5,0.8l0.5,0.8l0.5,0.8l0.5,0.8l0.5,0.7l0.5,0.7l0.5,0.7l0.5,0.7l0.5,0.7
	l0.5,0.7l0.5,0.7l0.5,0.7l0.5,0.7l0.5,0.6l0.5,0.6l0.5,0.6l0.5,0.6l0.5,0.6l0.5,0.6l0.5,0.6l0.5,0.6l0.5,0.6l0.5,0.6l0.5,0.5
	l0.5,0.5l0.5,0.5l0.5,0.5l0.5,0.5l0.5,0.5l0.5,0.5l0.5,0.5l0.5,0.5l0.5,0.4l0.5,0.4l0.5,0.4l0.5,0.4l0.5,0.4l0.5,0.4l0.5,0.4
	l0.5,0.4l0.5,0.4l0.5,0.4l0.5,0.4l0.5,0.3l0.5,0.3l0.5,0.3l0.5,0.3l0.5,0.3l0.5,0.3l0.5,0.3l0.5,0.3l0.5,0.3l0.5,0.3l0.5,0.3
	l0.5,0.3l0.5,0.3l0.5,0.2l0.5,0.2l0.5,0.2l0.5,0.2l0.5,0.2l0.5,0.2l0.5,0.2l0.5,0.2l0.5,0.2l0.5,0.2l0.5,0.2l0.5,0.2l0.5,0.2
	l0.5,0.2l0.5,0.2l0.5,0.2l0.5,0.2l0.5,0.1l0.5,0.1l0.5,0.1l0.5,0.1l0.5,0.1l0.5,0.1l0.5,0.1l0.5,0.1l0.5,0.1l0.5,0.1l0.5,0.1
	l0.5,0.1l0.5,0.1l0.5,0.1l0.5,0.1l0.5,0.1l0.5,0.1l0.5,0.1l0.5,0.1l0.5,0.1l0.5,0.1l0.5,0.1l0.5,0.1l0.5,0.1l0.5,0.1l0.5,0.1
	l0.5,0.1l0.5,0.1l0.5,0.1l0.5,0.1l0.5,0.1l0.5,0.1l0.5,0l0.5,0l0.5,0l0.5,0l0.5,0l0.5,0l0.5,0l0.5,0l0.5,0l0.5,0l0.5,0l0.5,0l0.5,0
	l0.5,0l0.5,0l0.5,0l0.5,0l0.5,0l0.5,0l0.5,0l0.5,0l0.5,0l0.5,0l0.5,0l0.5,0l0.5,0l0.5,0l0.5,0l0.5,0l0.5,0l0.5,0l0.5,0l0.5,0l0.5,0
	l0.5,0l0.5,0l0.5,0l0.5,0l0.5,0l0.5,0l0.5,0l0.5,0l0.5,0l0.5,0l0.5,0l0.5,0l0.5,0l0.5,0l0.5,0l0.5,0l0.5,0l0.5,0l0.5,0l0.5,0l0.5,0
	l0.5,0l0.5,0l0.5,0l0.5,0l0.5,0l0.5,0l0.5,0l0.5,0l0.5,0l0.5,0l0.5,0l0.5,0l0.5,0l0.5,0l0.5,0l0.5,0l0.5,0l0.5,0l0.5,0l0.5,0l0.5,0
	l0.5,0l0.5,0l0.5,0l0.5,0l0.5,0l0.5,0l0.5,0l0.5,0l0.5,0l0.5,0h0.5l0.5,0l0.5,0h0.5l0.5,0l0.5,0h0.5l0.5,0h0.5h0.5l0.5,0h0.5l0.5,0
	h0.5h0.5l0.5,0h0.5h0.5h0.5l0.5,0h0.5h0.5h0.5h0.5l0.5,0h0.5h0.5h0.5h0.5h0.5h0.5h0.5l0.5,0h0.5h0.5h0.5h0.5h0.5h0.5h0.5h0.5h0.5
	h0.5h0.5h0.5h0.5h0.5h0.5l0.5,0h0.5H318h-0.5H317h-0.5H316h-0.5H315h-0.5H314h-0.5H313h-0.5H312h-0.5H311h-0.5H310h-0.5H309h-0.5
	H308h-0.5H307h-0.5H306h-0.5H305h-0.5H304h-0.5H303h-0.5H302h-0.5H301h-0.5H300h-0.5H299h-0.5H298h-0.5H297h-0.5H296h-0.5H295h-0.5
	H294h-0.5H293h-0.5H292h-0.5H291h-0.5H290h-0.5H289h-0.5H288h-0.5H287h-0.5H286h-0.5H285h-0.5H284h-0.5H283h-0.5H282h-0.5H281h-0.5
	H280h-0.5H279h-0.5H278h-0.5H277h-0.5H276h-0.5H275h-0.5H274h-0.5H273h-0.5H272h-0.5H271h-0.5H270h-0.5H269h-0.5H268h-0.5H267h-0.5
	H266h-0.5H265h-0.5H264h-0.5H263h-0.5H262h-0.5H261h-0.5H260h-0.5H259h-0.5H258h-0.5H257h-0.5H256h-0.5H255h-0.5H254h-0.5H253h-0.5
	H252h-0.5H251h-0.5H250h-0.5H249h-0.5H248h-0.5H247h-0.5H246h-0.5H245h-0.5H244h-0.5H243h-0.5H242h-0.5H241h-0.5H240h-0.5H239h-0.5
	H238h-0.5H237h-0.5H236h-0.5H235h-0.5H234h-0.5H233h-0.5H232h-0.5H231h-0.5H230h-0.5H229h-0.5H228h-0.5H227h-0.5H226h-0.5H225h-0.5
	H224h-0.5H223h-0.5H222h-0.5H221h-0.5H220h-0.5H219h-0.5H218h-0.5H217h-0.5H216h-0.5H215h-0.5H214h-0.5H213h-0.5H212h-0.5H211h-0.5
	H210h-0.5H209h-0.5H208h-0.5H207h-0.5H206h-0.5H205h-0.5H204h-0.5H203h-0.5H202h-0.5H201h-0.5H200h-0.5H199h-0.5H198h-0.5H197h-0.5
	H196h-0.5H195h-0.5H194h-0.5H193h-0.5H192h-0.5H191h-0.5H190h-0.5H189h-0.5H188h-0.5H187h-0.5H186h-0.5H185h-0.5H184h-0.5H183h-0.5
	H182h-0.5H181h-0.5H180h-0.5H179h-0.5"/>
<path class="st3" d="M0,14"/>
<path class="st3" d="M178.5,64.4l0.5,1l0.5,1l0.5,1l0.5,1l0.5,1l0.5,1l0.5,1l0.5,1l0.5,1l0.5,1l0.5,1l0.5,1l0.5,1l0.5,1l0.5,1l0.5,1
	l0.5,1l0.5,1l0.5,1l0.5,1l0.5,1l0.5,1l0.5,0.9l0.5,0.9l0.5,0.9l0.5,0.9l0.5,0.9l0.5,0.9L193,93l0.5,0.9l0.5,0.9l0.5,0.9l0.5,0.9
	l0.5,0.8l0.5,0.8l0.5,0.8l0.5,0.8l0.5,0.8l0.5,0.8l0.5,0.8l0.5,0.8l0.5,0.8l0.5,0.8l0.5,0.7l0.5,0.7l0.5,0.7l0.5,0.7l0.5,0.7
	l0.5,0.7l0.5,0.7l0.5,0.7l0.5,0.7l0.5,0.6l0.5,0.6l0.5,0.6l0.5,0.6l0.5,0.6l0.5,0.6l0.5,0.6l0.5,0.6l0.5,0.6l0.5,0.6l0.5,0.5
	l0.5,0.5l0.5,0.5l0.5,0.5l0.5,0.5l0.5,0.5l0.5,0.5l0.5,0.5l0.5,0.5l0.5,0.4l0.5,0.4l0.5,0.4l0.5,0.4l0.5,0.4l0.5,0.4l0.5,0.4
	l0.5,0.4l0.5,0.4l0.5,0.4l0.5,0.4l0.5,0.3l0.5,0.3l0.5,0.3l0.5,0.3l0.5,0.3l0.5,0.3l0.5,0.3l0.5,0.3l0.5,0.3l0.5,0.3l0.5,0.3
	l0.5,0.3l0.5,0.3l0.5,0.2l0.5,0.2l0.5,0.2l0.5,0.2l0.5,0.2l0.5,0.2l0.5,0.2l0.5,0.2l0.5,0.2l0.5,0.2l0.5,0.2l0.5,0.2l0.5,0.2
	l0.5,0.2l0.5,0.2l0.5,0.2l0.5,0.2l0.5,0.1l0.5,0.1l0.5,0.1l0.5,0.1l0.5,0.1l0.5,0.1l0.5,0.1l0.5,0.1l0.5,0.1l0.5,0.1l0.5,0.1
	l0.5,0.1l0.5,0.1l0.5,0.1l0.5,0.1l0.5,0.1l0.5,0.1l0.5,0.1l0.5,0.1l0.5,0.1l0.5,0.1l0.5,0.1l0.5,0.1l0.5,0.1l0.5,0.1l0.5,0.1
	l0.5,0.1l0.5,0.1l0.5,0.1l0.5,0.1l0.5,0.1l0.5,0.1l0.5,0l0.5,0l0.5,0l0.5,0l0.5,0l0.5,0l0.5,0l0.5,0l0.5,0l0.5,0l0.5,0l0.5,0l0.5,0
	l0.5,0l0.5,0l0.5,0l0.5,0l0.5,0l0.5,0l0.5,0l0.5,0l0.5,0l0.5,0l0.5,0l0.5,0l0.5,0l0.5,0l0.5,0l0.5,0l0.5,0l0.5,0l0.5,0l0.5,0l0.5,0
	l0.5,0l0.5,0l0.5,0l0.5,0l0.5,0l0.5,0l0.5,0l0.5,0l0.5,0l0.5,0l0.5,0l0.5,0l0.5,0l0.5,0l0.5,0l0.5,0l0.5,0l0.5,0l0.5,0l0.5,0l0.5,0
	l0.5,0l0.5,0l0.5,0l0.5,0l0.5,0l0.5,0l0.5,0l0.5,0l0.5,0l0.5,0l0.5,0l0.5,0l0.5,0l0.5,0l0.5,0l0.5,0l0.5,0l0.5,0l0.5,0l0.5,0l0.5,0
	l0.5,0l0.5,0l0.5,0l0.5,0l0.5,0l0.5,0l0.5,0l0.5,0l0.5,0l0.5,0h0.5l0.5,0l0.5,0h0.5l0.5,0l0.5,0h0.5l0.5,0h0.5h0.5l0.5,0h0.5l0.5,0
	h0.5h0.5l0.5,0h0.5h0.5h0.5l0.5,0h0.5h0.5h0.5h0.5l0.5,0h0.5h0.5h0.5h0.5h0.5h0.5h0.5l0.5,0h0.5h0.5h0.5h0.5h0.5h0.5h0.5h0.5h0.5
	h0.5h0.5h0.5h0.5h0.5h0.5l0.5,0h0.5H318h-0.5H317h-0.5H316h-0.5H315h-0.5H314h-0.5H313h-0.5H312h-0.5H311h-0.5H310h-0.5H309h-0.5
	H308h-0.5H307h-0.5H306h-0.5H305h-0.5H304h-0.5H303h-0.5H302h-0.5H301h-0.5H300h-0.5H299h-0.5H298h-0.5H297h-0.5H296h-0.5H295h-0.5
	H294h-0.5H293h-0.5H292h-0.5H291h-0.5H290h-0.5H289h-0.5H288h-0.5H287h-0.5H286h-0.5H285h-0.5H284h-0.5H283h-0.5H282h-0.5H281h-0.5
	H280h-0.5H279h-0.5H278h-0.5H277h-0.5H276h-0.5H275h-0.5H274h-0.5H273h-0.5H272h-0.5H271h-0.5H270h-0.5H269h-0.5H268h-0.5H267h-0.5
	H266h-0.5H265h-0.5H264h-0.5H263h-0.5H262h-0.5H261h-0.5H260h-0.5H259h-0.5H258h-0.5H257h-0.5H256h-0.5H255h-0.5H254h-0.5H253h-0.5
	H252h-0.5H251h-0.5H250h-0.5H249h-0.5H248h-0.5H247h-0.5H246h-0.5H245h-0.5H244h-0.5H243h-0.5H242h-0.5H241h-0.5H240h-0.5H239h-0.5
	H238h-0.5H237h-0.5H236h-0.5H235h-0.5H234h-0.5H233h-0.5H232h-0.5H231h-0.5H230h-0.5H229h-0.5H228h-0.5H227h-0.5H226h-0.5H225h-0.5
	H224h-0.5H223h-0.5H222h-0.5H221h-0.5H220h-0.5H219h-0.5H218h-0.5H217h-0.5H216h-0.5H215h-0.5H214h-0.5H213h-0.5H212h-0.5H211h-0.5
	H210h-0.5H209h-0.5H208h-0.5H207h-0.5H206h-0.5H205h-0.5H204h-0.5H203h-0.5H202h-0.5H201h-0.5H200h-0.5H199h-0.5H198h-0.5H197h-0.5
	H196h-0.5H195h-0.5H194h-0.5H193h-0.5H192h-0.5H191h-0.5H190h-0.5H189h-0.5H188h-0.5H187h-0.5H186h-0.5H185h-0.5H184h-0.5H183h-0.5
	H182h-0.5H181h-0.5H180h-0.5H179h-0.5"/>
<path class="st3" d="M0,14"/>
<path class="st3" d="M0,14"/>
<path class="st4" d="M38.5,137v4.5"/>
<path class="st4" d="M73.5,137v4.5"/>
<path class="st4" d="M108.5,63.4v78.1"/>
<path class="st4" d="M143.5,137v4.5"/>
<path class="st4" d="M248.5,137v4.5"/>
<path class="st4" d="M213.5,120.8V137"/>
<path class="st4" d="M178.5,64.4V137h70v-1.3"/>
<path class="st4" d="M143.5,17.3c0,19.9,0,39.8,0,59.7c0,4.1,0,8.2,0,12.3c0,1.4,0,2.7,0,4.1c0,4.6,0,9.2,0,13.8
	c0,9.9,0,29.8,0,29.8s-14,0-21,0"/>
<path class="st4" d="M73.5,120.8V137"/>
<rect x="102.5" y="147.5" class="st3" width="17.7" height="8.9"/>
<text transform="matrix(1 0 0 1 102.4999 156.0518)" class="st5 st6">-1σ</text>
<path class="st4" d="M139.1,163.1"/>
<path class="st4" d="M178.1,173.1"/>
<path class="st4" d="M134.7,160.6"/>
<rect x="171.6" y="147.1" class="st3" width="17.7" height="8.9"/>
<text transform="matrix(1 0 0 1 171.5903 155.6354)" class="st5 st6">1σ</text>
<rect x="206.1" y="147.1" class="st3" width="17.7" height="8.9"/>
<text transform="matrix(1 0 0 1 206.0942 155.6354)" class="st5 st6">2σ</text>
<rect x="241.2" y="147.1" class="st3" width="17.7" height="8.9"/>
<text transform="matrix(1 0 0 1 241.16 155.6354)" class="st5 st6">3σ</text>
<rect x="64.7" y="147.1" class="st3" width="17.7" height="8.9"/>
<text transform="matrix(1 0 0 1 64.6648 155.6354)" class="st5 st6">-2σ</text>
<rect x="31.7" y="147.5" class="st3" width="17.7" height="8.9"/>
<text transform="matrix(1 0 0 1 31.7205 156.0518)" class="st5 st6">-3σ</text>
<polygon class="st7" points="181.7,72.9 189.1,86 199.5,104.5 211.1,118.1 223.1,127.9 233.6,132.6 247.6,135.6 250.1,135.8 
	250.2,135.1 241.7,136.3 216.1,137 200.1,137 178.1,137 178,117.4 178,66.8 179.3,68.9 "/>
<polygon class="st8" points="181.1,59.4 188.6,72.5 198.9,91 210.5,104.7 222.5,114.4 233,119.1 247,122.1 249.5,122.4 249.6,121.6 
	241.1,122.8 215.5,123.5 199.5,123.5 177.5,123.5 177.4,103.9 177.4,53.4 178.7,55.5 "/>
<path class="st4" d="M202.6,57.3"/>
<path class="st4" d="M178.5,63.4v78.1"/>
<path class="st4" d="M213.5,119.9v21.6"/>
<path class="st9" d="M21,136.7l0.5,0l0.5,0l0.5,0l0.5,0l0.5,0l0.5,0l0.5,0l0.5,0l0.5,0l0.5,0l0.5,0l0.5,0l0.5,0l0.5,0l0.5,0l0.5,0
	l0.5,0l0.5,0l0.5,0l0.5,0l0.5,0l0.5,0l0.5,0l0.5,0l0.5,0l0.5,0l0.5,0l0.5,0l0.5,0l0.5,0l0.5,0l0.5-0.1l0.5-0.1l0.5-0.1l0.5-0.1
	l0.5-0.1l0.5-0.1l0.5-0.1l0.5-0.1l0.5-0.1l0.5-0.1l0.5-0.1l0.5-0.1l0.5-0.1l0.5-0.1l0.5-0.1l0.5-0.1l0.5-0.1l0.5-0.1l0.5-0.1
	l0.5-0.1l0.5-0.1l0.5-0.1l0.5-0.1l0.5-0.1l0.5-0.1l0.5-0.1l0.5-0.1l0.5-0.1l0.5-0.1l0.5-0.1l0.5-0.1l0.5-0.1l0.5-0.2l0.5-0.2
	l0.5-0.2l0.5-0.2l0.5-0.2l0.5-0.2l0.5-0.2l0.5-0.2l0.5-0.2l0.5-0.2l0.5-0.2l0.5-0.2l0.5-0.2l0.5-0.2L60,130l0.5-0.2l0.5-0.2l0.5-0.3
	L62,129l0.5-0.3l0.5-0.3l0.5-0.3l0.5-0.3l0.5-0.3l0.5-0.3l0.5-0.3l0.5-0.3l0.5-0.3L67,126l0.5-0.3l0.5-0.4l0.5-0.4l0.5-0.4l0.5-0.4
	l0.5-0.4l0.5-0.4L71,123l0.5-0.4l0.5-0.4l0.5-0.4l0.5-0.4l0.5-0.5l0.5-0.5l0.5-0.5l0.5-0.5l0.5-0.5l0.5-0.5l0.5-0.5l0.5-0.5l0.5-0.5
	l0.5-0.6l0.5-0.6l0.5-0.6l0.5-0.6l0.5-0.6l0.5-0.6l0.5-0.6l0.5-0.6l0.5-0.6l0.5-0.6l0.5-0.7l0.5-0.7l0.5-0.7l0.5-0.7l0.5-0.7
	l0.5-0.7L86,106l0.5-0.7l0.5-0.7l0.5-0.8L88,103l0.5-0.8l0.5-0.8l0.5-0.8l0.5-0.8l0.5-0.8l0.5-0.8l0.5-0.8l0.5-0.8l0.5-0.9l0.5-0.9
	l0.5-0.9L94,93l0.5-0.9l0.5-0.9l0.5-0.9l0.5-0.9l0.5-0.9l0.5-0.9l0.5-0.9l0.5-1l0.5-1l0.5-1l0.5-1l0.5-1l0.5-1l0.5-1l0.5-1l0.5-1
	l0.5-1l0.5-1l0.5-1l0.5-1l0.5-1l0.5-1l0.5-1l0.5-1l0.5-1l0.5-1l0.5-1l0.5-1l0.5-1l0.5-1l0.5-1l0.5-1l0.5-1l0.5-1l0.5-1l0.5-1l0.5-1
	l0.5-1l0.5-1l0.5-1l0.5-1l0.5-1l0.5-1l0.5-1l0.5-1l0.5-1l0.5-1l0.5-1l0.5-1l0.5-0.9l0.5-0.9l0.5-0.9l0.5-0.9l0.5-0.9l0.5-0.9
	l0.5-0.9l0.5-0.9l0.5-0.9l0.5-0.8l0.5-0.8l0.5-0.8l0.5-0.8l0.5-0.8l0.5-0.8l0.5-0.7l0.5-0.7l0.5-0.7l0.5-0.7l0.5-0.7l0.5-0.7
	l0.5-0.6l0.5-0.6l0.5-0.6l0.5-0.6l0.5-0.6l0.5-0.5l0.5-0.5l0.5-0.5l0.5-0.5l0.5-0.5l0.5-0.4l0.5-0.4l0.5-0.4L136,20l0.5-0.3l0.5-0.3
	l0.5-0.3l0.5-0.3l0.5-0.3l0.5-0.2l0.5-0.2l0.5-0.2l0.5-0.2l0.5-0.1l0.5-0.1l0.5-0.1l0.5-0.1l0.5,0l0.5,0l0.5,0l0.5,0l0.5,0.1
	l0.5,0.1l0.5,0.1l0.5,0.1l0.5,0.2l0.5,0.2l0.5,0.2l0.5,0.2l0.5,0.3l0.5,0.3l0.5,0.3l0.5,0.3L151,20l0.5,0.4l0.5,0.4l0.5,0.4l0.5,0.4
	l0.5,0.5l0.5,0.5l0.5,0.5l0.5,0.5l0.5,0.5l0.5,0.6l0.5,0.6l0.5,0.6l0.5,0.6l0.5,0.6l0.5,0.7l0.5,0.7l0.5,0.7l0.5,0.7l0.5,0.7
	l0.5,0.7l0.5,0.8l0.5,0.8l0.5,0.8l0.5,0.8l0.5,0.8l0.5,0.8l0.5,0.9l0.5,0.9l0.5,0.9l0.5,0.9l0.5,0.9l0.5,0.9l0.5,0.9l0.5,0.9
	l0.5,0.9l0.5,1l0.5,1l0.5,1l0.5,1l0.5,1l0.5,1l0.5,1l0.5,1l0.5,1l0.5,1l0.5,1l0.5,1l0.5,1l0.5,1l0.5,1l0.5,1l0.5,1l0.5,1l0.5,1
	l0.5,1l0.5,1l0.5,1l0.5,1l0.5,1l0.5,1l0.5,1l0.5,1l0.5,1l0.5,1l0.5,1l0.5,1l0.5,1l0.5,1l0.5,1l0.5,1l0.5,1l0.5,1l0.5,1l0.5,1l0.5,1
	l0.5,1l0.5,1l0.5,0.9l0.5,0.9l0.5,0.9l0.5,0.9l0.5,0.9l0.5,0.9L193,93l0.5,0.9l0.5,0.9l0.5,0.9l0.5,0.9l0.5,0.8l0.5,0.8l0.5,0.8
	l0.5,0.8l0.5,0.8l0.5,0.8l0.5,0.8l0.5,0.8l0.5,0.8l0.5,0.8l0.5,0.7l0.5,0.7l0.5,0.7l0.5,0.7l0.5,0.7l0.5,0.7l0.5,0.7l0.5,0.7
	l0.5,0.7l0.5,0.6l0.5,0.6l0.5,0.6l0.5,0.6l0.5,0.6l0.5,0.6l0.5,0.6l0.5,0.6l0.5,0.6l0.5,0.6l0.5,0.5l0.5,0.5l0.5,0.5l0.5,0.5
	l0.5,0.5l0.5,0.5l0.5,0.5l0.5,0.5l0.5,0.5l0.5,0.4l0.5,0.4l0.5,0.4l0.5,0.4l0.5,0.4l0.5,0.4l0.5,0.4l0.5,0.4l0.5,0.4l0.5,0.4
	l0.5,0.4l0.5,0.3l0.5,0.3l0.5,0.3l0.5,0.3l0.5,0.3l0.5,0.3l0.5,0.3l0.5,0.3l0.5,0.3l0.5,0.3l0.5,0.3l0.5,0.3l0.5,0.3l0.5,0.2
	l0.5,0.2l0.5,0.2l0.5,0.2l0.5,0.2l0.5,0.2l0.5,0.2l0.5,0.2l0.5,0.2l0.5,0.2l0.5,0.2l0.5,0.2l0.5,0.2l0.5,0.2l0.5,0.2l0.5,0.2
	l0.5,0.2l0.5,0.1l0.5,0.1l0.5,0.1l0.5,0.1l0.5,0.1l0.5,0.1l0.5,0.1l0.5,0.1l0.5,0.1l0.5,0.1l0.5,0.1l0.5,0.1l0.5,0.1l0.5,0.1
	l0.5,0.1l0.5,0.1l0.5,0.1l0.5,0.1l0.5,0.1l0.5,0.1l0.5,0.1l0.5,0.1l0.5,0.1l0.5,0.1l0.5,0.1l0.5,0.1l0.5,0.1l0.5,0.1l0.5,0.1
	l0.5,0.1l0.5,0.1l0.5,0.1l0.5,0l0.5,0l0.5,0l0.5,0l0.5,0l0.5,0l0.5,0l0.5,0l0.5,0l0.5,0l0.5,0l0.5,0l0.5,0l0.5,0l0.5,0l0.5,0l0.5,0
	l0.5,0l0.5,0l0.5,0l0.5,0l0.5,0l0.5,0l0.5,0l0.5,0l0.5,0l0.5,0l0.5,0l0.5,0l0.5,0l0.5,0"/>
<path class="st10" d="M21,137h245"/>
</svg>
