<?xml version="1.0" encoding="utf-8"?>
<!-- Generator: Adobe Illustrator 25.1.0, SVG Export Plug-In . SVG Version: 6.00 Build 0)  -->
<svg version="1.1" id="Layer_1" xmlns="http://www.w3.org/2000/svg" xmlns:xlink="http://www.w3.org/1999/xlink" x="0px" y="0px"
	 viewBox="0 0 180 50" style="enable-background:new 0 0 180 50;" xml:space="preserve">
<style type="text/css">
	.st0{fill:#BCB8B7;}
	.st1{fill:none;}
	.st2{fill:#52C9F4;}
	.st3{fill:#60818A;}
	.st4{fill:#F0923A;}
	.st5{fill:#AB7C4E;}
	.st6{fill:#6D655D;}
	.st7{fill:#4EB8DF;}
	.st8{fill:#647E85;}
	.st9{fill:#5B95A9;}
	.st10{fill:#677272;}
	.st11{fill:#856D58;}
	.st12{fill:#52A7CB;}
	.st13{fill:#6DA1B8;}
	.st14{fill:#7D8180;}
	.st15{fill:#283437;}
	.st16{fill:#998A7A;}
	.st17{fill:#272C2C;}
	.st18{fill:#70BEDD;}
	.st19{fill:#8A725D;}
	.st20{fill:#599EB8;}
	.st21{fill:#113B48;}
	.st22{fill:#A17954;}
	.st23{fill:#677E83;}
	.st24{fill:#F0963E;}
	.st25{fill:#657B7F;}
	.st26{fill:#818F91;}
	.st27{fill:#9F7750;}
	.st28{fill:#AA8A6E;}
	.st29{fill:#6C431C;}
	.st30{fill:#DD9E62;}
	.st31{fill:#F09138;}
	.st32{fill:#667D83;}
	.st33{fill:#687373;}
	.st34{fill:#4FC7F3;}
	.st35{fill:#836C57;}
	.st36{fill:#647A7E;}
	.st37{fill:#4FC9F5;}
	.st38{fill:#FFFFFF;stroke:#010101;stroke-miterlimit:10;}
	.st39{font-family:'SegoeUI-Semibold';}
	.st40{font-size:33.7336px;}
</style>
<path class="st0" d="M50.3,24.4C50.1,54,5.1,54,5,24.4C5.1-5.3,50.1-5.2,50.3,24.4z"/>
<rect x="-4.2" y="-7.5" class="st1" width="65" height="65"/>
<g>
	<g>
		<path class="st2" d="M28.9,41.3c-0.1,0.6-0.3,1.1-0.4,1.7c-0.1,0.4,0.4,1.3,0.7,1.6c0.7,0.5,1.4,0.5,2.2,0.3
			c0.9-0.2,1.9-0.3,2.9-0.4c0.4,0,0.6-0.1,0.7-0.5c0.1-0.2,0.2-0.4,0.2-0.5c0.9,0,1.8,0,2.7,0c0.5,0,0.9-0.4,0.8-1
			c0-0.3-0.1-0.6-0.1-0.9c0-0.1,0-0.2,0-0.2c0.6-0.7,1.1-1.6,1.9-2.1c0.1-0.1,0.3-0.2,0.4-0.2c0.7,0.1,1.1-0.2,1.6-0.6
			c0.4-0.4,0.9-0.8,1.4-1.1c0.7-0.4,1.5-0.7,2.2-1c0.1,0,0.4,0.3,0.7,0.5c-0.5,0.4-0.8,0.8-1.3,1.1c-0.5,0.4-0.4,0.9-0.6,1.4
			c0.2,0,0.3-0.1,0.4-0.1c0.6,0.4,1.1,0.1,1.6,0c0.2,0,0.4-0.1,0.7-0.1c0,0.4,0,0.7-0.1,1.1c-0.1,0.4,0.2,0.7,0.6,0.7
			c0.6,0,1.1,0,1.7-0.1c0.5,0,0.9,0,1.3,0.2c0.6,0.3,1.2,0.3,1.8,0.1c0.3-0.1,0.5-0.2,0.7,0.2c0,0.1,0.2,0.1,0.3,0.1
			c0.3,0,0.7,0,1,0c0.5,0,0.7-0.3,0.6-0.8c-0.1-0.5-0.2-0.9-0.2-1.4c0-0.3-0.1-0.5-0.4-0.5c-0.3,0-0.6-0.1-0.9-0.2c0,0,0-0.1,0-0.1
			c0.3-0.3,0.7-0.5,0.5-1c-0.1-0.4-0.1-0.8-0.4-1.1c-0.4-0.7-1-1.3-1.8-1.6c-0.1,0-0.2-0.2-0.3-0.3c-0.2-0.4-0.4-0.8-0.6-1.3
			c0.1,0,0.3-0.1,0.4-0.1c0,0,0-0.1,0-0.1c-0.6-0.6-0.8-1.3-0.5-2.1c0.1-0.3,0-0.6-0.1-1c-0.3-1-0.6-1.9-1-2.9
			c0.3-0.1,0.5-0.2,0.8-0.3c-0.2-0.3-0.3-0.7-0.5-1c0.1,0,0.2-0.1,0.3-0.1c-0.5-0.6-0.8-1.2-1.4-1.7c-0.3-0.2-0.8-0.2-1.3-0.3
			c-1.6-0.2-3.1-0.5-4.5-1.3c-0.5-0.3-1.1-0.1-1.5,0.2c-0.6,0.4-1,0.9-1.5,1.3c-0.1,0-0.2,0.1-0.4,0.1c-0.6,0-1.1,0-1.7-0.1
			c-0.5-0.1-1.1-0.1-1.6-0.2c-1.2-0.3-2.2-1-3.2-1.6c-0.2,0-0.3,0-0.5,0c-0.5,0-0.9,0.1-1.3,0.4c-0.7,0.5-1.3,1.2-2.1,1.3
			c-0.2,0.4-0.3,0.7-0.5,1c-0.2,0.4-0.5,0.8-0.8,1.2c0.1,0.3,0.1,0.7,0.2,0.9c0.2,0.5,0,0.8-0.3,1.2c-0.1,0.1-0.2,0.1-0.3,0.2
			c-0.1,0.1-0.1,0.3-0.1,0.3c0.3,0.4,0.6,0.7,0.8,1.1c0.2,0,0.5,0,0.5,0c0.1,0.3,0.1,0.5,0.1,0.8c0,0.1,0.1,0.2,0.1,0.4
			c0,0.9,0.1,1.7,0.1,2.6c0,0.7,0,1.3,0.1,2c0,0.2,0.2,0.5,0.1,0.7c-0.1,0.6-0.2,1.2-0.3,1.8c-0.1,0.4-0.2,0.8-0.4,1.3
			C29.3,40,29.1,40.7,28.9,41.3z"/>
		<path class="st2" d="M11.4,36.2c0.5,0.1,0.9,0.3,1.4,0.3c0.7,0,1,0.5,1.4,0.9c0.7,0.7,1.4,1.4,2.1,2.1c0.7,0.6,1.4,1.2,2.1,1.8
			c0.6,0.6,1.3,0.8,2,1.2c0.6,0.3,1.3,0.4,1.9,0.3c1.2-0.1,2.4,0.2,3.6,0.5c0.3,0.1,0.5,0,0.7-0.2c0.2-0.3,0.5-0.5,0.8-0.8
			c0,0,0,0,0.1,0c0,0,0,0,0,0c0.1,0,0.1-0.1,0.2-0.1l0,0c0.3-0.4,0.6-0.8,1-1.2c0.5-0.5,0.6-1,0.6-1.7c0-0.6-0.1-1.2-0.2-1.9
			c0-0.1,0.1-0.2,0.1-0.3c0.2-0.2,0.5-0.3,0.6-0.4c0-0.2,0-0.4,0-0.5c0-0.1,0.1-0.1,0.1-0.2l0,0c0-0.1-0.1-0.1-0.1-0.2l0,0
			c0,0-0.1-0.1-0.1-0.1c0,0,0,0,0,0c0,0-0.1-0.1-0.1-0.1c0,0,0,0,0,0c0,0-0.1-0.1-0.1-0.1c0,0,0,0,0,0c0,0-0.1-0.1-0.1-0.1l0,0
			c0,0-0.1-0.1-0.1-0.1l0,0c0,0-0.1-0.1-0.1-0.1c0,0,0,0,0,0c0-0.1-0.1-0.2-0.1-0.4c0-1,0-1.9,0-2.9c0-0.1,0-0.1,0-0.2
			c-0.1-0.4-0.1-0.9-0.2-1.3c0,0,0.1-0.1,0.1-0.2c0,0,0,0,0-0.1c-0.2-0.1-0.4-0.1-0.6-0.2c-0.5-0.3-1-0.7-1.5-1.1
			c-0.1-0.1-0.2-0.3-0.2-0.4c0.2-0.3,0-0.5-0.2-0.7c-0.2-0.2-0.4-0.4-0.2-0.7c0.4-0.7-0.1-1.2-0.5-1.7c0.1,0.6,0.1,1.2,0.2,1.8
			c-0.3,0.1-0.5,0.1-0.7,0.2c-0.1,0.3-0.1,0.6-0.2,1c-0.4-0.5-0.8-0.8-1.4-0.6c0.2,0.2,0.3,0.5,0.5,0.8c-0.3,0-0.4,0.5-0.7,0.1
			c-0.5-0.5-0.9-1-1.4-1.6c0.3-0.2,0.5-0.4,0.8-0.6c-0.2-0.2-0.6-0.4-0.7-0.6c-0.1-0.5,0-1.1-0.3-1.6c-0.2-0.4,0.3-0.6,0.5-0.9
			c0,0,0,0,0,0c0-0.1-0.1-0.1-0.1-0.2c0,0,0,0,0,0c0,0-0.1-0.1-0.1-0.1c0,0,0,0,0,0c0,0-0.1-0.1-0.1-0.1c0,0-0.1,0-0.1,0
			c-0.1,0-0.2,0-0.3-0.1c0,0-0.1,0-0.1,0c-0.1,0-0.2,0-0.3-0.1l0,0c0-0.3,0-0.6-0.1-0.8c0-0.1,0-0.1,0-0.2c0-0.2-0.1-0.3-0.1-0.5
			c0-0.4-0.1-0.8-0.1-1.2c-0.6,0-1.2,0-1.7,0c0.2,1.4,0.4,2.8,0.6,4.1c0,0.1,0,0.2-0.1,0.3c-0.4,1-0.9,2-1.6,2.8
			c-0.2,0.3-0.5,0.6-0.9,0.4c-0.1,0-0.1,0.1-0.2,0.1c-0.1,0.1-0.2,0.2-0.3,0.2c-0.3,0-0.7,0-1,0c-0.3,0-0.4-0.1-0.4-0.4
			c0-1.1,0-2.2,0-3.3c0-0.1,0-0.2,0-0.3c0.2,0,0.4,0,0.7,0c0-0.9,0.1-1.7,0.1-2.6c0.2,0,0.4,0,0.7,0c0-0.5,0-0.9,0-1.3
			c0.8,0,1.5,0,2.3,0c0-0.1-0.1-0.2-0.1-0.3c-0.5-0.8-1-1.6-1.7-2.2c-0.6-0.6-1-1.2-1.2-1.9c-0.1,0-0.2-0.1-0.3-0.1
			c-0.5,0-1.1-0.1-1.3,0.6c0,0,0,0-0.1,0c-0.1-0.2-0.3-0.4-0.5-0.6c-0.3,0.3-0.1,0.9-0.7,0.9c0,0.3,0,0.6,0,0.9c-0.6,0-1.2,0-1.7,0
			c0,0.6,0,1.2,0,1.8c-0.1-0.1-0.2-0.1-0.2-0.1c-0.3-0.3-0.6-0.3-1-0.1c-0.6,0.3-1.6-0.2-1.7-1c-0.1,0-0.2,0-0.4,0
			c0.1,0.3,0.1,0.5,0.1,0.7c-0.5,0.2-0.6,0.5-0.4,1.1c0.1,0.3,0.2,0.6,0.3,0.9c-0.3,0-0.6-0.1-0.9-0.1c-0.1,0.4-0.1,1-0.2,1.5
			c-0.3-0.3-0.5-0.8-1-0.6c0.4,0.6,0.7,1.3,1.1,1.9c0.1,0.1,0.2,0.1,0.3,0.1C8.4,23.9,8.7,24,9,24.1c0.1,0,0.3,0.2,0.4,0.2
			c-0.1,0.1-0.2,0.3-0.3,0.4c-0.4,0.2-0.4,0.5-0.5,0.8c-0.1,0.7-0.7,1-1.4,0.9c-0.7-0.1-1.4-0.5-2-0.8c-0.2-0.1-0.5-0.2-0.8-0.4
			c0,0.4,0,0.7,0.1,1c0.2,0.8-0.2,1.5-0.7,2c-0.3,0.4-0.7,0.6-1.2,0.5c-0.1,0-0.3,0.1-0.4,0.2c-0.3,0.3-0.6,0.7-0.9,1.1
			C2,31,2.6,31.9,3.2,32.7C3.5,33,4,33.3,4.5,33.5c0.4,0.2,0.6,0.5,0.7,0.9c0.1,0.3,0.2,0.4,0.5,0.5c0.2,0,0.4,0.1,0.6,0.2
			c0.8,0.3,1.6,0.5,2.5,0.2c0.6-0.2,1,0.3,1.5,0.4C10.6,35.9,10.9,36,11.4,36.2c0.1-0.5,0.3-1,0.5-1.5c0-0.1,0.1-0.1,0.2-0.2
			c0.1-0.1,0.1-0.2,0.2-0.3c0,0,0.1,0.1,0.1,0.1c-0.1,0.1-0.2,0.1-0.3,0.2C11.8,35.1,11.6,35.6,11.4,36.2z M18.2,29
			C18.2,29.1,18.2,29.1,18.2,29c-0.1,0.1-0.2,0.2-0.3,0.3c-0.1,0.1-0.2,0.2-0.3,0.3c-0.1,0.1-0.2,0.2-0.3,0.3
			c-0.1,0-0.2,0.1-0.3,0.1c-0.1,0.1-0.2,0.2-0.3,0.3c-0.1,0-0.2,0.1-0.3,0.1c-0.1,0.1-0.2,0.2-0.3,0.3c-0.1,0-0.1,0.1-0.2,0.1
			c0,0,0-0.1,0-0.1c0.1,0,0.2,0,0.2,0c0.1-0.1,0.2-0.2,0.3-0.3c0.1,0,0.2-0.1,0.3-0.1c0.1-0.1,0.2-0.2,0.3-0.3
			c0.1,0,0.2-0.1,0.3-0.1c0.1-0.1,0.2-0.2,0.3-0.3c0.1-0.1,0.2-0.2,0.3-0.3C18,29.2,18.1,29.2,18.2,29C18.2,29.1,18.2,29.1,18.2,29
			c0-0.1,0.1-0.1,0.1-0.2c0-0.2,0-0.3,0-0.5c0.1,0,0.1,0,0.2,0c0,0.2-0.1,0.3-0.1,0.5C18.3,28.9,18.2,29,18.2,29z M14.2,31.9
			c0.2-0.1,0.3-0.2,0.5-0.3c0.4-0.3,0.8-0.6,1.2-0.9c0,0.1,0.1,0.1,0.1,0.2c-0.4,0.3-0.9,0.5-1.3,0.8C14.5,31.7,14.4,31.8,14.2,31.9
			c-0.2,0.3-0.5,0.7-0.7,1c-0.1,0.2-0.2,0.4-0.2,0.6c0,0-0.1-0.1-0.1-0.1c0.1-0.2,0.3-0.3,0.4-0.5C13.6,32.6,13.6,32.1,14.2,31.9z
			 M23.2,33.7c0,0.3,0,0.6,0,0.9c-0.3-0.1-0.5-0.2-0.8-0.3c0-0.1,0-0.3,0.1-0.5c0,0,0,0,0.1,0c0,0.1-0.1,0.3-0.1,0.4
			c0,0,0.1,0.1,0.1,0.1C22.7,34.2,22.9,34,23.2,33.7z M11.5,26.6c-0.2-0.8-0.2-0.8,0.1-0.9C11.6,26.4,11.6,26.6,11.5,26.6z
			 M27.6,30.8c0.3-0.2-0.1-0.6,0.4-0.7c0,0.3,0,0.5,0,0.7C27.9,30.8,27.8,30.8,27.6,30.8z M12.9,33.7c0,0,0,0.1,0.1,0.1
			c-0.1,0.1-0.2,0.1-0.3,0.2c0,0,0-0.1-0.1-0.1C12.7,33.8,12.8,33.8,12.9,33.7z"/>
		<path class="st3" d="M34,22.3c1,0.7,2,1.3,3.2,1.6c0.5,0.1,1.1,0.2,1.6,0.2c0.5,0.1,1.1,0.1,1.7,0.1c0.1,0,0.2,0,0.4-0.1
			c-0.1-0.3,0-0.6,0.3-0.8c0.3-0.2,0.5-0.5,0.7-0.8c0.5-0.7,1.2-0.7,2-0.6c0.3,0,0.6,0.1,1,0.2c-0.7-0.9-1-1.9-1.1-2.9
			c0.7,0,1.5,0,2.2,0c0.5,0,0.7-0.2,0.9-0.6c0.4-0.8,0.1-1.6,0-2.4c-0.1-1-0.5-1.9-0.9-2.8c-0.1-0.3-0.1-0.6-0.1-0.9
			c0-1.3,0.1-2.6,0.2-3.9c-1.2,0.1-2.3-0.3-3.4,0.5c-0.1,0.1-0.3,0.1-0.4,0.2c-0.7,0.5-1.4,0.5-2.1,0.1c-0.6-0.4-1.3-0.5-2-0.1
			c0,0.8-0.7,1-1.2,1.4c-0.5,0.4-1,0.8-1.5,1.2c0.3,0.9,0.7,1.9,1,2.8c0,0.1,0,0.2,0,0.4C35.6,17.4,34.8,19.8,34,22.3z M40.5,15.9
			c0,0.1,0,0.1,0,0.2c-0.2,0.1-0.3,0.2-0.5,0.3c-0.2,0.1-0.4-0.1-0.4-0.3c0-0.2,0.2-0.4,0.3-0.4C40.2,15.6,40.4,15.8,40.5,15.9z
			 M41.5,15.4c-0.1,0.1-0.1,0.2-0.2,0.3c0,0,0.1,0,0.1,0c0.1,0.2,0.2,0.3,0.2,0.5c0,0.1-0.2,0.2-0.4,0.2c-0.1,0-0.2-0.2-0.3-0.3
			C40.9,15.7,41,15.4,41.5,15.4z M41.7,15.7c0.3-0.1,0.5-0.1,0.5,0.2c0.1,0.6,0,0.6-0.5,0.7C42,16.3,42,15.9,41.7,15.7z"/>
		<path class="st4" d="M34,22.3c0.8-2.4,1.6-4.9,2.4-7.3c0-0.1,0.1-0.3,0-0.4c-0.3-0.9-0.6-1.9-1-2.8c-0.8,0.5-1.6,1-2.4,1.5
			c-0.6,0.4-1.1,0.9-1.7,1.3c-0.4,0.3-0.7,0.6-1.1,0.9c-0.2,0.2-0.4,0.4-0.6,0.5c0,0.1-0.1,0.1-0.1,0.2l0,0c0,0.1-0.1,0.1-0.1,0.2
			l0,0c0,0.1-0.1,0.2-0.1,0.3c0,0,0,0,0,0c-0.1,0.7-0.4,1.2-1.1,1.5c-0.6,0.3-1.2,0.7-1.8,1c0,0.5,0,0.9,0,1.3c0,0,0,0,0,0.1
			c0,0,0,0.1,0,0.1c0,0,0,0,0,0.1c0.3,0.5,0.7,1,1,1.5l0,0c0.1,0.1,0.1,0.2,0.2,0.3l0,0c0.1,0.1,0.1,0.2,0.2,0.3l0,0
			c0.1,0.2,0.2,0.3,0.3,0.5c0.1,0.1,0.2,0.2,0.4,0.3c-0.2,0-0.3,0-0.3,0c0.1,0.1,0.2,0.2,0.3,0.2c-0.2,0.2-0.4,0.4-0.6,0.6
			c0-0.4-0.8-0.8,0.2-0.9c0-0.1,0-0.2,0-0.2c-0.1-0.1-0.2-0.1-0.2-0.2c0,0-0.1,0-0.1,0c-0.1,0-0.1,0.1-0.2,0.1c0,0-0.1,0-0.1,0
			c-0.3,0-0.6,0.1-1,0.1c0,0.2,0.1,0.4,0.1,0.6c0,0.2,0,0.4,0.1,0.6c0.1,0.4,0.3,0.7,0.4,1.1c0,0.1,0.1,0.3,0.2,0.3
			c0.4,0.1,0.8,0.2,1.2,0.3c0.3-0.4,0.5-0.8,0.8-1.2c0.2-0.3,0.3-0.6,0.5-1c0.8-0.2,1.4-0.8,2.1-1.3c0.4-0.3,0.8-0.4,1.3-0.4
			C33.6,22.3,33.8,22.3,34,22.3z M32.3,18.2c0.1-0.3,0.2-0.4,0.3-0.6c0.1,0.2,0.1,0.4,0.2,0.6c0.1-0.1,0.2-0.2,0.2-0.2
			c0.1,0.3,0.1,0.2-0.2,0.3c-0.2,0.1-0.5,0.2-0.7,0.3c-0.4-0.5-0.9,0.1-1.4-0.2c0.1-0.1,0.2-0.2,0.3-0.3c0.3,0.1,0.6,0.2,0.7,0.1
			c0.2-0.1,0.3-0.4,0.5-0.6C32.2,17.8,32.2,18,32.3,18.2z"/>
		<path class="st5" d="M26.7,20.6C26.7,20.6,26.7,20.6,26.7,20.6c-0.1-0.5-0.1-0.9-0.2-1.4c0.4-0.2,0.9-0.5,1.4-0.8
			c0.6-0.3,1.2-0.7,1.4-1.4c-0.8-0.2-1.7,0.5-2.3-0.5c-0.1,0.2-0.2,0.3-0.3,0.4c-0.1,0.2-0.3,0.2-0.4,0c-0.2-0.5-0.5-0.4-0.9-0.3
			c-0.4,0.1-0.6-0.1-0.8-0.5c-0.1-0.3-0.2-0.6-0.3-0.9c-0.1-0.4-0.2-0.7-0.3-1.2c0.3,0.1,0.5,0.2,0.8,0.3c0-0.2-0.1-0.3-0.1-0.4
			c0.1-0.1,0.2-0.1,0.3-0.2c0.3,0,0.6,0,0.9,0c0.6,0,0.6,0,0.4-0.6c0-0.1,0-0.2-0.1-0.3c-0.3,0-0.6,0-0.7-0.4c0-0.4,0.3-0.3,0.5-0.5
			c0.2-0.2,0.3-0.3,0.6-0.5c-0.5-0.2-0.8-0.3-1.2-0.5c0,0,0,0-0.1,0c-0.1,0-0.2-0.1-0.3-0.1c0,0,0,0-0.1,0c-0.1,0-0.2-0.1-0.3-0.1
			c0,0,0,0-0.1,0c-0.1,0-0.2-0.1-0.3-0.1c-0.1,0-0.1-0.1-0.2-0.1c-0.1-0.1-0.2-0.2-0.4-0.3c0,0,0,0,0,0c-0.1-0.1-0.1-0.1-0.2-0.2
			l0,0c-0.2-0.1-0.3-0.3-0.5-0.4c0,0,0,0,0,0c-0.3,0.2-0.6,0.4-0.8,0.6c-0.3,0.4-0.6,0.5-1.1,0.3c0,0.1,0,0.2,0,0.3
			c0,0.1,0,0.3,0,0.4c-0.1,0-0.2,0.1-0.3,0.1c-1,0-2,0-2.9,0c-0.2,0-0.3-0.1-0.5-0.2c-0.2,0.1-0.4,0.2-0.7,0.2c0,1,0,2,0,3
			c0,0.1,0.1,0.3,0.2,0.4c0.5,0.3,1,0.6,1.4,1c0.1,0.1,0.2,0.3,0.2,0.4c0,0.1-0.2,0.2-0.3,0.3c0.2,0.1,0.3,0.3,0.5,0.4
			c1.1,0.6,2.1,1.2,3.2,1.8c0.2,0,0.3,0,0.5,0.1c0.2,0,0.3,0.1,0.5,0.1c0.9,0.2,1.8,0.4,2.6,1.1C25.9,20.3,26.3,20.4,26.7,20.6
			C26.6,20.6,26.7,20.6,26.7,20.6z M22,14.9c-0.2,0-0.3,0-0.4,0c0-0.3,0-0.5,0-0.7C22.1,14.2,21.8,14.6,22,14.9z"/>
		<path class="st6" d="M26.9,5.3c0,0.1,0,0.3,0,0.4C26.9,5.9,27,6,27,6.2c0,1.3,0,2.6-0.1,3.8c0,0.1,0,0.2-0.1,0.3
			c-0.2,0.2-0.4,0.4-0.5,0.6c0.2,0.1,0.3,0.2,0.5,0.4c0,0.4-0.2,0.6-0.6,0.8c-0.1,0.1-0.2,0.2-0.3,0.3c0.1,0.1,0.2,0.1,0.3,0.2
			c0.1,0.1,0.3,0.2,0.3,0.3c0.1,0.2,0.1,0.4,0.2,0.6c0.1,0.1,0.3,0.3,0.4,0.3c0.7,0,1.4,0,2.1,0c0.3,0,0.3-0.1,0.3-0.3
			c0-0.2-0.1-0.4-0.1-0.5c0-0.4,0-0.8,0-1.2c-0.1-0.4-0.1-0.8,0.2-1.1c0.2-0.5,0.3-1.1,0.5-1.6c0.2-0.6,0.2-1.1-0.4-1.5
			c-0.9-0.7-1.8-1.5-2.6-2.2C27,5.3,27,5.3,26.9,5.3z M28,10C28,10.1,28,10.1,28,10c-0.2-0.1-0.3-0.2-0.3-0.3c0-0.1,0.1-0.2,0.2-0.3
			c0,0,0,0,0.1,0C28,9.6,28,9.8,28,10z M28.2,10c0-0.2,0-0.4,0-0.6C28.6,9.7,28.6,9.8,28.2,10z"/>
		<path class="st7" d="M16.4,9.3c-0.6-0.8-1.2-1.5-2.2-1.9c-0.7-0.2-1.3-0.5-1.9-0.8c-0.3-0.2-0.6-0.5-0.9-0.8
			c-0.1,0.3-0.2,0.7-0.3,1c0,0.9,0.1,1.8,0.1,2.6c0,0.1-0.1,0.3-0.2,0.4c0,0-0.1,0-0.1,0c0,0.1,0.1,0.2,0.1,0.3
			c-0.1,0.1-0.2,0.2-0.3,0.2c0.1,0.4,0.2,0.8,0.2,1.2c0,0,0,0.1,0,0.1c0.1,0.1,0.2,0.1,0.2,0.2c0,0,0.1,0.1,0.1,0.1c0,0,0,0,0.1,0.1
			l0,0c0,0,0.1,0,0.1,0.1l0,0c0,0,0.1,0.1,0.1,0.1c0.1,0,0.1,0.1,0.2,0.1c0,0,0,0,0.1,0.1c0.1,0.1,0.1,0.1,0.2,0.2
			c0,0,0.1,0,0.1,0.1l0,0c0,0,0.1,0.1,0.1,0.1c0,0,0.1,0.1,0.1,0.1c0,0,0.1,0.1,0.1,0.1c0,0,0.1,0,0.1,0c0,0,0,0,0.1,0.1l0,0
			c0,0,0,0,0.1,0.1l0,0c0,0,0.1,0,0.1,0.1l0,0c0,0,0.1,0.1,0.1,0.1l0,0c0,0,0.1,0,0.1,0.1c0.2,0.1,0.4,0.3,0.6,0.4
			c0.1,0,0.1,0,0.2,0.1l0,0c0,0,0.1,0.1,0.1,0.1c0.1,0.1,0.2,0.2,0.3,0.3c0.1,0,0.1,0,0.2,0c0-0.1,0.1-0.1,0.1-0.2c0,0,0,0,0,0
			c-0.1-0.1-0.2-0.2-0.3-0.3l0,0c0,0-0.1-0.1-0.1-0.1l0,0c0,0-0.1-0.1-0.1-0.1l0,0c0,0-0.1-0.1-0.1-0.1l0,0
			c-0.1-0.1-0.2-0.2-0.3-0.3l0,0c0,0-0.1-0.1-0.1-0.1c0,0,0,0,0,0c0,0-0.1-0.1-0.1-0.1c0,0,0,0,0,0c-0.3-0.3,0-0.7-0.1-1
			c0-0.4,0.2-0.7,0.7-0.7c0.2,0,0.5-0.1,0.7-0.1c0.2-0.3-0.5-0.7,0.2-0.8l0,0c0.1-0.1,0.2-0.1,0.3-0.2l0,0c0.1-0.1,0.2-0.1,0.3-0.2
			l0,0c0.1-0.1,0.2-0.1,0.3-0.2l0,0c0.1-0.1,0.2-0.1,0.3-0.2l0,0c0.1-0.1,0.2-0.1,0.3-0.2l0,0C16.3,9.5,16.4,9.4,16.4,9.3z
			 M14.1,9.5c-0.1,0-0.2,0.1-0.3,0.1c-0.2,0.2-0.3,0.1-0.4,0c-0.1-0.1-0.1-0.3-0.1-0.4c0.2-0.5,0.5-0.1,0.7,0
			c0.2-0.2,0.4-0.3,0.6-0.1c0.2,0.2,0.1,0.5-0.1,0.7C14.3,9.7,14.2,9.6,14.1,9.5z"/>
		<path class="st8" d="M11,11.7c-0.1-0.4-0.2-0.8-0.2-1.2c0.1-0.1,0.2-0.1,0.3-0.2c0-0.1-0.1-0.2-0.1-0.3c0,0,0.1,0,0.1,0
			c0.1-0.1,0.2-0.3,0.2-0.4c0-0.9,0-1.8-0.1-2.6c-1.1,0-2.1,0-3.2,0c-0.4,0-0.8,0-0.6-0.6C5.9,6.1,4.4,6.6,3,6.9C3,6.9,3,7,3,7
			c0.4,0.2,0.9,0.5,1.3,0.7c1.5,0.8,3.1,1.5,4.6,2.4C9.6,10.6,10.3,11.1,11,11.7z M9.3,7.3c0.1,0.1,0.2,0.2,0.3,0.3
			C9.6,7.8,9.7,7.9,9.7,8C9.6,8.1,9.5,8.2,9.3,8.2C9.2,8.2,9.1,8.1,9.1,8C9,7.7,9.1,7.4,9.3,7.3z M7.6,8.4C7.4,8.2,7.3,8.1,7.3,8
			c0.1-0.2,0.2-0.3,0.3-0.5C7.8,7.6,8,7.7,8,7.9C8,8,7.8,8.2,7.6,8.4z"/>
		<path class="st9" d="M12,17.8c0.6,0,1.1,0,1.7,0c0-0.3,0-0.6,0-0.9c0.6,0,0.4-0.6,0.7-0.9c0.2,0.2,0.3,0.4,0.5,0.6
			c0,0,0.1,0,0.1,0c0.2-0.8,0.8-0.6,1.3-0.6c-0.4-0.3-0.8-0.5-1.1-0.8c-0.2-0.1-0.3-0.3-0.4-0.4l0,0c0,0-0.1-0.1-0.1-0.1
			c0,0,0,0,0,0c0,0-0.1,0-0.1,0l0,0c0,0-0.1,0-0.1,0c-0.3-0.1-0.6-0.1-0.8-0.2c0,0-0.1,0-0.1,0c-0.1,0-0.3,0-0.4-0.1
			c0,0-0.1,0-0.1,0c-0.1,0-0.3,0-0.4-0.1c0,0-0.1,0-0.1,0c-0.1,0-0.3,0-0.4-0.1c0,0-0.1,0-0.1,0c0,0.1-0.1,0.2-0.1,0.2
			c0,0-0.1,0.1-0.1,0.1c0,0.1,0,0.1,0,0.2c0.3,0.3,0.5,0.7,0.8,1c0,0,0,0,0,0c0,0,0.1,0.1,0.1,0.1c0.1,0.1,0.2,0.2,0.2,0.3
			c-0.1,0.1-0.3,0.2-0.4,0.3c-0.1-0.1-0.2-0.3-0.4-0.4c-0.1,0-0.2,0.1-0.3,0.1c0,0-0.1,0.1-0.1,0.1c-0.5,0.5-1.1,0.6-1.8,0.2
			c-0.6-0.3-1.3-0.5-1.9-0.8c-0.5,0.3-1.1,0.6-1.6,1c-0.2,0.2-0.3,0.5-0.5,0.9c0.6,0.1,1,0.3,1.5,0.3c1.3,0,2.6,0,4,0
			C11.6,17.8,11.8,17.8,12,17.8z"/>
		<path class="st10" d="M26.8,5.8c-0.8,0-1.7,0-2.5,0c0,0,0,0-0.1,0.1c0,0,0,0,0,0.1c0,0,0,0.1,0,0.1c0.1,0,0.3,0.1,0.4,0.1
			c0,0.2,0,0.3,0,0.5c-0.2,0-0.5,0-0.7,0c-0.2,0.3,0,0.8-0.6,0.8c0,0.1,0,0.1,0,0.2c0,0.1,0.1,0.2,0.1,0.3c0.1,0,0.2,0.1,0.3,0.1
			C23.9,8,24,7.9,24,7.8c0,0-0.1-0.1-0.2-0.2c0,0,0,0,0,0c0,0,0,0,0,0c0.1-0.1,0.2-0.1,0.4-0.2c0,0.2,0.1,0.3,0.1,0.5
			c0,0,0.1,0,0.1,0c0.1-0.2,0.1-0.4,0.3-0.5c0,0,0.4,0.1,0.4,0.2c0,0.2,0,0.4-0.1,0.7c-0.3-0.2-0.4-0.3-0.5-0.4
			c-0.1,0.1-0.2,0.2-0.3,0.2c-0.3,0-0.6,0.1-0.7-0.2c-0.1,0.1-0.2,0.1-0.3,0.2c-0.2,0-0.4,0-0.5,0c-0.1,0-0.2-0.3-0.1-0.4
			c0.1-0.1,0.3-0.2,0.4-0.3c0,0,0.1,0,0.2,0c-0.1-0.3-0.1-0.6-0.2-0.9c-0.2,0-0.4,0-0.6,0c0,0.1,0,0.3-0.1,0.4
			c-0.3-0.1-0.5-0.1-0.8-0.2c0.1,0.7-0.4,0.8-0.8,1.1c0.2,0.3,0.3,0.6,0.5,0.9c-0.5,0.3-1,0.6-1.6,0.9c0.3,0.2,0.5,0.4,0.7,0.5
			c0.3,0.1,0.7,0.2,1.1,0.3c0.5,0.3,0.8-0.1,1.1-0.4c0.2-0.2,0.4-0.3,0.6-0.5c0,0,0.1,0.1,0.1,0.2c0,0,0,0,0,0
			c0.2,0.1,0.3,0.3,0.5,0.4c0,0,0,0,0,0c0.1,0.1,0.1,0.1,0.2,0.2c0,0,0,0,0,0c0.1,0.1,0.2,0.2,0.4,0.2c0.2,0,0.3,0.1,0.6,0.1
			c-0.2-0.2-0.3-0.2-0.4-0.3l0,0c0-0.1-0.1-0.2-0.1-0.3c0,0,0-0.1,0-0.1c-0.1-0.3-0.1-0.6-0.2-0.9c0,0,0-0.1,0-0.1c0,0,0-0.1,0-0.1
			c0,0,0.1,0,0.1,0c0.1,0,0.1,0,0.2-0.1c0,0,0.1,0,0.1,0c0.1,0,0.1,0,0.2-0.1c0,0,0.1,0,0.1,0c0.1,0,0.2,0,0.3-0.1c0,0,0.1,0,0.1,0
			c0.1,0,0.1,0,0.2-0.1c0,0,0.1,0,0.1,0c0.1,0,0.1,0,0.2-0.1c0,0,0.1,0,0.1,0c0.1,0,0.1,0,0.2-0.1c0,0,0.1,0,0.1,0
			c0.1,0,0.2,0,0.3-0.1c0,0,0.1,0,0.1,0c0.1,0,0.1,0,0.2-0.1c0,0,0.1,0,0.1,0c0-0.1,0.1-0.2,0.1-0.2C26.7,7.1,26.8,6.4,26.8,5.8z
			 M24.7,8.4C24.7,8.4,24.6,8.4,24.7,8.4C24.6,8.4,24.6,8.3,24.7,8.4C24.7,8.3,24.7,8.4,24.7,8.4z"/>
		<path class="st2" d="M14.6,14.6C14.7,14.6,14.7,14.6,14.6,14.6c0.1,0,0.1,0.1,0.1,0.1c0,0,0,0,0,0c0.7,0.4,1.3,0.7,2,1.1
			c0.6,0.3,1.1,0.5,1.7,0.8c0.1-0.1,0.3-0.2,0.3-0.3c0-0.1-0.1-0.4-0.2-0.4c-0.5-0.3-1-0.7-1.4-1c-0.1-0.1-0.2-0.3-0.2-0.4
			c0-1,0-2,0-3c0.2-0.1,0.5-0.2,0.7-0.2c-0.4-0.6-0.7-1.2-1.1-1.8c-0.1,0-0.2,0.1-0.3,0.1c0,0,0,0,0,0c-0.1,0.1-0.2,0.1-0.3,0.2
			c0,0,0,0,0,0c-0.1,0.1-0.2,0.1-0.3,0.2c0,0,0,0,0,0c-0.1,0.1-0.2,0.1-0.3,0.2c0,0,0,0,0,0c-0.1,0.1-0.2,0.1-0.3,0.2c0,0,0,0,0,0
			c-0.1,0.1-0.2,0.1-0.3,0.2c0,0,0,0,0,0c0,0.3,0,0.6,0,0.9c-0.2,0-0.4,0-0.7,0.1c-0.3,0.1-0.7,0-0.7,0.4c0,0.4-0.1,0.7-0.1,1.1
			c0,0,0,0,0,0c0,0,0.1,0.1,0.1,0.1c0,0,0,0,0,0c0,0,0.1,0.1,0.1,0.1c0,0,0,0,0,0c0.1,0.1,0.2,0.2,0.3,0.3c0,0,0,0,0,0
			c0,0,0.1,0.1,0.1,0.1c0,0,0,0,0,0c0,0,0.1,0.1,0.1,0.1c0,0,0,0,0,0c0,0,0.1,0.1,0.1,0.1c0,0,0,0,0,0c0.1,0.1,0.2,0.2,0.3,0.3
			c0,0,0,0,0,0c0,0.1,0.1,0.2,0.1,0.3c0,0.1,0.1,0.1,0.1,0.2C14.6,14.5,14.6,14.5,14.6,14.6z M16.2,12.3L16.2,12.3
			c0.1,0,0.3,0,0.3,0c0,0.2,0,0.4,0,0.7c-0.2-0.1-0.3-0.2-0.4-0.3c-0.1-0.1-0.1-0.3-0.1-0.4C16.1,12.3,16.2,12.3,16.2,12.3z"/>
		<path class="st11" d="M13,14.3c0,0,0.1,0,0.1,0c0.1,0,0.3,0,0.4,0.1c0,0,0.1,0,0.1,0c0.2-0.1,0.3-0.1,0.5-0.2
			c-0.1-0.1-0.2-0.2-0.3-0.3c0,0-0.1-0.1-0.1-0.1c0,0,0,0,0,0c-0.1,0-0.1,0-0.2-0.1c-0.2-0.1-0.4-0.3-0.6-0.4c0,0-0.1,0-0.1-0.1
			c0,0,0,0,0,0c0,0-0.1-0.1-0.1-0.1c0,0,0,0,0,0c0,0-0.1,0-0.1-0.1c0,0,0,0,0,0c0,0,0,0-0.1-0.1c0,0,0,0,0,0c0,0,0,0-0.1-0.1
			c0,0-0.1,0-0.1,0c0,0-0.1-0.1-0.1-0.1c0,0-0.1-0.1-0.1-0.1c0,0-0.1-0.1-0.1-0.1c0,0,0,0,0,0c0,0-0.1,0-0.1-0.1
			c-0.1-0.1-0.1-0.1-0.2-0.2c0,0,0,0-0.1-0.1c-0.1,0-0.1-0.1-0.2-0.1c0,0-0.1-0.1-0.1-0.1c0,0,0,0,0,0c0,0-0.1,0-0.1-0.1
			c0,0,0,0,0,0c0,0,0,0-0.1-0.1c0,0-0.1-0.1-0.1-0.1c-0.1,0-0.2,0-0.2,0c0,0,0,0.1,0,0.1c-0.1,0.2-0.1,0.5-0.2,0.7c0,0,0,0.1,0,0.1
			c0,0,0,0.1-0.1,0.1c0,0.1,0,0.2,0,0.3c0,0,0,0.1-0.1,0.1c0,0.2,0,0.4-0.1,0.6c-0.1,0.2-0.3,0.3-0.4,0.4c0,0.5-0.3,0.6-0.8,0.3
			c-0.5,0.2-0.8-0.1-1.1-0.3c-0.9-0.5-0.9-0.5-1.8,0.2c0,0-0.1,0-0.1,0.1c0.5,0.1,0.9,0.3,1.1,0.7c0.1,0.2,0.4,0.3,0.5,0.4
			c0.6,0.3,1.3,0.5,1.9,0.8c0.7,0.4,1.2,0.3,1.8-0.2c0-0.1,0-0.2,0-0.3c0,0,0.1,0.1,0.1,0.1c0.1-0.1,0.3-0.3,0.4-0.4
			c0.1,0,0.2,0,0.3-0.1c-0.3-0.3-0.5-0.7-0.8-1c-0.2,0-0.4,0-0.5,0c0,0,0-0.1,0-0.1c0.1-0.1,0.2-0.1,0.3-0.2c0,0,0,0,0,0
			c-0.1-0.1-0.2-0.2-0.2-0.4c0,0,0-0.1,0-0.1c0.2,0.1,0.3,0.1,0.5,0.2c0,0,0.1,0,0.1,0c0,0,0.1,0,0.1,0c0.1,0,0.3,0,0.4,0.1
			c0,0,0.1,0,0.1,0C12.7,14.2,12.8,14.3,13,14.3z"/>
		<path class="st12" d="M29.6,10.6c-0.3,0.3-0.3,0.7-0.2,1.1c0.1,0.4,0,0.8,0,1.2c0,0.2,0.1,0.4,0.1,0.5c0.1,0.2,0.1,0.3,0.2,0.5
			l0,0c0,0,0,0.1,0.1,0.1c0.2,0.5,0.4,1,0.6,1.4c0.4-0.3,0.7-0.6,1.1-0.9c0-0.6-0.1-1.2-0.1-1.8c0.1-0.2,0.2-0.3,0.4-0.5
			c-0.2-0.2-0.4-0.3-0.6-0.5c0.4-0.4,0.8-0.7,0.2-1.3C30.8,10.8,30.2,10.8,29.6,10.6z"/>
		<path class="st13" d="M29.1,37.2c0,0.1-0.1,0.2-0.1,0.3c0,0.6,0.1,1.2,0.2,1.9c0,0.6-0.1,1.2-0.6,1.7c-0.4,0.4-0.7,0.8-1,1.2
			c0.3-0.2,0.6-0.4,0.9-0.6c0.1-0.1,0.3-0.2,0.4-0.2c0.2-0.6,0.4-1.3,0.6-1.9c-0.1,0-0.1,0.1-0.2,0.1C29.2,38.7,29.2,37.9,29.1,37.2
			z"/>
		<path class="st14" d="M26.8,5.8c0,0.7-0.1,1.4-0.1,2c0,0.1-0.1,0.2-0.1,0.2c0.1,0.1,0.2,0.2,0.2,0.4c0,0.6,0,1.3,0,1.9
			c0-0.1,0.1-0.2,0.1-0.3c0-1.3,0.1-2.6,0.1-3.8C27,6,26.9,5.9,26.8,5.8C26.8,5.8,26.8,5.8,26.8,5.8z"/>
		<path class="st15" d="M9.4,14.6c0.5,0.3,0.7,0.2,0.8-0.3C10.1,14.1,10,14,10,14c-0.1,0.2-0.1,0.3-0.2,0.5c0,0-0.1,0-0.1,0
			c0-0.1,0-0.3,0-0.4c0,0-0.1,0-0.1,0C9.5,14.2,9.4,14.4,9.4,14.6z"/>
		<path class="st16" d="M23.3,9.6c-0.1-0.1-0.1-0.1-0.1-0.2c-0.2,0.2-0.4,0.3-0.6,0.5c-0.3,0.3-0.6,0.7-1.1,0.4c0,0.1,0,0.1,0,0.2
			c0.5,0.2,0.8,0.1,1.1-0.3C22.7,10,23,9.8,23.3,9.6z"/>
		<path class="st17" d="M23.3,7.7c0-0.1,0-0.1,0-0.2c0,0,0,0-0.1,0c0,0-0.1,0-0.1,0c0,0,0,0,0,0c-0.1,0-0.1,0-0.2,0
			c-0.2,0.1-0.3,0.1-0.4,0.3c0,0.1,0,0.3,0.1,0.4c0.1,0.1,0.3,0,0.5,0c-0.4,0-0.4-0.2-0.2-0.6C23.1,7.6,23.2,7.7,23.3,7.7z"/>
		<path class="st18" d="M11.4,36.2c0.2-0.5,0.5-1.1,0.7-1.6l0,0c-0.1,0.1-0.2,0.1-0.2,0.2C11.6,35.2,11.5,35.7,11.4,36.2
			C11.3,36.1,11.3,36.2,11.4,36.2z"/>
		<path class="st19" d="M10.9,12.7c0.1-0.2,0.1-0.5,0.2-0.7C11,12.2,10.9,12.5,10.9,12.7z"/>
		<path class="st16" d="M21.4,11.3c0-0.1,0-0.3,0-0.4C21.4,11,21.4,11.2,21.4,11.3z"/>
		<path class="st18" d="M16.2,9.5c0.1,0,0.2-0.1,0.3-0.1c0,0-0.1-0.1-0.1-0.1C16.4,9.4,16.3,9.5,16.2,9.5z"/>
		<path class="st14" d="M26.9,5.3c0.1,0,0.2,0,0.2,0c-0.1,0-0.1-0.1-0.2-0.1C26.9,5.2,26.9,5.3,26.9,5.3z"/>
		<path class="st19" d="M11,11.9c0.1,0,0.2,0,0.2,0c-0.1-0.1-0.2-0.1-0.2-0.2C11,11.8,11,11.9,11,11.9z"/>
		<path class="st13" d="M27.6,42.2c-0.1,0-0.1,0.1-0.2,0.1C27.4,42.3,27.5,42.2,27.6,42.2z"/>
		<path class="st19" d="M10.7,13.3C10.7,13.2,10.7,13.2,10.7,13.3C10.7,13.2,10.7,13.2,10.7,13.3z"/>
		<path class="st19" d="M10.8,12.9C10.8,12.8,10.8,12.8,10.8,12.9C10.8,12.8,10.8,12.8,10.8,12.9z"/>
		<path class="st10" d="M23.2,7.5C23.2,7.5,23.2,7.5,23.2,7.5C23.2,7.5,23.2,7.5,23.2,7.5z"/>
		<path class="st13" d="M27.4,42.3C27.4,42.3,27.3,42.3,27.4,42.3C27.3,42.3,27.4,42.3,27.4,42.3z"/>
		<path class="st14" d="M24.2,6c0,0,0-0.1,0-0.1C24.2,5.9,24.2,6,24.2,6z"/>
		<path class="st14" d="M24.2,5.8C24.3,5.8,24.3,5.8,24.2,5.8C24.3,5.8,24.3,5.8,24.2,5.8z"/>
		<path class="st20" d="M28.8,26.2c-0.4-0.1-0.8-0.2-1.2-0.3c-0.1,0-0.1-0.2-0.2-0.3c-0.2-0.4-0.3-0.7-0.4-1.1c0,0-0.1,0-0.1,0
			c-0.5,0-0.9,0-1.4,0l0,0c0,0.1,0.1,0.2,0.1,0.3c0.1,0.3,0.2,0.5,0.3,0.8c0.4,0.5,0.9,1,0.5,1.7c-0.2,0.3,0.1,0.5,0.2,0.7
			c0.2,0.2,0.3,0.4,0.2,0.7c0,0.1,0.1,0.3,0.2,0.4c0.5,0.4,1,0.7,1.5,1.1c0.2,0.1,0.4,0.2,0.6,0.2c0-0.2,0.1-0.3,0.1-0.5
			c-0.3-0.4-0.6-0.7-0.8-1.1c0-0.1,0-0.2,0.1-0.3c0.1-0.1,0.2-0.1,0.3-0.2c0.3-0.3,0.5-0.7,0.3-1.2C28.9,26.9,28.9,26.5,28.8,26.2z"
			/>
		<path class="st20" d="M29.1,37.2c0.1,0.8,0.1,1.6,0.2,2.4c0.1-0.1,0.1-0.1,0.2-0.1c0.1-0.4,0.3-0.8,0.4-1.3
			c0.1-0.6,0.3-1.2,0.3-1.8c0-0.2-0.1-0.5-0.1-0.7c0-0.7-0.1-1.3-0.1-2c0-0.9-0.1-1.7-0.1-2.6c0-0.1-0.1-0.2-0.1-0.4
			c-0.1,0-0.2,0.1-0.2,0.1c0-0.1,0-0.3,0-0.3c-0.1,0-0.2,0-0.3,0c0,0.5,0,1,0,1.5c0,0.1,0,0.1,0,0.2c0,0.1,0.1,0.3,0.1,0.4
			c0,1,0,1.9,0,2.9c0,0,0,0,0,0c0,0,0.1,0.1,0.1,0.1c0,0,0,0,0,0c0,0,0.1,0.1,0.1,0.1c0,0,0,0,0,0c0,0,0.1,0.1,0.1,0.1c0,0,0,0,0,0
			c0,0,0.1,0.1,0.1,0.1c0,0,0,0,0,0c0,0,0.1,0.1,0.1,0.1c0,0,0,0,0,0c0,0,0.1,0.1,0.1,0.1c0,0,0,0,0,0c0,0.1,0.1,0.1,0.1,0.2
			c0,0,0,0,0,0c0,0.1-0.1,0.1-0.1,0.2c0,0.1,0,0.3,0,0.5C29.6,36.9,29.3,37,29.1,37.2z"/>
		<path class="st21" d="M29.2,30.5c0.1,0,0.2,0,0.3,0c0,0,0,0.2,0,0.3c0,0,0.1,0,0.2-0.1c0-0.3,0-0.5-0.1-0.8c0,0-0.3,0-0.5,0
			C29.2,30.1,29.1,30.2,29.2,30.5C29.1,30.4,29.1,30.5,29.2,30.5C29.1,30.5,29.2,30.5,29.2,30.5z"/>
		<path class="st22" d="M17.7,28.2c0.4,0.1,0.7-0.1,0.9-0.4c0.7-0.9,1.2-1.8,1.6-2.8c0-0.1,0.1-0.2,0.1-0.3
			c-0.2-1.4-0.4-2.8-0.6-4.1c0,0,0,0,0,0c-0.7,0-1.5,0-2.3,0c0,0.4,0,0.9,0,1.3c-0.2,0-0.4,0-0.7,0c0,0.9-0.1,1.7-0.1,2.6
			c-0.2,0-0.4,0-0.7,0c0,0.1,0,0.2,0,0.3c0,1.1,0,2.2,0,3.3c0,0.3,0.1,0.4,0.4,0.4c0.3,0,0.7,0,1,0c0.1,0,0.2-0.1,0.3-0.2
			c0-0.4,0-0.8,0-1.2c0.2,0,0.4,0,0.6,0c0,0,0,0,0,0.1c-0.1,0.1-0.3,0.1-0.5,0.2C17.7,27.6,17.7,27.9,17.7,28.2z M19.2,24.2
			c-0.4-0.4-0.5-0.2-0.6,0.1c-0.1,0.1-0.3,0.2-0.4,0.2c-0.1,0-0.3-0.2-0.3-0.3c0-0.1,0.1-0.3,0.2-0.4c0,0,0.1,0,0.1,0
			c0,0.2,0.1,0.4,0.1,0.6c0,0,0.1,0,0.1,0c0-0.2,0-0.4,0.1-0.6C19.1,23.9,19.1,23.9,19.2,24.2z"/>
		<path class="st23" d="M19.6,20.4C19.6,20.4,19.7,20.4,19.6,20.4c0.6,0,1.1,0,1.7,0c0,0.4,0.1,0.8,0.1,1.2c0,0.2,0.1,0.3,0.1,0.5
			c0-0.4,0-0.8,0-1.2c0-0.1,0.1-0.3,0.1-0.3c0.2-0.2,0.5-0.3,0.8-0.4c0.4,0.6,0.8,1.2,1.1,1.7c0.4-0.1,0.3,0.2,0.3,0.4
			c0.1,0,0.2-0.1,0.2-0.1c0-0.1,0-0.1,0-0.2c0-0.1,0.1-0.1,0.1-0.2c0.3,0,0.6,0,0.9,0c-0.1-0.2-0.1-0.4-0.2-0.6c0.3,0,0.6,0,0.9,0
			c0.2,0.6,0.4,1.3,0.6,1.9c0,0,0,0.1,0.1,0.1c0,0,0,0.1,0,0.1c0.4,0,0.8,0,1.1,0c0,0,0.1,0,0.1,0c0-0.1,0-0.1,0-0.2
			c-0.2-0.2-0.4-0.4-0.6-0.7c-0.2-0.4-0.9-0.6-0.6-1.2c0-0.1,0-0.2,0-0.4c0,0,0,0,0-0.1c0,0-0.1-0.1-0.1-0.1
			c-0.3-0.2-0.7-0.4-0.9-0.6c-0.7-0.7-1.6-0.9-2.6-1.1c-0.2,0-0.3-0.1-0.5-0.1c-0.1,0.1-0.2,0.1-0.3,0.2c0.1,0.1,0.2,0.2,0.3,0.3
			c0,0-0.1,0.2-0.2,0.3c-0.1-0.3-0.2-0.6-0.3-0.8c-1.1-0.6-2.1-1.2-3.2-1.8c-0.2-0.1-0.4-0.3-0.5-0.4c-0.6-0.3-1.1-0.5-1.7-0.8
			c0,0.1-0.1,0.1-0.1,0.2c0.2,0.8,0.6,1.4,1.2,1.9c0.6,0.7,1.1,1.5,1.7,2.2C19.6,20.2,19.6,20.3,19.6,20.4z M22.3,19.6
			C22.3,19.6,22.3,19.6,22.3,19.6c0,0-0.1,0-0.1,0c0,0,0,0,0,0C22.2,19.6,22.2,19.6,22.3,19.6z"/>
		<path class="st24" d="M25.9,25.6c-0.1-0.3-0.2-0.5-0.3-0.8c0-0.1-0.1-0.2-0.1-0.3c-0.3,0-0.6,0.1-0.9,0.1c-0.4,0.1-0.7,0-0.9-0.4
			c0,0-0.1-0.1-0.1-0.1l0,0c0,0-0.1-0.1-0.1-0.1l0,0c0,0-0.1-0.1-0.1-0.1l0,0c0,0-0.1-0.1-0.1-0.1l0,0c0,0-0.1-0.1-0.1-0.1l0,0
			c0,0-0.1-0.1-0.1-0.1c0,0,0,0-0.1,0c-0.1,0-0.2,0-0.3,0c-0.1,0-0.1,0-0.2,0c-0.2,0.3-0.7,0.5-0.5,0.9c0.3,0.5,0.1,1.1,0.3,1.6
			c0.1,0.2,0.4,0.4,0.7,0.6c-0.3,0.2-0.6,0.4-0.8,0.6c0.5,0.5,0.9,1,1.4,1.6c0.3,0.3,0.4-0.1,0.7-0.1c-0.2-0.3-0.4-0.6-0.5-0.8
			c0.6-0.2,1,0.1,1.4,0.6c0.1-0.4,0.1-0.7,0.2-1c0.2-0.1,0.4-0.1,0.7-0.2C26.1,26.8,26,26.2,25.9,25.6z M24.7,26.4
			C24.7,26.4,24.7,26.4,24.7,26.4c0.1-0.2,0.2-0.2,0.3-0.4c-0.4-0.2-0.7-0.3-1-0.4c0,0,0-0.1,0-0.1c0.2,0,0.4,0,0.7,0
			c0,0,0,0.1,0,0.1c0.2,0.2,0.4,0.3,0.6,0.5C25,26.2,24.8,26.3,24.7,26.4z M24.3,26.4c-0.1,0-0.1,0-0.2,0c0-0.2,0.1-0.3,0.1-0.5
			c0,0,0.1,0,0.1,0C24.4,26.1,24.4,26.2,24.3,26.4z"/>
		<path class="st25" d="M23.1,23.6C23.1,23.6,23.1,23.7,23.1,23.6c0.1,0,0.1,0.1,0.2,0.1c0,0,0,0,0,0c0,0,0.1,0.1,0.1,0.1
			c0,0,0,0,0,0c0,0,0.1,0.1,0.1,0.1c0,0,0,0,0,0c0,0,0.1,0.1,0.1,0.1c0,0,0,0,0,0c0,0,0.1,0.1,0.1,0.1c0,0,0,0,0,0
			c0,0,0.1,0.1,0.1,0.1c0.2,0.4,0.5,0.5,0.9,0.4c0.3,0,0.6-0.1,0.9-0.1c0,0,0,0,0,0c-0.1-0.1-0.2-0.3-0.3-0.4
			c-0.3-0.5-0.6-1-0.9-1.5c0-0.1,0-0.1,0.1-0.2c0-0.1-0.1-0.1-0.1-0.2c-0.1,0-0.2,0.1-0.2,0.1c-0.1,0.1-0.2,0.3-0.2,0.3
			c-0.2-0.1-0.4-0.1-0.6-0.1c-0.1,0-0.2-0.1-0.3-0.2c-0.2-0.1-0.3-0.2-0.6-0.4c0.1,0.2,0.1,0.4,0.2,0.6c-0.1,0-0.3-0.1-0.4-0.1
			c-0.1-0.1-0.1-0.3-0.1-0.4c0.1-0.1,0.3-0.2,0.4-0.3c0.1,0.2,0.2,0.4,0.4,0.6c0.4,0.1,0.5-0.1,0.7-0.4c-0.4-0.6-0.7-1.1-1.1-1.7
			c-0.3,0.1-0.5,0.2-0.8,0.4c-0.1,0.1-0.1,0.2-0.1,0.3c0,0.4,0,0.8,0,1.2c0,0.1,0,0.1,0,0.2c0,0.3,0,0.6,0.1,0.8c0,0,0,0,0,0
			c0.1,0,0.2,0,0.3,0.1c0,0,0.1,0,0.1,0c0.1,0,0.2,0,0.3,0.1c0,0,0.1,0,0.1,0c0,0,0.1,0.1,0.1,0.1c0,0,0,0,0,0c0,0,0.1,0.1,0.1,0.1
			c0,0,0,0,0,0c0,0.1,0.1,0.1,0.1,0.2c0,0,0,0,0,0c0.1,0,0.1,0,0.2,0C22.9,23.6,23,23.6,23.1,23.6z"/>
		<path class="st21" d="M23.2,33.7c-0.3,0.3-0.5,0.5-0.7,0.6c0,0-0.1-0.1-0.1-0.1c0-0.1,0.1-0.3,0.1-0.4c0,0,0,0-0.1,0
			c0,0.2,0,0.3-0.1,0.5c0.3,0.1,0.5,0.2,0.8,0.3C23.2,34.4,23.2,34.1,23.2,33.7z"/>
		<path class="st26" d="M16.7,15.9c0-0.1,0.1-0.1,0.1-0.2c-0.7-0.4-1.3-0.7-2-1.1c0.1,0.1,0.3,0.3,0.4,0.4c0.4,0.3,0.7,0.5,1.1,0.8
			C16.4,15.9,16.6,15.9,16.7,15.9z"/>
		<path class="st21" d="M11.5,26.6c0.1,0,0.1-0.2,0.1-0.9C11.3,25.9,11.3,25.9,11.5,26.6z"/>
		<path class="st13" d="M29.3,35.4c0-1,0-1.9,0-2.9c0-0.1-0.1-0.3-0.1-0.4c0,1,0,1.9,0,2.9C29.2,35.1,29.2,35.3,29.3,35.4z"/>
		<path class="st18" d="M17.7,28.2c0-0.3,0-0.6,0-0.8c0.2-0.1,0.3-0.1,0.5-0.2c0,0,0,0,0-0.1c-0.2,0-0.4,0-0.6,0c0,0.4,0,0.8,0,1.2
			C17.6,28.2,17.7,28.2,17.7,28.2z"/>
		<path class="st21" d="M27.6,30.8c0.2,0,0.3,0,0.4,0c0-0.2,0-0.5,0-0.7C27.5,30.2,27.9,30.6,27.6,30.8z"/>
		<path class="st18" d="M14.7,31.6c0.4-0.3,0.9-0.5,1.3-0.8c0-0.1-0.1-0.1-0.1-0.2C15.5,31,15.1,31.3,14.7,31.6
			C14.7,31.6,14.7,31.6,14.7,31.6z"/>
		<path class="st13" d="M29.2,30.5C29.2,30.5,29.1,30.5,29.2,30.5c-0.1,0-0.2,0.1-0.2,0.1c0.1,0.4,0.1,0.9,0.2,1.3
			C29.2,31.5,29.2,31,29.2,30.5z"/>
		<path class="st18" d="M13.5,33c0.2-0.3,0.5-0.7,0.7-1c0,0,0,0,0,0C13.6,32.1,13.6,32.6,13.5,33L13.5,33z"/>
		<path class="st18" d="M13.5,33c-0.1,0.2-0.3,0.3-0.4,0.5c0,0,0.1,0.1,0.1,0.1C13.3,33.3,13.4,33.2,13.5,33
			C13.5,33,13.5,33,13.5,33z"/>
		<path class="st18" d="M18.3,28.9c0-0.2,0.1-0.3,0.1-0.5c-0.1,0-0.1,0-0.2,0C18.3,28.6,18.3,28.7,18.3,28.9L18.3,28.9z"/>
		<path class="st18" d="M14.7,31.6c-0.2,0.1-0.3,0.2-0.5,0.3c0,0,0,0,0,0C14.4,31.8,14.5,31.7,14.7,31.6
			C14.7,31.6,14.7,31.6,14.7,31.6z"/>
		<path class="st23" d="M21.6,23.1c0-0.3,0-0.6-0.1-0.8C21.6,22.6,21.6,22.8,21.6,23.1z"/>
		<path class="st18" d="M12.9,33.7c-0.1,0.1-0.2,0.1-0.3,0.2c0,0,0,0.1,0.1,0.1c0.1-0.1,0.2-0.1,0.3-0.2
			C12.9,33.8,12.9,33.8,12.9,33.7z"/>
		<path class="st18" d="M12,34.5c0.1-0.1,0.2-0.1,0.3-0.2c0,0-0.1-0.1-0.1-0.1C12.2,34.3,12.1,34.4,12,34.5C12,34.5,12,34.5,12,34.5
			z"/>
		<path class="st18" d="M17.4,29.8c0.1-0.1,0.2-0.2,0.3-0.3l0,0C17.6,29.6,17.5,29.7,17.4,29.8L17.4,29.8z"/>
		<path class="st18" d="M16.4,30.5c0.1-0.1,0.2-0.2,0.3-0.3c0,0,0,0,0,0C16.6,30.3,16.5,30.4,16.4,30.5
			C16.4,30.5,16.4,30.5,16.4,30.5z"/>
		<path class="st18" d="M16.9,30.1c0.1-0.1,0.2-0.2,0.3-0.3c0,0,0,0,0,0C17.1,30,17,30.1,16.9,30.1L16.9,30.1z"/>
		<path class="st18" d="M17.7,29.5c0.1-0.1,0.2-0.2,0.3-0.3c0,0,0,0,0,0C17.9,29.4,17.8,29.5,17.7,29.5
			C17.7,29.5,17.7,29.5,17.7,29.5z"/>
		<path class="st23" d="M22,23.2c-0.1,0-0.2,0-0.3-0.1C21.8,23.2,21.9,23.2,22,23.2z"/>
		<path class="st18" d="M16.4,30.5c-0.1,0-0.2,0-0.2,0c0,0,0,0.1,0,0.1C16.3,30.6,16.3,30.5,16.4,30.5
			C16.4,30.5,16.4,30.5,16.4,30.5z"/>
		<path class="st18" d="M18.1,29.1c-0.1,0.1-0.1,0.1-0.2,0.2c0,0,0,0,0,0C18,29.2,18.1,29.2,18.1,29.1
			C18.1,29.1,18.1,29.1,18.1,29.1z"/>
		<path class="st13" d="M29.9,36.1c0-0.1-0.1-0.1-0.1-0.2C29.8,35.9,29.8,36,29.9,36.1z"/>
		<path class="st23" d="M22.3,23.3c-0.1,0-0.2,0-0.3-0.1C22.2,23.2,22.2,23.3,22.3,23.3z"/>
		<path class="st18" d="M16.9,30.1c-0.1,0-0.2,0.1-0.3,0.1c0,0,0,0,0,0C16.8,30.2,16.8,30.2,16.9,30.1
			C16.9,30.1,16.9,30.1,16.9,30.1z"/>
		<path class="st18" d="M17.4,29.8c-0.1,0-0.2,0.1-0.3,0.1c0,0,0,0,0,0C17.3,29.9,17.4,29.8,17.4,29.8
			C17.4,29.8,17.4,29.8,17.4,29.8z"/>
		<path class="st13" d="M29.8,36.2c0-0.1,0.1-0.1,0.1-0.2C29.8,36.1,29.8,36.2,29.8,36.2z"/>
		<path class="st23" d="M22.7,23.6c0-0.1-0.1-0.1-0.1-0.2C22.6,23.5,22.6,23.6,22.7,23.6z"/>
		<path class="st18" d="M18.3,28.9c0,0.1-0.1,0.1-0.1,0.2l0,0C18.2,29,18.3,28.9,18.3,28.9L18.3,28.9z"/>
		<path class="st23" d="M22.5,23.4C22.5,23.4,22.4,23.3,22.5,23.4C22.4,23.3,22.5,23.4,22.5,23.4z"/>
		<path class="st13" d="M29.4,35.5C29.3,35.4,29.3,35.4,29.4,35.5C29.3,35.4,29.3,35.4,29.4,35.5z"/>
		<path class="st13" d="M29.4,35.5C29.4,35.5,29.4,35.5,29.4,35.5C29.4,35.5,29.4,35.5,29.4,35.5z"/>
		<path class="st23" d="M22.6,23.5C22.6,23.4,22.5,23.4,22.6,23.5C22.5,23.4,22.6,23.4,22.6,23.5z"/>
		<path class="st13" d="M29.5,35.6C29.5,35.6,29.5,35.6,29.5,35.6C29.5,35.6,29.5,35.6,29.5,35.6z"/>
		<path class="st18" d="M18.2,29C18.2,29.1,18.2,29.1,18.2,29C18.1,29.1,18.1,29.1,18.2,29C18.2,29.1,18.2,29.1,18.2,29
			C18.2,29,18.2,29,18.2,29z"/>
		<path class="st13" d="M29.6,35.7C29.6,35.7,29.6,35.7,29.6,35.7C29.6,35.7,29.6,35.7,29.6,35.7z"/>
		<path class="st13" d="M29.7,35.8C29.7,35.8,29.6,35.7,29.7,35.8C29.6,35.7,29.7,35.8,29.7,35.8z"/>
		<path class="st13" d="M29.8,35.9C29.8,35.9,29.7,35.8,29.8,35.9C29.7,35.8,29.8,35.9,29.8,35.9z"/>
		<path class="st15" d="M40.5,15.9c-0.2-0.1-0.3-0.3-0.5-0.3c-0.1,0-0.3,0.2-0.3,0.4c-0.1,0.2,0.1,0.4,0.4,0.3
			c0.2,0,0.3-0.2,0.5-0.3C40.6,16,40.6,15.9,40.5,15.9z"/>
		<path class="st17" d="M41.5,15.4c-0.4,0.1-0.6,0.3-0.5,0.7c0,0.1,0.2,0.3,0.3,0.3c0.1,0,0.4-0.1,0.4-0.2c0-0.2-0.1-0.3-0.2-0.5
			c0,0-0.1,0-0.1,0C41.3,15.6,41.4,15.5,41.5,15.4z"/>
		<path class="st15" d="M41.7,15.7c0.3,0.3,0.3,0.7,0,0.9c0.5,0,0.6-0.1,0.5-0.7C42.2,15.5,42,15.6,41.7,15.7z"/>
		<path class="st27" d="M30.4,15.5c-0.2-0.5-0.4-1-0.6-1.4c0,0,0-0.1-0.1-0.1c0,0,0,0,0,0c-1.5,0-3.1-0.1-4.6-0.1
			c0.1,0.3,0.1,0.5,0.2,0.9c-0.3-0.1-0.6-0.2-0.9-0.3l0,0c0.1,0.4,0.1,0.7,0.2,1.1c0.3,0.9,0.3,0.9,1.2,0.9c0.3,0,0.6,0,0.7,0.4
			c0.1-0.1,0.1-0.1,0.2-0.1c0.3-0.5,0.3-0.5,0.7-0.1c0.1,0.1,0.3,0.3,0.5,0.3c0.6,0,1.1-0.1,1.7-0.2c0,0,0,0,0,0
			c0-0.1,0.1-0.2,0.1-0.3c0,0,0,0,0,0c0-0.1,0.1-0.1,0.1-0.2c0,0,0,0,0,0c0-0.1,0.1-0.1,0.1-0.2C30,15.8,30.2,15.7,30.4,15.5z
			 M26.3,14.6c0.3,0,0.3,0.1,0.3,0.5c0,0.1-0.1,0.2-0.2,0.3c0,0,0-0.1-0.1-0.1C26.3,15.1,26.3,14.8,26.3,14.6z"/>
		<path class="st28" d="M24.4,14.4c0.3,0.1,0.6,0.2,0.9,0.3c-0.1-0.3-0.1-0.6-0.2-0.9c-0.1,0-0.2,0-0.4,0c0,0.1,0.1,0.2,0.1,0.4
			c-0.3-0.1-0.5-0.2-0.8-0.3c0.1,0.5,0.2,0.9,0.3,1.2c0.1,0.3,0.2,0.6,0.3,0.9c0.1,0.4,0.3,0.6,0.8,0.5c0.3-0.1,0.7-0.2,0.9,0.3
			c0.1,0.2,0.3,0.2,0.4,0c0.1-0.1,0.2-0.2,0.3-0.4c0.6,1,1.5,0.3,2.3,0.5c-0.2,0.8-0.8,1.1-1.4,1.4c-0.5,0.3-1,0.6-1.4,0.8
			c0.1,0.5,0.1,0.9,0.2,1.4c0-0.4,0-0.8,0-1.3c0.5-0.3,1.1-0.7,1.8-1c0.7-0.3,0.9-0.9,1.1-1.5c-0.6,0.1-1.1,0.1-1.7,0.2
			c-0.2,0-0.4-0.1-0.5-0.3c-0.4-0.4-0.4-0.4-0.7,0.1c0,0-0.1,0.1-0.2,0.1c-0.1-0.4-0.4-0.4-0.7-0.4c-0.9,0-0.9,0-1.2-0.9
			C24.5,15.1,24.5,14.8,24.4,14.4C24.4,14.4,24.4,14.4,24.4,14.4C24.4,14.4,24.4,14.4,24.4,14.4z"/>
		<path class="st29" d="M32.3,18.2c0-0.2,0-0.4,0-0.6c-0.2,0.2-0.3,0.5-0.5,0.6c-0.2,0.1-0.4-0.1-0.7-0.1c0,0-0.2,0.2-0.3,0.3
			c0.5,0.3,1.1-0.3,1.4,0.2c0.3-0.1,0.5-0.3,0.7-0.3c0.3-0.1,0.3,0,0.2-0.3c-0.1,0.1-0.1,0.1-0.2,0.2c-0.1-0.2-0.1-0.4-0.2-0.6
			C32.5,17.7,32.4,17.9,32.3,18.2z"/>
		<path class="st24" d="M26.7,21.2c-0.3,0.6,0.4,0.8,0.6,1.2c0.1,0.3,0.4,0.4,0.6,0.7c0.1,0,0.1,0.1,0.2,0.1c0,0,0.1,0,0.1,0
			c0-0.1-0.1-0.2-0.1-0.3l0,0c-0.1-0.1-0.1-0.2-0.2-0.3c0,0,0,0,0,0c-0.1-0.1-0.1-0.2-0.2-0.3l0,0c-0.1-0.1-0.3-0.3-0.4-0.4
			C27.1,21.6,26.9,21.4,26.7,21.2z"/>
		<path class="st29" d="M28.4,23.6c-1,0.1-0.2,0.5-0.2,0.9c0.2-0.2,0.4-0.4,0.6-0.6C28.7,23.8,28.6,23.7,28.4,23.6
			C28.5,23.6,28.5,23.6,28.4,23.6C28.5,23.6,28.4,23.6,28.4,23.6L28.4,23.6z"/>
		<path class="st30" d="M26.7,21.2c0.2,0.2,0.4,0.5,0.6,0.7c0.1,0.1,0.3,0.3,0.4,0.4c-0.3-0.5-0.7-1-1-1.5
			C26.7,20.9,26.7,21,26.7,21.2z"/>
		<path class="st30" d="M27.7,23.2c-0.4,0-0.8,0-1.1,0c0.1,0.4,0.2,0.8,0.3,1.3c0,0,0.1,0,0.1,0c0-0.2,0-0.4-0.1-0.6
			c0-0.2-0.1-0.4-0.1-0.6C27.1,23.3,27.4,23.3,27.7,23.2z"/>
		<path class="st30" d="M28.1,22.8c0,0.1,0.1,0.2,0.1,0.3c0.1,0.1,0.2,0.1,0.2,0.2l0,0C28.3,23.1,28.2,23,28.1,22.8z"/>
		<path class="st30" d="M28.4,23.3c0,0.1,0,0.2,0,0.2c0,0,0,0,0,0c0,0,0.1,0.1,0.1,0.1c0,0,0,0,0,0c0.1,0,0.1,0,0.3,0
			C28.6,23.5,28.5,23.4,28.4,23.3C28.4,23.3,28.4,23.3,28.4,23.3z"/>
		<path class="st30" d="M27.9,22.5c0.1,0.1,0.1,0.2,0.2,0.3C28,22.7,28,22.6,27.9,22.5z"/>
		<path class="st30" d="M27.7,22.3c0.1,0.1,0.1,0.2,0.2,0.3C27.8,22.4,27.8,22.4,27.7,22.3z"/>
		<path class="st28" d="M29.6,16.4c0,0.1-0.1,0.2-0.1,0.3C29.6,16.6,29.6,16.5,29.6,16.4z"/>
		<path class="st30" d="M28.1,23.1c-0.1,0-0.1-0.1-0.2-0.1c0,0.1,0,0.1,0,0.2C27.9,23.2,28,23.2,28.1,23.1z"/>
		<path class="st28" d="M29.8,16c0,0.1-0.1,0.1-0.1,0.2C29.7,16.1,29.8,16.1,29.8,16z"/>
		<path class="st28" d="M29.7,16.2c0,0.1-0.1,0.1-0.1,0.2C29.6,16.3,29.7,16.3,29.7,16.2z"/>
		<path class="st28" d="M26.6,20.6C26.6,20.7,26.7,20.7,26.6,20.6C26.7,20.7,26.7,20.7,26.6,20.6C26.7,20.6,26.6,20.6,26.6,20.6z"/>
		<path class="st16" d="M24.7,13.9c0.1,0,0.2,0,0.4,0c1.5,0,3.1,0.1,4.6,0.1c-0.1-0.2-0.1-0.3-0.2-0.5c0,0.2,0,0.3-0.3,0.3
			c-0.7,0-1.4,0-2.1,0c-0.1,0-0.3-0.2-0.4-0.3c-0.1-0.2-0.1-0.4-0.2-0.6c-0.1-0.1-0.2-0.2-0.3-0.3c-0.1-0.1-0.2-0.2-0.3-0.2
			c0.1-0.1,0.2-0.2,0.3-0.3c0.4-0.2,0.7-0.4,0.6-0.8c-0.2-0.1-0.3-0.3-0.5-0.4c-0.2,0-0.3-0.1-0.5-0.1c-0.1,0-0.2,0.1-0.3,0.1
			c0.4,0.1,0.7,0.3,1.2,0.5c-0.2,0.2-0.4,0.4-0.6,0.5c-0.2,0.2-0.5,0.1-0.5,0.5c0.1,0.4,0.3,0.4,0.7,0.4c0,0.1,0,0.2,0.1,0.3
			c0.2,0.6,0.2,0.6-0.4,0.6c-0.3,0-0.6,0-0.9,0C24.9,13.7,24.8,13.8,24.7,13.9z"/>
		<path class="st14" d="M25.5,10.9c0.1,0,0.2-0.1,0.3-0.1c-0.4-0.2-0.8-0.3-1.2-0.5c0.1,0.1,0.2,0.1,0.4,0.3
			c-0.3-0.1-0.5-0.1-0.6-0.1c0,0,0,0.1,0,0.1c0.1,0,0.1,0.1,0.2,0.1c0.1,0,0.2,0.1,0.3,0.1c0,0,0,0,0.1,0c0.1,0,0.2,0.1,0.3,0.1
			c0,0,0,0,0.1,0C25.2,10.8,25.3,10.9,25.5,10.9C25.4,10.9,25.5,10.9,25.5,10.9z"/>
		<path class="st15" d="M22.2,18.8c0.1,0.2,0.2,0.5,0.3,0.8c0.1-0.1,0.2-0.3,0.2-0.3c-0.1-0.1-0.2-0.2-0.3-0.3
			c0.1,0,0.2-0.1,0.3-0.2C22.5,18.8,22.3,18.8,22.2,18.8z"/>
		<path class="st17" d="M22,14.9c-0.2-0.2,0.1-0.6-0.4-0.8c0,0.3,0,0.5,0,0.7C21.7,14.9,21.8,14.9,22,14.9z"/>
		<path class="st16" d="M23.8,10c-0.2-0.1-0.3-0.3-0.5-0.4C23.4,9.7,23.6,9.9,23.8,10z"/>
		<path class="st16" d="M24.3,10.5C24.3,10.5,24.3,10.5,24.3,10.5c-0.1-0.2-0.2-0.3-0.4-0.3C24.1,10.3,24.2,10.4,24.3,10.5z"/>
		<path class="st16" d="M25.4,10.9c-0.1,0-0.2-0.1-0.3-0.1C25.2,10.8,25.3,10.9,25.4,10.9z"/>
		<path class="st16" d="M24.7,10.7c-0.1,0-0.2-0.1-0.3-0.1C24.6,10.7,24.6,10.7,24.7,10.7z"/>
		<path class="st16" d="M25.1,10.8c-0.1,0-0.2-0.1-0.3-0.1C24.9,10.7,25,10.8,25.1,10.8z"/>
		<path class="st16" d="M24,10.2c-0.1-0.1-0.1-0.1-0.2-0.2C23.8,10.1,23.9,10.1,24,10.2z"/>
		<path class="st20" d="M24.6,10.3c0.4,0.2,0.8,0.3,1.2,0.5c0.2,0,0.3,0.1,0.5,0.1c0.2-0.2,0.4-0.4,0.5-0.6c0-0.6,0-1.3,0-1.9
			c0-0.1-0.1-0.2-0.2-0.4c0,0,0,0-0.1,0c-0.1,0-0.1,0-0.2,0.1c0,0-0.1,0-0.1,0c-0.1,0-0.2,0-0.3,0.1c0,0-0.1,0-0.1,0
			c-0.1,0-0.1,0-0.2,0.1c0,0-0.1,0-0.1,0c-0.1,0-0.1,0-0.2,0.1c0,0-0.1,0-0.1,0c-0.1,0-0.1,0-0.2,0.1c0,0-0.1,0-0.1,0
			c-0.1,0-0.2,0-0.3,0.1c0,0-0.1,0-0.1,0c-0.1,0-0.1,0-0.2,0.1c0,0-0.1,0-0.1,0c-0.1,0-0.1,0-0.2,0.1c0,0-0.1,0-0.1,0
			c0,0,0,0.1,0,0.1c0,0,0,0.1,0,0.1c0.1,0.3,0.1,0.6,0.2,0.9c0,0,0,0.1,0,0.1C24.5,10.1,24.5,10.2,24.6,10.3
			C24.6,10.3,24.6,10.3,24.6,10.3z"/>
		<path class="st17" d="M28,10c0-0.2,0-0.4-0.1-0.6c0,0,0,0-0.1,0c-0.1,0.1-0.2,0.2-0.2,0.3C27.8,9.9,27.9,10,28,10
			C28,10.1,28,10.1,28,10z"/>
		<path class="st17" d="M28.2,10c0.4-0.2,0.4-0.4,0-0.6C28.2,9.6,28.2,9.8,28.2,10z"/>
		<path class="st18" d="M13.4,12.9c0-0.4,0.1-0.7,0.1-1.1c0-0.5,0.5-0.4,0.7-0.4c0.2-0.1,0.5-0.1,0.7-0.1c0-0.4,0-0.6,0-0.9
			c-0.6,0.2,0,0.6-0.2,0.8c-0.2,0-0.5,0.1-0.7,0.1c-0.5-0.1-0.7,0.2-0.7,0.7C13.4,12.3,13.1,12.6,13.4,12.9z"/>
		<path class="st9" d="M14,9.2c-0.2-0.1-0.5-0.5-0.7,0c-0.1,0.1,0,0.3,0.1,0.4c0.1,0.2,0.3,0.2,0.4,0c0.1-0.1,0.2-0.1,0.3-0.1
			C14.1,9.4,14,9.3,14,9.2z"/>
		<path class="st15" d="M14,9.2c0,0.1,0.1,0.2,0.1,0.3c0.1,0.1,0.2,0.2,0.4,0.3c0.2-0.2,0.3-0.4,0.1-0.7C14.4,8.9,14.2,9,14,9.2z"/>
		<path class="st19" d="M14.1,14.2c-0.2,0.1-0.3,0.1-0.5,0.2c0.3,0.1,0.6,0.1,0.8,0.2c0,0,0,0,0,0l0,0c0,0,0,0,0,0c0,0,0-0.1,0-0.1
			c0-0.1-0.1-0.1-0.1-0.2c-0.1,0-0.1-0.1-0.2-0.1C14.2,14.2,14.2,14.2,14.1,14.2z"/>
		<path class="st18" d="M14.4,14.1c-0.1-0.1-0.2-0.2-0.3-0.3C14.2,13.8,14.3,13.9,14.4,14.1z"/>
		<path class="st18" d="M13.8,13.5c-0.1-0.1-0.2-0.2-0.3-0.3C13.7,13.2,13.8,13.3,13.8,13.5z"/>
		<path class="st18" d="M14.3,14.2c0.1,0,0.1,0.1,0.2,0.1c0-0.1-0.1-0.2-0.1-0.3C14.3,14.1,14.3,14.2,14.3,14.2z"/>
		<path class="st18" d="M16,9.7c0.1-0.1,0.2-0.1,0.3-0.2C16.2,9.6,16.1,9.6,16,9.7z"/>
		<path class="st18" d="M15,10.4c0.1-0.1,0.2-0.1,0.3-0.2C15.1,10.3,15,10.3,15,10.4z"/>
		<path class="st18" d="M15.2,10.2c0.1-0.1,0.2-0.1,0.3-0.2C15.4,10.1,15.3,10.1,15.2,10.2z"/>
		<path class="st18" d="M15.5,10c0.1-0.1,0.2-0.1,0.3-0.2C15.6,9.9,15.6,10,15.5,10z"/>
		<path class="st18" d="M15.7,9.9c0.1-0.1,0.2-0.1,0.3-0.2C15.9,9.7,15.8,9.8,15.7,9.9z"/>
		<path class="st19" d="M13.5,13.8c0.1,0,0.1,0,0.2,0.1C13.6,13.9,13.6,13.8,13.5,13.8z"/>
		<path class="st19" d="M13.7,13.9C13.7,13.9,13.7,13.9,13.7,13.9C13.7,13.9,13.7,13.9,13.7,13.9z"/>
		<path class="st18" d="M14.1,13.7C14.1,13.7,14,13.7,14.1,13.7C14,13.7,14.1,13.7,14.1,13.7z"/>
		<path class="st18" d="M14,13.6C14,13.6,14,13.6,14,13.6C14,13.6,14,13.6,14,13.6z"/>
		<path class="st18" d="M13.9,13.5C13.9,13.5,13.9,13.5,13.9,13.5C13.9,13.5,13.9,13.5,13.9,13.5z"/>
		<path class="st19" d="M12.8,13.3C12.9,13.3,12.9,13.3,12.8,13.3C12.9,13.3,12.9,13.3,12.8,13.3z"/>
		<path class="st19" d="M12.7,13.2C12.8,13.2,12.8,13.3,12.7,13.2C12.8,13.3,12.8,13.2,12.7,13.2z"/>
		<path class="st19" d="M12.6,13.1C12.7,13.1,12.7,13.2,12.6,13.1C12.7,13.2,12.7,13.1,12.6,13.1z"/>
		<path class="st19" d="M12.6,13C12.6,13.1,12.6,13.1,12.6,13C12.6,13.1,12.6,13.1,12.6,13z"/>
		<path class="st18" d="M13.6,13.1C13.6,13.1,13.5,13.1,13.6,13.1C13.5,13.1,13.6,13.1,13.6,13.1z"/>
		<path class="st19" d="M12.5,13C12.5,13,12.5,13,12.5,13C12.5,13,12.5,13,12.5,13z"/>
		<path class="st18" d="M13.5,13C13.5,13,13.4,13,13.5,13C13.4,13,13.5,13,13.5,13z"/>
		<path class="st19" d="M11.8,12.4C11.8,12.4,11.8,12.4,11.8,12.4C11.8,12.4,11.8,12.4,11.8,12.4z"/>
		<path class="st19" d="M11.5,12.2C11.6,12.2,11.6,12.2,11.5,12.2C11.6,12.2,11.6,12.2,11.5,12.2z"/>
		<path class="st19" d="M12,12.6C12.1,12.6,12.1,12.7,12,12.6C12.1,12.7,12.1,12.6,12,12.6z"/>
		<path class="st19" d="M12.1,12.7C12.2,12.7,12.2,12.7,12.1,12.7C12.2,12.7,12.2,12.7,12.1,12.7z"/>
		<path class="st19" d="M12.3,12.9C12.3,12.9,12.4,12.9,12.3,12.9C12.4,12.9,12.3,12.9,12.3,12.9z"/>
		<path class="st19" d="M11.4,12.1C11.5,12.1,11.5,12.1,11.4,12.1C11.5,12.1,11.5,12.1,11.4,12.1z"/>
		<path class="st19" d="M11.4,12C11.4,12,11.4,12.1,11.4,12C11.4,12.1,11.4,12,11.4,12z"/>
		<path class="st17" d="M9.3,7.3C9.1,7.4,9,7.7,9.1,8c0,0.1,0.2,0.2,0.3,0.2c0.1,0,0.3-0.1,0.4-0.2c0-0.1-0.1-0.2-0.1-0.4
			C9.5,7.6,9.4,7.5,9.3,7.3z"/>
		<path class="st15" d="M7.6,8.4C7.8,8.2,8,8,8,7.9c0-0.1-0.2-0.3-0.4-0.4C7.5,7.6,7.4,7.8,7.3,8C7.3,8.1,7.4,8.2,7.6,8.4z M7.5,7.6
			c0.1,0,0.1,0,0.2,0c0,0.2,0,0.3-0.1,0.5c-0.1,0-0.1,0-0.2,0C7.5,8,7.5,7.8,7.5,7.6z"/>
		<path class="st17" d="M12.5,15.7c-0.1,0-0.2,0-0.3,0.1c-0.2,0.1-0.3,0.2-0.4,0.4c0,0-0.1-0.1-0.1-0.1c0,0.1,0,0.2,0,0.3
			c0,0,0.1-0.1,0.1-0.1c0.1,0,0.2-0.1,0.3-0.1c0.1,0.1,0.2,0.2,0.4,0.4c0.1-0.1,0.2-0.2,0.4-0.3c-0.1-0.1-0.2-0.2-0.2-0.3
			C12.6,15.8,12.6,15.7,12.5,15.7L12.5,15.7z"/>
		<path class="st17" d="M11.5,14.4c-0.1,0.1-0.2,0.1-0.3,0.2c0,0,0,0.1,0,0.1c0.2,0,0.4,0,0.5,0c0-0.1,0-0.1,0-0.2
			C11.7,14.5,11.6,14.4,11.5,14.4z"/>
		<path class="st11" d="M11.5,14.4c0.1,0,0.2,0.1,0.3,0.1c0,0,0.1-0.1,0.1-0.1c0-0.1,0-0.1,0-0.2C11.7,14.2,11.6,14.3,11.5,14.4
			C11.5,14.4,11.5,14.4,11.5,14.4z"/>
		<path class="st19" d="M13.5,14.4c-0.1,0-0.3,0-0.4-0.1C13.2,14.3,13.4,14.4,13.5,14.4z"/>
		<path class="st19" d="M13,14.3c-0.1,0-0.3,0-0.4-0.1C12.7,14.2,12.8,14.3,13,14.3z"/>
		<path class="st19" d="M12.5,14.2c-0.1,0-0.3,0-0.4-0.1C12.2,14.2,12.3,14.2,12.5,14.2z"/>
		<path class="st19" d="M11.8,14.2c0,0.1,0,0.1,0,0.2c0-0.1,0.1-0.2,0.1-0.2C11.9,14.1,11.9,14.1,11.8,14.2
			C11.8,14.1,11.8,14.2,11.8,14.2z"/>
		<path class="st11" d="M12.2,16.1c-0.1,0-0.2,0.1-0.3,0.1C12,16.2,12.1,16.1,12.2,16.1z"/>
		<path class="st26" d="M14.5,14.6L14.5,14.6C14.5,14.6,14.4,14.6,14.5,14.6C14.5,14.6,14.5,14.6,14.5,14.6z"/>
		<path class="st26" d="M14.8,14.7c0,0-0.1-0.1-0.1-0.1C14.7,14.6,14.8,14.6,14.8,14.7z"/>
		<path class="st11" d="M12.5,15.7C12.6,15.7,12.6,15.8,12.5,15.7C12.6,15.8,12.6,15.7,12.5,15.7z"/>
		<path class="st26" d="M14.5,14.5C14.5,14.5,14.5,14.5,14.5,14.5c0,0.1,0.1,0.1,0.1,0.1C14.6,14.5,14.6,14.5,14.5,14.5z"/>
		<path class="st17" d="M24.5,8c0.1,0.1,0.3,0.2,0.5,0.4c0-0.3,0.1-0.5,0.1-0.7c0-0.1-0.3-0.2-0.4-0.2C24.6,7.6,24.6,7.8,24.5,8
			C24.5,8,24.5,8,24.5,8z"/>
		<path class="st15" d="M23.9,7.6C23.9,7.7,24,7.8,24,7.8C24,7.9,23.9,8,23.8,8c-0.1,0-0.2,0-0.3-0.1c0,0,0,0,0,0
			c0.2,0.3,0.5,0.2,0.7,0.2c0.1,0,0.2-0.2,0.3-0.2c0,0,0,0,0,0c-0.1,0-0.1,0-0.1,0c0-0.2-0.1-0.3-0.1-0.5C24.1,7.5,24,7.6,23.9,7.6
			C23.9,7.6,23.9,7.6,23.9,7.6z"/>
		<path class="st6" d="M23.3,7.7c-0.1,0-0.2-0.1-0.4-0.1c-0.2,0.4-0.2,0.5,0.2,0.6C23.3,8.1,23.4,8,23.4,8c0,0,0,0,0,0
			C23.4,7.9,23.4,7.8,23.3,7.7z"/>
		<path class="st14" d="M24.5,9.9c-0.1-0.3-0.1-0.6-0.2-0.9C24.4,9.2,24.4,9.5,24.5,9.9z"/>
		<path class="st14" d="M24.6,10.3c0-0.1-0.1-0.2-0.1-0.3C24.5,10.1,24.5,10.2,24.6,10.3z"/>
		<path class="st14" d="M24.9,8.6c0.1,0,0.2,0,0.3-0.1C25.1,8.5,25,8.5,24.9,8.6z"/>
		<path class="st14" d="M26,8.2c0.1,0,0.2,0,0.3-0.1C26.2,8.2,26.1,8.2,26,8.2z"/>
		<path class="st14" d="M25.2,8.5c0.1,0,0.1,0,0.2-0.1C25.4,8.4,25.3,8.4,25.2,8.5z"/>
		<path class="st17" d="M24.7,8.4C24.7,8.4,24.7,8.3,24.7,8.4C24.6,8.3,24.6,8.4,24.7,8.4C24.6,8.4,24.7,8.4,24.7,8.4z"/>
		<path class="st14" d="M25.5,8.4c0.1,0,0.1,0,0.2-0.1C25.6,8.3,25.6,8.4,25.5,8.4z"/>
		<path class="st14" d="M25.8,8.3c0.1,0,0.1,0,0.2-0.1C25.9,8.3,25.8,8.3,25.8,8.3z"/>
		<path class="st14" d="M26.4,8.1c0.1,0,0.1,0,0.2-0.1C26.5,8.1,26.4,8.1,26.4,8.1z"/>
		<path class="st14" d="M24.4,8.7c0.1,0,0.1,0,0.2-0.1C24.5,8.7,24.4,8.7,24.4,8.7z"/>
		<path class="st14" d="M24.6,8.6c0.1,0,0.1,0,0.2-0.1C24.8,8.6,24.7,8.6,24.6,8.6z"/>
		<path class="st14" d="M24.3,8.8C24.3,8.8,24.3,8.8,24.3,8.8C24.3,8.8,24.3,8.8,24.3,8.8z"/>
		<path class="st15" d="M23.9,7.6C23.9,7.6,23.9,7.6,23.9,7.6C23.9,7.6,23.9,7.6,23.9,7.6C23.9,7.6,23.9,7.6,23.9,7.6z"/>
		<path class="st21" d="M16.2,12.3c-0.1,0-0.2,0.1-0.2,0.1c0,0.1,0.1,0.3,0.1,0.4c0.1,0.1,0.2,0.1,0.4,0.3c0-0.3,0-0.5,0-0.7
			C16.6,12.3,16.4,12.3,16.2,12.3c0.1,0.1,0.1,0.3,0.2,0.4c-0.1,0-0.1,0-0.2,0C16.3,12.5,16.3,12.4,16.2,12.3z"/>
		<path class="st17" d="M11.8,14.2C11.8,14.2,11.8,14.1,11.8,14.2c-0.2-0.1-0.3-0.2-0.5-0.3c0,0,0,0.1,0,0.1
			c0.1,0.1,0.2,0.2,0.2,0.4C11.6,14.3,11.7,14.2,11.8,14.2z"/>
		<path class="st16" d="M29.7,14C29.7,14,29.7,14,29.7,14C29.7,14,29.7,14,29.7,14z"/>
		<path class="st24" d="M26.9,24.5c-0.1-0.4-0.2-0.8-0.3-1.3c0,0,0-0.1,0-0.1c0,0,0-0.1-0.1-0.1c-0.2-0.6-0.4-1.2-0.6-1.9
			c-0.3,0-0.6,0-0.9,0c0.1,0.2,0.1,0.4,0.2,0.6c-0.3,0-0.6,0-0.9,0c0.1,0.1,0.1,0.2,0.2,0.2c0.2,0,0.3,0.1,0.2,0.3
			c-0.1,0.1-0.3,0.1-0.4,0.2c0.3,0.5,0.6,1,0.9,1.5c0.1,0.2,0.2,0.3,0.3,0.4C26,24.5,26.4,24.5,26.9,24.5z"/>
		<path class="st11" d="M19.2,24.2c-0.1-0.4-0.1-0.4-0.8-0.5c0,0.2,0,0.4-0.1,0.6c0,0-0.1,0-0.1,0c0-0.2-0.1-0.4-0.1-0.6
			c0,0-0.1,0-0.1,0c-0.1,0.1-0.2,0.3-0.2,0.4c0,0.1,0.2,0.3,0.3,0.3c0.1,0,0.3-0.1,0.4-0.2C18.7,24.1,18.8,23.8,19.2,24.2z"/>
		<path class="st17" d="M23.6,21.9c-0.1,0.3-0.3,0.5-0.7,0.4l0,0c0.1,0.1,0.2,0.1,0.3,0.2c0.2,0.1,0.3,0.1,0.6,0.1
			c0,0,0.1-0.2,0.2-0.3C23.9,22.1,24.1,21.7,23.6,21.9z"/>
		<path class="st29" d="M24.5,22c-0.1-0.1-0.1-0.2-0.2-0.2c0,0.1-0.1,0.1-0.1,0.2c0,0,0.1,0,0.1,0C24.3,22,24.4,22,24.5,22
			C24.4,22.1,24.5,22,24.5,22z"/>
		<path class="st4" d="M24.3,22C24.3,22,24.2,22,24.3,22c-0.1,0.1-0.1,0.2-0.1,0.2c0,0.1,0.1,0.1,0.1,0.2c0,0,0,0,0,0
			C24.3,22.2,24.3,22.1,24.3,22z"/>
		<path class="st15" d="M22.3,19.6c0,0-0.1,0-0.1,0c0,0,0,0,0,0C22.2,19.6,22.2,19.6,22.3,19.6C22.3,19.6,22.3,19.6,22.3,19.6z"/>
		<path class="st30" d="M26.5,23c0,0,0,0.1,0.1,0.1C26.6,23.1,26.6,23.1,26.5,23z"/>
		<path class="st29" d="M24.7,26.4c0.1-0.1,0.3-0.2,0.5-0.3c-0.2-0.2-0.4-0.4-0.6-0.5c0,0,0-0.1,0-0.1c-0.2,0-0.4,0-0.7,0
			c0,0,0,0.1,0,0.1c0.3,0.1,0.7,0.3,1,0.4C24.9,26.2,24.8,26.3,24.7,26.4C24.7,26.4,24.7,26.4,24.7,26.4z"/>
		<path class="st29" d="M24.3,26.4c0-0.2,0-0.3,0.1-0.5c0,0-0.1,0-0.1,0c0,0.2-0.1,0.3-0.1,0.5C24.2,26.4,24.3,26.4,24.3,26.4z"/>
		<path class="st23" d="M23.1,23.6c-0.1,0-0.2,0-0.3,0C22.9,23.6,23,23.6,23.1,23.6z"/>
		<path class="st23" d="M23.3,23.7C23.2,23.7,23.2,23.7,23.3,23.7C23.2,23.7,23.2,23.7,23.3,23.7z"/>
		<path class="st23" d="M23.7,24.2C23.7,24.1,23.6,24.1,23.7,24.2C23.6,24.1,23.7,24.1,23.7,24.2z"/>
		<path class="st23" d="M23.6,24.1C23.6,24,23.6,24,23.6,24.1C23.6,24,23.6,24,23.6,24.1z"/>
		<path class="st23" d="M23.5,24C23.5,24,23.5,23.9,23.5,24C23.5,23.9,23.5,24,23.5,24z"/>
		<path class="st23" d="M23.4,23.9C23.4,23.9,23.4,23.8,23.4,23.9C23.4,23.8,23.4,23.9,23.4,23.9z"/>
		<path class="st23" d="M23.4,23.8C23.3,23.8,23.3,23.8,23.4,23.8C23.3,23.8,23.3,23.8,23.4,23.8z"/>
		<path class="st10" d="M22.9,22.3c-0.1-0.2-0.2-0.4-0.4-0.6c-0.2,0.1-0.3,0.2-0.4,0.3c-0.1,0.1,0,0.3,0.1,0.4
			c0.1,0.1,0.3,0.1,0.4,0.1c-0.1-0.2-0.1-0.4-0.2-0.6C22.6,22.1,22.8,22.2,22.9,22.3C22.9,22.3,22.9,22.3,22.9,22.3z"/>
		<path class="st4" d="M24.5,22C24.5,22,24.4,22.1,24.5,22c-0.1,0.2-0.1,0.2-0.2,0.3c0,0,0,0,0,0c0,0.1,0,0.1-0.1,0.2
			c0.1-0.1,0.3-0.1,0.4-0.2C24.8,22.1,24.7,22,24.5,22z"/>
		<path class="st17" d="M26.3,14.6c0,0.2,0,0.4,0,0.7c0,0,0,0.1,0.1,0.1c0.1-0.1,0.2-0.2,0.2-0.3C26.7,14.7,26.6,14.6,26.3,14.6z"/>
		<path class="st27" d="M24.4,14.4C24.4,14.4,24.4,14.4,24.4,14.4C24.4,14.4,24.4,14.4,24.4,14.4C24.4,14.4,24.4,14.4,24.4,14.4z"/>
		<path class="st4" d="M28.5,23.6C28.5,23.6,28.4,23.6,28.5,23.6C28.4,23.6,28.5,23.6,28.5,23.6z"/>
		<path class="st8" d="M7.5,7.6c0,0.2,0,0.3,0,0.5c0.1,0,0.1,0,0.2,0c0-0.2,0-0.3,0.1-0.5C7.7,7.6,7.6,7.6,7.5,7.6z"/>
		<path class="st2" d="M16.2,12.3c0,0.1,0,0.3,0,0.4c0.1,0,0.1,0,0.2,0C16.4,12.5,16.3,12.4,16.2,12.3
			C16.2,12.3,16.2,12.3,16.2,12.3z"/>
		<path class="st24" d="M24.3,22.3c0-0.1,0.1-0.2,0.1-0.3c0,0-0.1-0.1-0.1-0.1C24.3,22.1,24.3,22.2,24.3,22.3z"/>
	</g>
</g>
<path class="st3" d="M43.3,15.6c0,1.9-3.7,1.9-3.7,0C39.6,13.7,43.3,13.7,43.3,15.6z"/>
<path class="st31" d="M33.6,17.8c0,1.3-3.3,1.3-3.2,0C30.4,16.5,33.7,16.5,33.6,17.8z"/>
<path class="st32" d="M23.1,18.5c0,0.8-2,0.8-1.9,0C21.1,17.7,23.1,17.7,23.1,18.5z"/>
<path class="st33" d="M26.3,6.9c0,0.8-1.3,0.8-1.3,0C25,6.1,26.3,6.1,26.3,6.9z"/>
<path class="st33" d="M22.7,7.1c0-1.2,3.2-1.2,3.1,0C25.8,8.3,22.7,8.3,22.7,7.1z"/>
<path class="st34" d="M17.9,11.4c0,0.8-1.3,0.8-1.3,0C16.6,10.6,17.9,10.6,17.9,11.4z"/>
<path class="st35" d="M10.8,6.9c0,0.8-1.3,0.8-1.3,0C9.5,6.1,10.8,6.1,10.8,6.9z"/>
<path class="st35" d="M12.7,13.4c0,0.8-1.3,0.8-1.3,0C11.4,12.5,12.8,12.5,12.7,13.4z"/>
<path class="st36" d="M25,21.1c0,0.8-1.3,0.8-1.3,0C23.7,20.3,25,20.3,25,21.1z"/>
<path class="st37" d="M26.3,33.4c0,2.5-4.6,2.5-4.5,0C21.8,30.9,26.4,30.9,26.3,33.4z"/>
<path class="st37" d="M29.6,30.2c0,0.8-2,0.8-1.9,0C27.6,29.3,29.6,29.3,29.6,30.2z"/>
<path class="st37" d="M30.9,29.2c0,1.3-0.7,1.3-0.6,0C30.2,27.9,30.9,27.9,30.9,29.2z"/>
<path class="st37" d="M14,25.6c0,1.7-2.6,1.7-2.6,0C11.4,24,14.1,24,14,25.6z"/>
<g>
	<text transform="matrix(0.8309 0 0 1 57.1354 35.5671)" class="st38 st39 st40">ESJ-Geo</text>
</g>
</svg>
